<?xml version="1.0" encoding="UTF-8"?>
<svg width="1000px" height="1000px" viewBox="0 0 1000 1000" version="1.1" xmlns="http://www.w3.org/2000/svg" xmlns:xlink="http://www.w3.org/1999/xlink">
    <!-- Generator: Sketch 50.2 (55047) - http://www.bohemiancoding.com/sketch -->
    <title>Artboard 2</title>
    <desc>Created with Sketch.</desc>
    <defs>
        <linearGradient x1="28.1365668%" y1="100%" x2="76.1144081%" y2="0%" id="linearGradient-1">
            <stop stop-color="#FE2F0D" offset="0%"></stop>
            <stop stop-color="#FF7231" offset="100%"></stop>
        </linearGradient>
    </defs>
    <g id="Artboard-2" stroke="none" stroke-width="1" fill="none" fill-rule="evenodd">
        <polygon id="Rectangle" points="0 -4 1000 -4 1000 996 0 996"></polygon>
        <g id="logo4-copy-2" transform="translate(60.000000, 16.000000)">
            <g id="5-copy">
                <path d="M53.480867,201.766976 L386.519133,13.994258 C419.613209,-4.66475266 460.386791,-4.66475266 493.480867,13.994258 L826.519133,201.766976 C859.613209,220.425987 880,254.909261 880,292.227282 L880,667.772718 C880,705.090739 859.613209,739.574013 826.519133,758.233024 L493.480867,946.005742 C460.386791,964.664753 419.613209,964.664753 386.519133,946.005742 L53.480867,758.233024 C20.3867913,739.574013 3.04003533e-13,705.090739 3.04003533e-13,667.772718 L0,292.227282 C0,254.909261 20.3867913,220.425987 53.480867,201.766976 Z" id="Polygon" fill="url(#linearGradient-1)"></path>
                <g id="Group" transform="translate(200.000000, 290.000000)">
                    <path d="M80,209.262234 C127.09567,169.754078 180.429004,150 240,150 C299.570996,150 352.90433,170 400,210" id="Path-65" stroke="#FFD700" stroke-width="80" stroke-linecap="round"></path>
                    <path d="M0,90 C66.5445963,30 146.544596,2.14593489e-15 240,0 C333.455404,0 413.455404,30 480,90" id="Path-65" stroke="#FFD700" stroke-width="80" stroke-linecap="round"></path>
                    <path d="M150.689916,291.71312 C181.582816,281.516587 207.328461,280.015775 245.767214,280.015775 C279.881987,280.015775 306.088465,282 328.732633,292.183193 C339.570478,297.057024 350,302.717886 350,315.750923 C350,322.630936 344.863755,326.672857 338.588915,329.699894 C336.596482,330.661061 311.657416,340.392915 300.995297,344.495755 C265.817121,353.56739 265.12334,395.958162 246.234399,430 C227.974185,395.938755 209.890433,354.832677 180.351664,344.495755 C167.197527,339.505967 155.818748,336.218641 143.063193,328.953551 C137.644908,325.867533 131.772345,321.145292 130.621871,315.593769 C127.510132,300.578313 136.366967,296.440563 150.689916,291.71312 Z" id="Path-68" fill="#FFD700"></path>
                </g>
            </g>
        </g>
    </g>
</svg>