<?xml version="1.0" encoding="UTF-8"?>
<svg width="36px" height="36px" viewBox="0 0 36 36" version="1.1" xmlns="http://www.w3.org/2000/svg" xmlns:xlink="http://www.w3.org/1999/xlink">
    <!-- Generator: Sketch 50.2 (55047) - http://www.bohemiancoding.com/sketch -->
    <title>手机</title>
    <desc>Created with Sketch.</desc>
    <defs></defs>
    <g id="Page-1" stroke="none" stroke-width="1" fill="none" fill-rule="evenodd">
        <g id="登录" transform="translate(-50.000000, -638.000000)">
            <rect id="Rectangle-6" fill="#F7F8FF" x="0" y="0" width="750" height="1334"></rect>
            <g id="输入手机号" transform="translate(50.000000, 607.000000)" fill="#333333">
                <g id="手机" transform="translate(0.000000, 31.000000)">
                    <g id="Shape">
                        <g transform="translate(6.666667, 2.666667)" fill-rule="nonzero">
                            <path d="M9.33333333,26.6666667 C9.33333333,27.7712362 10.2287638,28.6666667 11.3333333,28.6666667 C12.4379028,28.6666667 13.3333333,27.7712362 13.3333333,26.6666667 C13.3333333,25.5620972 12.4379028,24.6666667 11.3333333,24.6666667 C10.2287638,24.6666667 9.33333333,25.5620972 9.33333333,26.6666667 Z"></path>
                            <path d="M19.8750787,6.26494675e-06 L2.79158796,6.26494675e-06 C1.25236116,6.26494675e-06 0,1.24100604 0,2.76888075 L0,28.5644588 C0,30.0902086 1.25236116,31.3333333 2.79158796,31.3333333 L19.8750787,31.3333333 C21.4121647,31.3333333 22.6666667,30.0902086 22.6666667,28.5623338 L22.6666667,2.76888075 C22.6666667,2.02513089 22.3733787,1.33025602 21.8467447,0.809631116 C21.3243891,0.289860257 20.6147031,-0.00155798539 19.8750787,6.26494675e-06 Z M20.6633301,23.3583171 L20.6409691,28.6569865 C20.6409691,29.0337136 20.3333023,29.3391113 19.953776,29.3391113 L2.67606253,29.3369863 C2.49400474,29.3375511 2.31920854,29.2661578 2.19027293,29.1385718 C2.06133733,29.0109859 1.98886859,28.8377024 1.98886948,28.6569865 L2.01123047,23.3561921 L20.6633301,23.3583171 Z M2.71650849,2.03400781 L20.0416667,2.03613281 C20.2237253,2.03613193 20.3982963,2.1080662 20.5268302,2.23605088 C20.6553642,2.36403556 20.7272879,2.53754261 20.7267189,2.71825769 L20.7052409,21.3321126 L2.00552752,21.3321126 L2.02717466,2.71825769 C2.02717466,2.34000776 2.33544817,2.03400781 2.71650849,2.03400781 Z"></path>
                        </g>
                    </g>
                </g>
                <g id="手机" transform="translate(0.000000, 31.000000)" fill-rule="nonzero">
                    <g id="Shape">
                        <g transform="translate(6.666667, 2.666667)">
                            <path d="M9.33333333,26.6666667 C9.33333333,27.7712362 10.2287638,28.6666667 11.3333333,28.6666667 C12.4379028,28.6666667 13.3333333,27.7712362 13.3333333,26.6666667 C13.3333333,25.5620972 12.4379028,24.6666667 11.3333333,24.6666667 C10.2287638,24.6666667 9.33333333,25.5620972 9.33333333,26.6666667 Z"></path>
                            <path d="M19.8750787,6.26494675e-06 L2.79158796,6.26494675e-06 C1.25236116,6.26494675e-06 0,1.24100604 0,2.76888075 L0,28.5644588 C0,30.0902086 1.25236116,31.3333333 2.79158796,31.3333333 L19.8750787,31.3333333 C21.4121647,31.3333333 22.6666667,30.0902086 22.6666667,28.5623338 L22.6666667,2.76888075 C22.6666667,2.02513089 22.3733787,1.33025602 21.8467447,0.809631116 C21.3243891,0.289860257 20.6147031,-0.00155798539 19.8750787,6.26494675e-06 Z M20.6633301,23.3583171 L20.6409691,28.6569865 C20.6409691,29.0337136 20.3333023,29.3391113 19.953776,29.3391113 L2.67606253,29.3369863 C2.49400474,29.3375511 2.31920854,29.2661578 2.19027293,29.1385718 C2.06133733,29.0109859 1.98886859,28.8377024 1.98886948,28.6569865 L2.01123047,23.3561921 L20.6633301,23.3583171 Z M2.71650849,2.03400781 L20.0416667,2.03613281 C20.2237253,2.03613193 20.3982963,2.1080662 20.5268302,2.23605088 C20.6553642,2.36403556 20.7272879,2.53754261 20.7267189,2.71825769 L20.7052409,21.3321126 L2.00552752,21.3321126 L2.02717466,2.71825769 C2.02717466,2.34000776 2.33544817,2.03400781 2.71650849,2.03400781 Z"></path>
                        </g>
                    </g>
                </g>
            </g>
        </g>
    </g>
</svg>