<?xml version="1.0" encoding="UTF-8"?>
<svg width="36px" height="36px" viewBox="0 0 36 36" version="1.1" xmlns="http://www.w3.org/2000/svg" xmlns:xlink="http://www.w3.org/1999/xlink">
    <!-- Generator: Sketch 50.2 (55047) - http://www.bohemiancoding.com/sketch -->
    <title>锁</title>
    <desc>Created with Sketch.</desc>
    <defs></defs>
    <g id="Page-1" stroke="none" stroke-width="1" fill="none" fill-rule="evenodd">
        <g id="登录" transform="translate(-50.000000, -756.000000)">
            <rect id="Rectangle-6" fill="#F7F8FF" x="0" y="0" width="750" height="1334"></rect>
            <g id="Group" transform="translate(30.000000, 725.000000)" fill="#000000">
                <g id="输入手机号-copy" transform="translate(20.000000, 0.000000)">
                    <g id="锁" transform="translate(0.000000, 31.000000)">
                        <g id="icon">
                            <g fill-rule="nonzero">
                                <path d="M25.3368225,14.6673177 C25.3368225,12.1011917 25.3368225,10.8181286 25.3368225,10.8181286 C25.0490819,7.35533917 21.5001798,4.66666667 18,4.66666667 C14.4998202,4.66666667 10.9492287,7.35533917 10.6614583,10.8181286 C10.6614583,10.8181286 10.6614583,12.1011917 10.6614583,14.6673177 L8.8333259,14.6673177 C7.27071059,14.6673177 6,15.7855143 6,17.3437162 L6,28.5679705 C6,30.126202 7.27071059,31.3939394 8.8333259,31.3939394 L27.1666741,31.3939394 C28.7292894,31.3939394 30,30.1261723 30,28.5679705 L30,17.3437162 C30.0000297,15.7855143 28.7293192,14.6673177 27.1666741,14.6673177 L25.3368225,14.6673177 Z M12.6938431,11.06617 C12.8571063,8.26986755 15.1938958,6.70581055 18.0002441,6.70581055 C20.8065925,6.70581055 23.143382,8.26983788 23.3066452,11.0661403 C23.3080332,11.0923655 23.3080332,12.2889873 23.3066452,14.6560059 L12.6606491,14.6560059 C12.6813904,12.2896796 12.692455,11.0930676 12.6938431,11.06617 Z M28.0022749,27.9083659 C28.0022749,28.6876448 27.3665627,29.3213504 26.585612,29.3213504 L9.44181315,29.3213504 C8.66083268,29.3213504 8.0251502,28.6876448 8.0251502,27.9083659 L8.0251502,18.1111654 C8.0251502,17.3318864 8.66086242,16.6981809 9.44181315,16.6981809 L26.585612,16.6981809 C27.3665925,16.6981809 28.0022749,17.3318864 28.0022749,18.1111654 L28.0022749,27.9083659 Z" id="Shape"></path>
                                <path d="M17.8390909,19.3535354 C16.2233886,19.3535354 14.9090909,20.6431295 14.9090909,22.228463 C14.9090909,23.5935212 15.8857576,24.7341189 17.1879707,25.026183 L17.1879707,27.6588641 C17.1879707,28.0116642 17.4791771,28.2977458 17.8390909,28.2977458 C18.1989773,28.2977458 18.4902111,28.011691 18.4902111,27.6588641 L18.4902111,25.026183 C19.7924242,24.7341189 20.7690909,23.5935212 20.7690909,22.228463 C20.7690909,20.6431295 19.4547932,19.3535354 17.8390909,19.3535354 Z M17.8390909,23.8256272 C16.941275,23.8256272 16.2113314,23.1090817 16.2113314,22.228463 C16.2113314,21.3478444 16.941275,20.6312989 17.8390909,20.6312989 C18.7369068,20.6312989 19.4668504,21.3478444 19.4668504,22.228463 C19.4668778,23.1090817 18.7369341,23.8256272 17.8390909,23.8256272 Z" id="Shape"></path>
                            </g>
                        </g>
                    </g>
                    <g id="锁" transform="translate(0.000000, 31.000000)" fill-rule="nonzero">
                        <g id="icon">
                            <g>
                                <path d="M25.3368225,14.6673177 C25.3368225,12.1011917 25.3368225,10.8181286 25.3368225,10.8181286 C25.0490819,7.35533917 21.5001798,4.66666667 18,4.66666667 C14.4998202,4.66666667 10.9492287,7.35533917 10.6614583,10.8181286 C10.6614583,10.8181286 10.6614583,12.1011917 10.6614583,14.6673177 L8.8333259,14.6673177 C7.27071059,14.6673177 6,15.7855143 6,17.3437162 L6,28.5679705 C6,30.126202 7.27071059,31.3939394 8.8333259,31.3939394 L27.1666741,31.3939394 C28.7292894,31.3939394 30,30.1261723 30,28.5679705 L30,17.3437162 C30.0000297,15.7855143 28.7293192,14.6673177 27.1666741,14.6673177 L25.3368225,14.6673177 Z M12.6938431,11.06617 C12.8571063,8.26986755 15.1938958,6.70581055 18.0002441,6.70581055 C20.8065925,6.70581055 23.143382,8.26983788 23.3066452,11.0661403 C23.3080332,11.0923655 23.3080332,12.2889873 23.3066452,14.6560059 L12.6606491,14.6560059 C12.6813904,12.2896796 12.692455,11.0930676 12.6938431,11.06617 Z M28.0022749,27.9083659 C28.0022749,28.6876448 27.3665627,29.3213504 26.585612,29.3213504 L9.44181315,29.3213504 C8.66083268,29.3213504 8.0251502,28.6876448 8.0251502,27.9083659 L8.0251502,18.1111654 C8.0251502,17.3318864 8.66086242,16.6981809 9.44181315,16.6981809 L26.585612,16.6981809 C27.3665925,16.6981809 28.0022749,17.3318864 28.0022749,18.1111654 L28.0022749,27.9083659 Z" id="Shape"></path>
                                <path d="M17.8390909,19.3535354 C16.2233886,19.3535354 14.9090909,20.6431295 14.9090909,22.228463 C14.9090909,23.5935212 15.8857576,24.7341189 17.1879707,25.026183 L17.1879707,27.6588641 C17.1879707,28.0116642 17.4791771,28.2977458 17.8390909,28.2977458 C18.1989773,28.2977458 18.4902111,28.011691 18.4902111,27.6588641 L18.4902111,25.026183 C19.7924242,24.7341189 20.7690909,23.5935212 20.7690909,22.228463 C20.7690909,20.6431295 19.4547932,19.3535354 17.8390909,19.3535354 Z M17.8390909,23.8256272 C16.941275,23.8256272 16.2113314,23.1090817 16.2113314,22.228463 C16.2113314,21.3478444 16.941275,20.6312989 17.8390909,20.6312989 C18.7369068,20.6312989 19.4668504,21.3478444 19.4668504,22.228463 C19.4668778,23.1090817 18.7369341,23.8256272 17.8390909,23.8256272 Z" id="Shape"></path>
                            </g>
                        </g>
                    </g>
                </g>
            </g>
        </g>
    </g>
</svg>