<?xml version="1.0" encoding="UTF-8"?>
<svg width="24px" height="24px" viewBox="0 0 24 24" version="1.1" xmlns="http://www.w3.org/2000/svg" xmlns:xlink="http://www.w3.org/1999/xlink">
    <!-- Generator: Sketch 50.2 (55047) - http://www.bohemiancoding.com/sketch -->
    <title>icon_share</title>
    <desc>Created with Sketch.</desc>
    <defs></defs>
    <g id="Page-1" stroke="none" stroke-width="1" fill="none" fill-rule="evenodd">
        <g id="首页-详情" transform="translate(-33.000000, -1276.000000)">
            <g id="底部" transform="translate(0.000000, 1236.000000)">
                <g id="icon_share" transform="translate(30.000000, 37.000000)">
                    <g>
                        <rect id="Rectangle-2" x="0" y="0" width="30" height="30"></rect>
                        <g id="分享" transform="translate(3.000000, 3.000000)" fill="#666666" fill-rule="nonzero">
                            <path d="M15.075,7.61309383e-16 C12.7232143,7.61309383e-16 10.8160714,1.90717691 10.8160714,4.26168324 C10.8160714,6.61618957 12.7232143,8.52604511 15.075,8.52604511 C17.4267857,8.52604511 19.3339286,6.61618957 19.3339286,4.26168324 C19.3339286,1.90717691 17.4294643,0 15.075,0 M15.075,1.9473562 C16.3526786,1.9473562 17.3892857,2.98666048 17.3892857,4.26168324 C17.3892857,5.53938463 16.3526786,6.57868891 15.075,6.57868891 C13.8,6.57868891 12.7607143,5.53938463 12.7607143,4.26168324 C12.7633929,2.98666048 13.8,1.9473562 15.075,1.9473562 M4.25892857,10.96091 C1.90714286,10.96091 0,12.8707655 0,15.2225933 C0,17.574421 1.90714286,19.4869551 4.25892857,19.4869551 C6.61071429,19.4869551 8.51785714,17.5770996 8.51785714,15.2225933 C8.51785714,12.8680869 6.61071429,10.96091 4.25892857,10.96091 M4.25892857,12.9082662 C5.53660714,12.9082662 6.57321429,13.9475705 6.57321429,15.2252719 C6.57321429,16.5029733 5.53660714,17.5422775 4.25892857,17.5422775 C2.98392857,17.5422775 1.94464286,16.5029733 1.94464286,15.2252719 C1.94464286,13.9475705 2.98392857,12.9082662 4.25892857,12.9082662 M19.7410714,15.4739549 C17.3892857,15.4739549 15.4821429,17.3838104 15.4821429,19.7356381 C15.4821429,22.0874658 17.3892857,24 19.7410714,24 C22.0928571,24 24,22.0901445 24,19.7356381 C24,17.3811318 22.0928571,15.4739549 19.7410714,15.4739549 M19.7410714,17.4213111 C21.0160714,17.4213111 22.0553571,18.4606154 22.0553571,19.7383168 C22.0553571,21.0160181 21.0160714,22.0553224 19.7410714,22.0553224 C18.4660714,22.0553224 17.4267857,21.0160181 17.4267857,19.7383168 C17.4267857,18.4606154 18.4660714,17.4213111 19.7410714,17.4213111" id="Shape"></path>
                            <polygon id="Shape" points="7.38461538 17.205796 7.92517256 15.3846154 16.6153846 17.8711271 16.0748274 19.6923077"></polygon>
                            <polygon id="Shape" points="5.84615385 12.1630611 12.1360383 5.84615385 13.5384615 7.2215273 7.24857707 13.5384615"></polygon>
                        </g>
                    </g>
                </g>
            </g>
        </g>
    </g>
</svg>