<?xml version="1.0" encoding="UTF-8"?>
<svg width="60px" height="60px" viewBox="0 0 60 60" version="1.1" xmlns="http://www.w3.org/2000/svg" xmlns:xlink="http://www.w3.org/1999/xlink">
    <!-- Generator: Sketch 50.2 (55047) - http://www.bohemiancoding.com/sketch -->
    <title>icon_release</title>
    <desc>Created with Sketch.</desc>
    <defs>
        <linearGradient x1="14.815859%" y1="10.2817304%" x2="80.5533754%" y2="86.667644%" id="linearGradient-1">
            <stop stop-color="#509EFF" offset="0%"></stop>
            <stop stop-color="#3C6AFF" offset="100%"></stop>
        </linearGradient>
        <linearGradient x1="50%" y1="-18.927062%" x2="50%" y2="44.2582097%" id="linearGradient-2">
            <stop stop-color="#FFFFFF" stop-opacity="0.821586277" offset="0%"></stop>
            <stop stop-color="#FFFFFF" offset="100%"></stop>
        </linearGradient>
    </defs>
    <g id="Page-1" stroke="none" stroke-width="1" fill="none" fill-rule="evenodd">
        <g id="我的-copy-2" transform="translate(-468.000000, -450.000000)">
            <g id="个人信息" transform="translate(20.000000, 270.000000)">
                <g id="icon_release" transform="translate(448.000000, 180.000000)">
                    <circle id="Oval-5" fill="url(#linearGradient-1)" cx="30" cy="30" r="30"></circle>
                    <g id="上传" transform="translate(14.000000, 16.137931)" fill-rule="nonzero">
                        <path d="M7.90447897,17.0662288 C7.50109134,17.518701 7.81880372,18.2448458 8.41853046,18.2448458 L11.4278736,18.2448458 L11.4278736,25.9770115 C11.4278736,26.863711 12.1311246,27.5862069 13.0021563,27.5862069 L18.9958538,27.5862069 C19.8633157,27.5862069 20.5701365,26.86736 20.5701365,25.9770115 L20.5701365,18.2448458 L23.5830494,18.2448458 C24.1827762,18.2448458 24.4969187,17.518701 24.0971009,17.0662288 L16.5255508,8.51669403 C16.2435365,8.19558475 15.7509038,8.19558475 15.4653196,8.51669403 L7.90447897,17.0662288 Z" id="Shape" fill="url(#linearGradient-2)"></path>
                        <path d="M25.1428571,9.26896552 C25.1428571,4.14931034 21.05,0 16,0 C10.95,0 6.85714286,4.14931034 6.85714286,9.26896552 C3.07142857,9.26896552 0,12.3827586 0,16.2206897 C0,20.0586207 3.07142857,23.1724138 6.85714286,23.1724138 L10.2857143,23.1724138 L10.2857143,19.6965517 L8.41428571,19.6965517 C7.68928571,19.6965517 7.03214286,19.262069 6.73928571,18.5922414 C6.44642857,17.9224138 6.56785714,17.1367241 7.05714286,16.59 L14.625,8.10672414 C14.975,7.71206897 15.4785714,7.48758621 16.0035714,7.48758621 C16.5285714,7.48758621 17.0285714,7.71206897 17.3821429,8.10672414 L24.95,16.59 C25.4357143,17.1331034 25.5607143,17.9187931 25.2678571,18.5922414 C24.975,19.262069 24.3142857,19.6965517 23.5928571,19.6965517 L21.7142857,19.6965517 L21.7142857,23.1724138 L25.1428571,23.1724138 C28.9285714,23.1724138 32,20.0586207 32,16.2206897 C32,12.3827586 28.9285714,9.26896552 25.1428571,9.26896552 Z" id="Shape" fill="#FFFFFF"></path>
                    </g>
                </g>
            </g>
        </g>
    </g>
</svg>