<?xml version="1.0" encoding="UTF-8"?>
<svg width="30px" height="30px" viewBox="0 0 30 30" version="1.1" xmlns="http://www.w3.org/2000/svg" xmlns:xlink="http://www.w3.org/1999/xlink">
    <!-- Generator: Sketch 50.2 (55047) - http://www.bohemiancoding.com/sketch -->
    <title>icon_share it</title>
    <desc>Created with Sketch.</desc>
    <defs>
        <linearGradient x1="39.5729235%" y1="50%" x2="22.2836344%" y2="15.0701975%" id="linearGradient-1">
            <stop stop-color="#FF8900" offset="0%"></stop>
            <stop stop-color="#FFC600" offset="100%"></stop>
        </linearGradient>
    </defs>
    <g id="Page-1" stroke="none" stroke-width="1" fill="none" fill-rule="evenodd">
        <g id="我的-copy-2" transform="translate(-30.000000, -703.000000)" fill="url(#linearGradient-1)">
            <g id="list" transform="translate(0.000000, 570.000000)">
                <g id="share-it" transform="translate(30.000000, 99.000000)">
                    <g id="icon_share-it" transform="translate(0.000000, 34.000000)">
                        <g id="分享-(1)">
                            <path d="M14.4333044,12.1505857 C14.7983059,13.0299776 15,13.9925779 15,15 C15,16.0486749 14.7814494,17.0487821 14.3876468,17.9570235 L21.7499711,22.2077666 C22.6019762,21.226233 23.8637221,20.6140789 25.2924342,20.6140789 L25.2924342,20.6140461 C27.9122697,20.6140461 29.9707237,22.6725987 29.9707237,25.2924342 C29.9707237,27.9122697 27.9123026,29.9707237 25.2924013,29.9707237 C22.6725,29.9707237 20.6140789,27.9123355 20.6140789,25.2924342 C20.6140789,24.7837489 20.6916804,24.2962295 20.8359256,23.8408336 L13.434584,19.5675382 C12.0624592,21.3395012 9.91586706,22.4853947 7.51463816,22.4853947 C3.39769737,22.4853947 0.0292763158,19.1169737 0.0292763158,15 C0.0292763158,10.8830263 3.39769737,7.51460526 7.51460526,7.51460526 C9.95761616,7.51460526 12.1370443,8.70070443 13.5054688,10.5254818 L20.8731272,6.27165885 C20.7050656,5.78439438 20.6140789,5.25840347 20.6140789,4.70759868 C20.6140789,2.08773026 22.6725329,0.0292434211 25.2924342,0.0292434211 L25.2924342,0.0292763158 C27.9122697,0.0292763158 29.9707237,2.08769737 29.9707237,4.70759868 C29.9707237,7.3275 27.9123355,9.38595395 25.2924342,9.38595395 C23.9071307,9.38595395 22.6788017,8.8104238 21.8287585,7.88068944 L14.4333044,12.1505857 Z" id="Combined-Shape"></path>
                        </g>
                    </g>
                </g>
            </g>
        </g>
    </g>
</svg>