<?xml version="1.0" encoding="UTF-8"?>
<svg width="30px" height="30px" viewBox="0 0 30 30" version="1.1" xmlns="http://www.w3.org/2000/svg" xmlns:xlink="http://www.w3.org/1999/xlink">
    <!-- Generator: Sketch 50.2 (55047) - http://www.bohemiancoding.com/sketch -->
    <title>Shape</title>
    <desc>Created with Sketch.</desc>
    <defs></defs>
    <g id="Page-1" stroke="none" stroke-width="1" fill="none" fill-rule="evenodd">
        <g id="发布" transform="translate(-30.000000, -745.000000)" fill="#2B8EFE" fill-rule="nonzero">
            <g id="发布电话" transform="translate(0.000000, 711.000000)">
                <g id="Group-7" transform="translate(30.000000, 34.000000)">
                    <path d="M29.9427569,26.6202407 C29.3018853,28.9286943 25.1021304,30.7980918 20.5219433,29.6540915 C15.9199392,28.5073641 11.3097538,26.0789199 7.60087946,22.3960297 C3.92336688,18.69405 1.49214518,14.085324 0.345393949,9.47932495 C-0.797266614,4.89786946 1.07080614,0.703656038 3.37794418,0.0587070956 C3.96836425,-0.104916315 6.35322502,-0.366713772 9.9489242,6.0418698 C10.9743189,7.88808728 10.1861831,7.79945794 7.88858993,11.543707 C6.81410721,13.2931139 8.57445898,15.669744 8.57445898,15.669744 C8.57445898,15.669744 9.77029826,17.5514132 11.1106746,18.8944887 C12.4496873,20.2389277 14.3341227,21.4279245 14.3341227,21.4279245 C14.3341227,21.4279245 16.7108022,23.1827856 18.4602455,22.1178699 C22.2072994,19.8230515 22.1173047,19.0267509 23.9540157,20.0603055 C30.3681866,23.6532029 30.1022931,26.035287 29.9427569,26.6202407 Z" id="Shape"></path>
                </g>
            </g>
        </g>
    </g>
</svg>