<?xml version="1.0" encoding="UTF-8"?>
<svg width="25px" height="30px" viewBox="0 0 25 30" version="1.1" xmlns="http://www.w3.org/2000/svg" xmlns:xlink="http://www.w3.org/1999/xlink">
    <!-- Generator: Sketch 50.2 (55047) - http://www.bohemiancoding.com/sketch -->
    <title>铃铛</title>
    <desc>Created with Sketch.</desc>
    <defs>
        <linearGradient x1="19.3795848%" y1="0%" x2="55.5660921%" y2="50%" id="linearGradient-1">
            <stop stop-color="#FF7C4A" offset="0%"></stop>
            <stop stop-color="#FF4E60" offset="100%"></stop>
        </linearGradient>
    </defs>
    <g id="Page-1" stroke="none" stroke-width="1" fill="none" fill-rule="evenodd">
        <g id="我的-copy-2" transform="translate(-33.000000, -901.000000)">
            <g id="list" transform="translate(0.000000, 570.000000)">
                <g id="news" transform="translate(0.000000, 297.000000)">
                    <g id="铃铛" transform="translate(30.000000, 34.000000)">
                        <rect id="Rectangle-9" x="0" y="0" width="30" height="30"></rect>
                        <path d="M19.3932192,4.06491512 C23.0704664,5.60086727 25.65625,9.2472148 25.65625,13.5012087 L25.65625,19.0008058 L28,22.1434327 L28,23.7147462 C28,24.5789686 27.296875,25.2860596 26.4375,25.2860596 L20.1875,25.2860596 C20.1875,27.8850121 18.084375,30 15.5,30 C12.915625,30 10.8125,27.8850121 10.8125,25.2860596 L4.56249998,25.2860596 C3.703125,25.2860597 3,24.5789686 3,23.7147462 L3,22.1434327 L5.34375,19.0008058 L5.34375,13.5012087 C5.34375,9.2472148 7.92953365,5.60086727 11.6067808,4.06491512 C11.629405,1.81940899 13.3671869,3.82727864e-08 15.5,0 C17.6328131,-3.82727864e-08 19.370595,1.81940895 19.3932192,4.06491512 Z M16.8598936,3.37842516 C16.6100773,2.84851502 16.097047,2.48034746 15.4992213,2.46639446 C14.9346597,2.45321783 14.4075716,2.76362184 14.1217064,3.27761777 C14.1014242,3.31408599 14.0825817,3.35117365 14.065179,3.3887928 C14.5339221,3.32214298 15.012956,3.28767123 15.5,3.28767123 C15.9611233,3.28767123 16.4150664,3.31857141 16.8598936,3.37842516 Z M17.84375,25.2860596 L13.15625,25.2860596 C13.15625,26.5877783 14.2055826,27.6430298 15.5,27.6430298 C16.7944174,27.6430298 17.84375,26.5877783 17.84375,25.2860596 Z" id="Combined-Shape" fill="url(#linearGradient-1)"></path>
                    </g>
                </g>
            </g>
        </g>
    </g>
</svg>