<?xml version="1.0" encoding="UTF-8"?>
<svg width="30px" height="28px" viewBox="0 0 30 28" version="1.1" xmlns="http://www.w3.org/2000/svg" xmlns:xlink="http://www.w3.org/1999/xlink">
    <!-- Generator: Sketch 50.2 (55047) - http://www.bohemiancoding.com/sketch -->
    <title>icon_news</title>
    <desc>Created with Sketch.</desc>
    <defs>
        <linearGradient x1="9.31150254%" y1="0%" x2="55.8884524%" y2="34.3050577%" id="linearGradient-1">
            <stop stop-color="#89BBF9" offset="0%"></stop>
            <stop stop-color="#3C6AFF" offset="100%"></stop>
        </linearGradient>
    </defs>
    <g id="Page-1" stroke="none" stroke-width="1" fill="none" fill-rule="evenodd">
        <g id="我的-copy-2" transform="translate(-30.000000, -803.000000)" fill="url(#linearGradient-1)" fill-rule="nonzero">
            <g id="list" transform="translate(0.000000, 570.000000)">
                <g id="share-it" transform="translate(30.000000, 198.000000)">
                    <g id="icon_news" transform="translate(0.000000, 35.000000)">
                        <g id="消息">
                            <path d="M27.9207921,20.631579 C27.7722772,20.7789474 27.7722772,21.5157895 29.2574258,25.9368421 C29.4059406,26.3789474 29.4059406,26.8210527 29.1089109,27.2631579 C28.8118812,27.7052632 28.2178218,28 27.6237624,28 C27.1782178,28 26.8811881,27.8526316 26.5841584,27.7052632 C24.9504951,26.5263158 22.2772277,26.5263158 21.3861386,26.5263158 L20.9405941,26.5263158 C20.4950495,26.5263158 19.7524753,26.6736842 19.1584158,26.8210527 C18.5643564,26.9684211 18.1188119,27.1157895 17.6732673,27.1157895 L15,27.1157895 C7.57425742,27.1157895 0,22.9894737 0,13.5578947 C0,6.04210528 6.68316833,0 15,0 C23.3168317,0 30,6.04210528 30,13.5578947 C30,16.5052632 29.2574258,18.2736842 27.9207921,20.631579 Z M19.5238095,13.5254237 C19.5238095,14.4427781 20.2700016,15.1864407 21.1904762,15.1864407 C22.1109508,15.1864407 22.8571429,14.4427781 22.8571429,13.5254237 C22.8571429,12.6080694 22.1109508,11.8644068 21.1904762,11.8644068 C20.2700016,11.8644068 19.5238095,12.6080694 19.5238095,13.5254237 Z M12.8571429,13.5254237 C12.8571429,14.4427781 13.6033349,15.1864407 14.5238095,15.1864407 C15.4442841,15.1864407 16.1904762,14.4427781 16.1904762,13.5254237 C16.1904762,12.6080694 15.4442841,11.8644068 14.5238095,11.8644068 C13.6033349,11.8644068 12.8571429,12.6080694 12.8571429,13.5254237 Z M6.19047619,13.5254237 C6.19047619,14.4427781 6.93666827,15.1864407 7.85714286,15.1864407 C8.77761744,15.1864407 9.52380952,14.4427781 9.52380952,13.5254237 C9.52380952,12.6080694 8.77761744,11.8644068 7.85714286,11.8644068 C6.93666827,11.8644068 6.19047619,12.6080694 6.19047619,13.5254237 Z" id="Combined-Shape"></path>
                        </g>
                    </g>
                </g>
            </g>
        </g>
    </g>
</svg>