<?xml version="1.0" encoding="UTF-8"?>
<svg width="14px" height="24px" viewBox="0 0 14 24" version="1.1" xmlns="http://www.w3.org/2000/svg" xmlns:xlink="http://www.w3.org/1999/xlink">
    <!-- Generator: Sketch 50.2 (55047) - http://www.bohemiancoding.com/sketch -->
    <title>icon_return</title>
    <desc>Created with Sketch.</desc>
    <defs></defs>
    <g id="Page-1" stroke="none" stroke-width="1" fill="none" fill-rule="evenodd">
        <g id="我的-copy-2" transform="translate(-706.000000, -607.000000)" fill="#B2B2B2" fill-rule="nonzero">
            <g id="list" transform="translate(0.000000, 570.000000)">
                <g id="Collection" transform="translate(30.000000, 0.000000)">
                    <g id="icon_return" transform="translate(683.000000, 49.250000) scale(-1, 1) translate(-683.000000, -49.250000) translate(676.000000, 37.000000)">
                        <path d="M13.6714543,22.0670362 L2.43025866,11.8823457 L13.67405,1.6968075 C13.8631462,1.51112532 13.9695487,1.25817972 13.9695735,0.994273236 C13.9695487,0.730366756 13.8631462,0.477421151 13.67405,0.291738975 C13.2812214,-0.097246325 12.6449088,-0.097246325 12.2520803,0.291738975 L0.286668293,11.1287985 C0.0783203878,11.3345768 -0.0124321865,11.6123068 0.00140069626,11.8831933 C-0.0124321865,12.1523531 0.0757247439,12.4275404 0.286668293,12.6367405 L12.2529349,23.4746162 C12.5021625,23.7459665 12.8816582,23.8594168 13.2405809,23.7698732 C13.5995037,23.6803296 13.8796988,23.4023004 13.9697951,23.046296 C14.0598221,22.6902954 13.9451914,22.3140371 13.6714543,22.0670362 Z" id="Shape"></path>
                        <path d="M12.8732984,0 C13.173878,0 13.4558579,0.115475133 13.66994,0.32758881 C13.8821649,0.537085703 14.0011155,0.823110678 13.9999921,1.12122231 C13.9988688,1.41933395 13.877766,1.70445548 13.6639682,1.91234902 L2.72472589,11.8974512 L13.6648391,21.8910391 C13.8770861,22.1032771 13.9951842,22.3834014 13.9951842,22.6820826 C13.9951842,22.9808881 13.8796365,23.2610124 13.6682293,23.4731261 C13.4558579,23.685333 13.1721673,23.8 12.8732673,23.8 C12.574274,23.8 12.2914231,23.681976 12.0841526,23.4748357 L0.322017777,12.7377931 C0.100672394,12.5179489 -0.0159048149,12.2139207 0.00175000444,11.9025488 C-0.0142991526,11.5833215 0.103674593,11.2744449 0.327118671,11.0520115 L12.0790517,0.32758881 C12.2914542,0.118023979 12.574274,0 12.8732984,0 Z M12.8732984,23.5309103 C13.0997863,23.5315756 13.3172117,23.4420583 13.4775056,23.2821492 C13.6378855,23.1222552 13.7279107,22.9050912 13.7276672,22.6786945 C13.7262409,22.454895 13.6368789,22.2406166 13.478843,22.0820471 L2.32548755,11.8974512 L13.4762615,1.71543517 C13.6374813,1.55749107 13.7283334,1.34136406 13.7283514,1.11574156 C13.7283264,0.890120478 13.6374753,0.673996076 13.4762615,0.516047957 C13.3152158,0.35573763 13.0968976,0.266153626 12.8695949,0.267110286 C12.6422922,0.268066945 12.4247367,0.359485431 12.2650478,0.521145648 L0.512274935,11.2455373 C0.342522452,11.4202626 0.254836845,11.6587107 0.270977725,11.9017096 C0.254898213,12.1396789 0.340766112,12.373266 0.50717404,12.5442362 L12.2701798,23.2796936 C12.4306713,23.4409547 12.6447534,23.5309103 12.8732984,23.5309103 Z" id="Shape"></path>
                    </g>
                </g>
            </g>
        </g>
    </g>
</svg>