<?xml version="1.0" encoding="UTF-8"?>
<svg width="40px" height="40px" viewBox="0 0 40 40" version="1.1" xmlns="http://www.w3.org/2000/svg" xmlns:xlink="http://www.w3.org/1999/xlink">
    <!-- Generator: Sketch 50.2 (55047) - http://www.bohemiancoding.com/sketch -->
    <title>Shape</title>
    <desc>Created with Sketch.</desc>
    <defs></defs>
    <g id="Page-1" stroke="none" stroke-width="1" fill="none" fill-rule="evenodd">
        <g id="首页" transform="translate(-40.000000, -63.000000)" fill="#FFFFFF" fill-rule="nonzero">
            <g id="导航栏内容" transform="translate(40.000000, 56.000000)">
                <g id="消息" transform="translate(0.000000, 7.000000)">
                    <path d="M20,35 C18.7471981,34.9960711 17.4968445,34.8890432 16.2616,34.68 L7.5,40 L7.5,31.1488 C2.932,27.9416 0,23.024 0,17.5 C0,7.8352 8.9544,0 20,0 C31.0456,0 40,7.8352 40,17.5 C40,27.1648 31.0456,35 20,35 Z M20,2.5 C10.3352,2.5 2.5,9.216 2.5,17.5 C2.5,22.5832 5.46,27.0672 9.9688,29.78 L9.8888,35.5784 L15.7728,32.0416 C17.161864,32.3423938 18.5787471,32.4960414 20,32.5 C29.6648,32.5 37.5,25.7848 37.5,17.5 C37.5,9.2152 29.6648,2.5 20,2.5 Z M11.2,15.2 C12.5254834,15.2 13.6,16.2745166 13.6,17.6 C13.6,18.9254834 12.5254834,20 11.2,20 C9.8745166,20 8.8,18.9254834 8.8,17.6 C8.8,16.2745166 9.8745166,15.2 11.2,15.2 Z M20,15.2 C21.3254834,15.2 22.4,16.2745166 22.4,17.6 C22.4,18.9254834 21.3254834,20 20,20 C18.6745166,20 17.6,18.9254834 17.6,17.6 C17.6,16.2745166 18.6745166,15.2 20,15.2 Z M28.8,15.2 C30.1254834,15.2 31.2,16.2745166 31.2,17.6 C31.2,18.9254834 30.1254834,20 28.8,20 C27.4745166,20 26.4,18.9254834 26.4,17.6 C26.4,16.2745166 27.4745166,15.2 28.8,15.2 Z" id="Shape"></path>
                </g>
            </g>
        </g>
    </g>
</svg>