<?xml version="1.0" encoding="UTF-8"?>
<svg width="30px" height="30px" viewBox="0 0 30 30" version="1.1" xmlns="http://www.w3.org/2000/svg" xmlns:xlink="http://www.w3.org/1999/xlink">
    <!-- Generator: Sketch 50.2 (55047) - http://www.bohemiancoding.com/sketch -->
    <title>icon_comments</title>
    <desc>Created with Sketch.</desc>
    <defs></defs>
    <g id="icon_comments" stroke="none" stroke-width="1" fill="none" fill-rule="evenodd">
        <g id="评论">
            <rect id="Rectangle-15" x="0" y="0" width="30" height="30"></rect>
            <g id="Group-17" transform="translate(2.000000, 4.000000)">
                <path d="M1,0 L25,0 C25.5522847,-1.01453063e-16 26,0.44771525 26,1 L26,18 C26,18.5522847 25.5522847,19 25,19 L16.1296893,19 L13,22.6398742 L9.59924697,19 L1,19 C0.44771525,19 1.84399221e-15,18.5522847 1.77635684e-15,18 L0,1 C-6.76353751e-17,0.44771525 0.44771525,1.01453063e-16 1,0 Z" id="Rectangle-13" stroke="#646464" stroke-width="2"></path>
                <rect id="Rectangle-14" fill="#646464" x="4" y="9" width="4" height="2"></rect>
                <rect id="Rectangle-14-Copy-2" fill="#646464" x="18" y="9" width="4" height="2"></rect>
                <rect id="Rectangle-14-Copy" fill="#646464" x="10" y="9" width="6" height="2"></rect>
            </g>
        </g>
    </g>
</svg>