<?xml version="1.0" encoding="UTF-8"?>
<svg width="30px" height="30px" viewBox="0 0 30 30" version="1.1" xmlns="http://www.w3.org/2000/svg" xmlns:xlink="http://www.w3.org/1999/xlink">
    <!-- Generator: Sketch 50.2 (55047) - http://www.bohemiancoding.com/sketch -->
    <title>icon_envelope</title>
    <desc>Created with Sketch.</desc>
    <defs></defs>
    <g id="icon_envelope" stroke="none" stroke-width="1" fill="none" fill-rule="evenodd">
        <g id="红包">
            <rect id="Rectangle-15" x="0" y="0" width="30" height="30"></rect>
            <g id="分享红包" transform="translate(6.000000, 4.000000)">
                <path d="M18,8 L18,21 C18,22.1045695 17.1045695,23 16,23 L2,23 C0.8954305,23 1.3527075e-16,22.1045695 0,21 L0,8" id="Rectangle-13" stroke="#646464" stroke-width="2" stroke-linecap="round"></path>
                <path d="M2.01148942,0 L16.0114894,0 C17.1160589,-2.02906125e-16 18.0114894,0.8954305 18.0114894,2 L18.0114894,4.53396114 L9.01148942,6.4145857 L0.0114894245,4.53396114 L0.0114894245,2 C0.0114894245,0.8954305 0.906919925,2.02906125e-16 2.01148942,0 Z" id="Rectangle-14" stroke="#646464" stroke-width="2"></path>
                <path d="M11.1854826,14.7332111 C11.5942042,14.7332111 11.9255386,14.4148267 11.9255386,14.0220796 C11.9255386,13.6293325 11.5942042,13.3109481 11.1854826,13.3109481 L9.98909807,13.3109481 L11.7458445,11.6842064 C11.9522996,11.5120093 12.0427235,11.2442195 11.9808128,10.988349 C11.9189021,10.7324786 11.7148098,10.5304887 11.4504748,10.463474 C11.1861397,10.3964594 10.9049111,10.47541 10.7196965,10.6686289 L8.95822134,12.3044585 L7.26531366,10.6777168 C7.07961431,10.4956865 6.8065483,10.4234019 6.55003706,10.4883725 C6.29352583,10.5533432 6.09301958,10.7455769 6.0248255,10.9919148 C5.95663142,11.2382527 6.03123744,11.5008092 6.22025054,11.6796625 L7.92970898,13.3154921 L6.74751088,13.3154921 C6.33883667,13.3155565 6.00757632,13.6339221 6.00757632,14.0266236 C6.00757632,14.4193251 6.33883667,14.7376906 6.74751088,14.737755 L8.22998731,14.737755 L8.22998731,15.4488865 L6.74751088,15.4488865 C6.33878923,15.4488865 6.00745487,15.767271 6.00745487,16.160018 C6.00745487,16.5527651 6.33878923,16.8711495 6.74751088,16.8711495 L8.22998731,16.8711495 L8.22998731,18.2888685 C8.22998731,18.6816156 8.56132167,19 8.97004332,19 C9.37876497,19 9.71009933,18.6816156 9.71009933,18.2888685 L9.71009933,16.8688775 L11.1854826,16.8688775 C11.5942042,16.8688775 11.9255386,16.5504931 11.9255386,16.157746 C11.9255386,15.764999 11.5942042,15.4466145 11.1854826,15.4466145 L9.71009933,15.4466145 L9.71009933,14.7332111 L11.1854826,14.7332111 Z" id="Shape" fill="#646464" fill-rule="nonzero"></path>
            </g>
        </g>
    </g>
</svg>