<?xml version="1.0" encoding="UTF-8"?>
<svg width="29px" height="27px" viewBox="0 0 29 27" version="1.1" xmlns="http://www.w3.org/2000/svg" xmlns:xlink="http://www.w3.org/1999/xlink">
    <!-- Generator: Sketch 50.2 (55047) - http://www.bohemiancoding.com/sketch -->
    <title>icon_feedback</title>
    <desc>Created with Sketch.</desc>
    <defs>
        <linearGradient x1="100%" y1="0%" x2="57.1120844%" y2="59.066878%" id="linearGradient-1">
            <stop stop-color="#338DFE" offset="0%"></stop>
            <stop stop-color="#003CFF" offset="100%"></stop>
        </linearGradient>
    </defs>
    <g id="Page-1" stroke="none" stroke-width="1" fill="none" fill-rule="evenodd">
        <g id="我的-copy-3" transform="translate(-30.000000, -1002.000000)">
            <g id="list" transform="translate(0.000000, 570.000000)">
                <g id="news" transform="translate(0.000000, 396.000000)">
                    <g id="icon_feedback" transform="translate(29.000000, 34.000000)">
                        <g>
                            <rect id="Rectangle-9" x="0" y="0" width="30" height="30"></rect>
                            <path d="M28.6374466,2.06722089 C10.442678,11.5488709 1.28262046,16.3229667 1.15727414,16.3895081 C0.969254658,16.4893203 0.989263856,16.6370758 1.0195755,16.7284666 C1.04988715,16.8198573 1.25723976,16.9018923 1.3322925,16.9265833 C1.38232765,16.9430439 4.41623367,17.9575343 10.4340105,19.9700545 L10.7840805,19.9700545 L23.5614828,8.33321095 L13.4095882,20.3281159 L13.4095882,20.5071296 C13.4095882,20.6861434 13.5846065,20.6861434 13.5846065,20.6861434 L23.7365011,23.9086623 L23.9115195,23.9086623 L24.0865378,23.7296485 C26.3264848,14.2493241 28.0064451,7.13908081 29.1264186,2.39891861 C29.1384463,2.34801263 29.1730709,2.06722089 29.0473374,2.01680522 C28.9635151,1.98319478 28.8268848,2 28.6374466,2.06722089 Z M13.5077749,22.2974707 C13.4610967,22.3479602 13.4095882,27.686915 13.4096214,27.8473379 C13.4096546,28.0077608 13.4047609,28.1791758 13.5077749,28.1993313 C13.610789,28.2194869 13.6573863,28.1350055 13.7596581,28.0263856 C13.8619298,27.9177658 16.8064457,23.3907901 16.771291,23.3024476 C16.7361363,23.2141051 13.5544532,22.2469812 13.5077749,22.2974707 Z" id="Shape" fill="url(#linearGradient-1)" fill-rule="nonzero"></path>
                        </g>
                    </g>
                </g>
            </g>
        </g>
    </g>
</svg>