<?xml version="1.0" encoding="UTF-8"?>
<svg width="50px" height="100px" viewBox="0 0 50 100" version="1.1" xmlns="http://www.w3.org/2000/svg" xmlns:xlink="http://www.w3.org/1999/xlink">
    <!-- Generator: Sketch 50.2 (55047) - http://www.bohemiancoding.com/sketch -->
    <title>首页</title>
    <desc>Created with Sketch.</desc>
    <defs>
        <linearGradient x1="50%" y1="100%" x2="50%" y2="3.854593%" id="linearGradient-1">
            <stop stop-color="#FF4F55" offset="0%"></stop>
            <stop stop-color="#F97872" offset="100%"></stop>
        </linearGradient>
    </defs>
    <g id="Page-1" stroke="none" stroke-width="1" fill="none" fill-rule="evenodd">
        <g id="我的" transform="translate(-50.000000, -1191.000000)">
            <g id="底部" transform="translate(0.000000, 1178.000000)">
                <g id="首页" transform="translate(0.000000, 13.000000)">
                    <g id="Group-2" transform="translate(50.000000, 0.000000)">
                        <g id="首页">
                            <g>
                                <rect id="Rectangle-4" x="0" y="0" width="50" height="100"></rect>
                                <g id="hui首页" stroke="#B2B2B2">
                                    <g>
                                        <path d="M47.128974,26.0449652 C47.0724628,25.9856652 47.0090382,25.9191108 46.9390028,25.8456196 L47.3124261,25.8456196 C47.2414131,25.8456196 47.178039,25.8723505 47.1386831,25.9122233 C47.0996916,25.951727 47.0929209,25.9902663 47.1178329,26.0293885 Z M46.9390028,25.8456196 C43.7362652,22.484844 26.7087207,4.61729292 24.8015789,2.61576098 L2.66417084,25.8456196 L4.71202726,25.8456196 C6.64502389,25.8456196 8.21202726,27.412623 8.21202726,29.3456196 L8.21202726,43.3046398 C8.21202726,45.4193473 9.84509446,47.1031746 11.8206886,47.1031746 L37.782499,47.1031746 C39.7580931,47.1031746 41.3911603,45.4193473 41.3911603,43.3046398 L41.3911603,29.3456196 C41.3911603,27.412623 42.9581637,25.8456196 44.8911603,25.8456196 L46.9390028,25.8456196 Z" id="Combined-Shape" stroke-width="5"></path>
                                        <polyline id="Rectangle-14-Copy" stroke-width="4" stroke-linejoin="round" points="18.3673469 48.7116002 18.3673469 33.6734694 31.2346935 33.6734694 31.2346935 48.7116002"></polyline>
                                    </g>
                                </g>
                                <g id="h首页" transform="translate(0.000000, 50.000000)">
                                    <g>
                                        <path d="M40.2152266,15.166213 C41.843472,16.87481 44.7538592,19.9288208 48.9463882,24.3282453 C49.8330923,25.2587071 49.8203583,26.7541538 48.9179459,27.6684191 C48.4895611,28.1024306 47.913004,28.3456196 47.3124261,28.3456196 L44.8911603,28.3456196 C44.3388756,28.3456196 43.8911603,28.7933348 43.8911603,29.3456196 L43.8911603,43.3046398 C43.8911603,46.7832245 41.1562195,49.6031746 37.782499,49.6031746 L11.8206886,49.6031746 C8.44696808,49.6031746 5.71202726,46.7832245 5.71202726,43.3046398 L5.71202726,29.3456196 C5.71202726,28.7933348 5.26431201,28.3456196 4.71202726,28.3456196 L2.29074798,28.3456196 C1.02560281,28.3456196 0,27.2881383 0,25.983669 C0,25.3644236 0.235857919,24.7699455 0.656785839,24.3282453 L23.1676249,0.706527413 C24.054329,-0.223934351 25.5046945,-0.237064201 26.4071069,0.677201071 C26.4166707,0.686890504 32.2976122,6.8578752 35.2286437,9.93354909 L40.2152266,15.166213 Z" id="Combined-Shape" fill="url(#linearGradient-1)"></path>
                                        <polyline id="Rectangle-14" stroke="#FFFFFF" stroke-width="4" stroke-linejoin="round" points="18.3673469 49.7844647 18.3673469 33.6734694 31.2346935 33.6734694 31.2346935 49.7844647"></polyline>
                                    </g>
                                </g>
                            </g>
                        </g>
                    </g>
                </g>
            </g>
        </g>
    </g>
</svg>