<?xml version="1.0" encoding="UTF-8"?>
<svg width="30px" height="30px" viewBox="0 0 30 30" version="1.1" xmlns="http://www.w3.org/2000/svg" xmlns:xlink="http://www.w3.org/1999/xlink">
    <!-- Generator: Sketch 50.2 (55047) - http://www.bohemiancoding.com/sketch -->
    <title>icon_Collection</title>
    <desc>Created with Sketch.</desc>
    <defs>
        <linearGradient x1="13.1015569%" y1="-5.71073445%" x2="50%" y2="50%" id="linearGradient-1">
            <stop stop-color="#5197E8" offset="0%"></stop>
            <stop stop-color="#9950F3" offset="100%"></stop>
        </linearGradient>
    </defs>
    <g id="Page-1" stroke="none" stroke-width="1" fill="none" fill-rule="evenodd">
        <g id="我的-copy-2" transform="translate(-30.000000, -604.000000)" fill="url(#linearGradient-1)" fill-rule="nonzero">
            <g id="list" transform="translate(0.000000, 570.000000)">
                <g id="Collection" transform="translate(30.000000, 0.000000)">
                    <g id="icon_Collection" transform="translate(0.000000, 34.000000)">
                        <path d="M22.8864441,30 C22.8331324,30 22.7798207,29.9965294 22.723177,29.9930588 C22.2800237,29.9652938 21.8801862,29.8264692 21.6502796,29.7015271 L14.9996479,26.2656178 L8.30236862,29.7049977 C7.78924373,29.9757057 6.46644777,30.2533549 5.60013303,29.4377603 C4.86709748,28.8477557 4.49724772,27.8551596 4.65718275,26.8868579 L4.66051473,26.859093 L6.0332904,19.4527996 L0.775426326,14.3509949 L0.765430386,14.3405831 C0.0790425543,13.6395187 -0.174187908,12.5705692 0.122358291,11.6161499 C0.412240531,10.6686719 1.20191974,9.96066636 2.13820605,9.80795928 L9.45523362,8.40930125 L12.7305697,1.47848218 C13.1637271,0.565710319 14.0333738,0 14.9996479,0 C15.9559261,0 16.8455647,0.579592781 17.2653942,1.4819528 L20.5407303,8.40583063 L27.8577579,9.75937066 C28.8073721,9.91207774 29.5803914,10.6027302 29.8769376,11.5675613 C30.1734838,12.5219806 29.9235853,13.5909301 29.2405295,14.2885238 L29.2238696,14.3058769 L23.9693375,19.4562702 L25.3021294,26.8868579 C25.4620644,27.851689 25.0922147,28.8408144 24.3591791,29.4377603 C23.9726695,29.8021749 23.4595446,30 22.8864441,30 Z" id="Shape"></path>
                    </g>
                </g>
            </g>
        </g>
    </g>
</svg>