<?xml version="1.0" encoding="UTF-8"?>
<svg width="28px" height="28px" viewBox="0 0 28 28" version="1.1" xmlns="http://www.w3.org/2000/svg" xmlns:xlink="http://www.w3.org/1999/xlink">
    <!-- Generator: Sketch 50.2 (55047) - http://www.bohemiancoding.com/sketch -->
    <title>关闭</title>
    <desc>Created with Sketch.</desc>
    <defs></defs>
    <g id="Page-1" stroke="none" stroke-width="1" fill="none" fill-rule="evenodd">
        <g id="登录1" transform="translate(-672.000000, -642.000000)">
            <rect id="Rectangle-6" fill="#F7F8FF" x="0" y="0" width="750" height="1334"></rect>
            <g id="输入手机号" transform="translate(50.000000, 607.000000)" fill="#555555">
                <g id="关闭" transform="translate(622.000000, 35.000000)">
                    <g id="Shape">
                        <path d="M13.999972,28 C6.26806746,28 0,21.7318765 0,13.999916 C0,6.26801146 6.26806746,0 13.999972,0 C21.7319325,0 28,6.26801146 28,13.999916 C28,21.7318765 21.7319325,28 13.999972,28 Z M13.999972,1.75005251 C7.23456954,1.75005251 1.74999651,7.23456954 1.74999651,13.999972 C1.74999651,20.7654305 7.23451354,26.2499475 13.999972,26.2499475 C20.7654865,26.2499475 26.2500035,20.7654305 26.2500035,13.999972 C26.2500035,7.23451354 20.7654305,1.75005251 13.999972,1.75005251 Z M15.2423295,14.0049 L18.9496901,17.7122046 C19.2914014,18.0539719 19.2914014,18.6079228 18.9496901,18.9496901 C18.6079788,19.2914574 18.0539719,19.2914574 17.7122606,18.9496901 L14.004844,15.2422735 L10.2722274,18.97489 C9.92777212,19.3191774 9.36945326,19.3191774 9.02505394,18.97489 C8.68065461,18.6304907 8.68065461,18.0721718 9.02505394,17.7277725 L12.7577265,13.9951 L9.05030988,10.2876834 C8.70854256,9.9459721 8.70854256,9.39196521 9.05030988,9.05030988 C9.39202121,8.70848656 9.9459721,8.70848656 10.2877394,9.05030988 L13.995212,12.7577265 L17.7553805,8.99755799 C18.0997238,8.65310267 18.6581547,8.65310267 19.002554,8.99755799 C19.3468973,9.34190132 19.3468973,9.90033218 19.002554,10.2446195 L15.2423295,14.0049 Z" fill-rule="nonzero"></path>
                    </g>
                </g>
                <g id="关闭" transform="translate(622.000000, 35.000000)" fill-rule="nonzero">
                    <g id="Shape">
                        <path d="M13.999972,28 C6.26806746,28 0,21.7318765 0,13.999916 C0,6.26801146 6.26806746,0 13.999972,0 C21.7319325,0 28,6.26801146 28,13.999916 C28,21.7318765 21.7319325,28 13.999972,28 Z M13.999972,1.75005251 C7.23456954,1.75005251 1.74999651,7.23456954 1.74999651,13.999972 C1.74999651,20.7654305 7.23451354,26.2499475 13.999972,26.2499475 C20.7654865,26.2499475 26.2500035,20.7654305 26.2500035,13.999972 C26.2500035,7.23451354 20.7654305,1.75005251 13.999972,1.75005251 Z M15.2423295,14.0049 L18.9496901,17.7122046 C19.2914014,18.0539719 19.2914014,18.6079228 18.9496901,18.9496901 C18.6079788,19.2914574 18.0539719,19.2914574 17.7122606,18.9496901 L14.004844,15.2422735 L10.2722274,18.97489 C9.92777212,19.3191774 9.36945326,19.3191774 9.02505394,18.97489 C8.68065461,18.6304907 8.68065461,18.0721718 9.02505394,17.7277725 L12.7577265,13.9951 L9.05030988,10.2876834 C8.70854256,9.9459721 8.70854256,9.39196521 9.05030988,9.05030988 C9.39202121,8.70848656 9.9459721,8.70848656 10.2877394,9.05030988 L13.995212,12.7577265 L17.7553805,8.99755799 C18.0997238,8.65310267 18.6581547,8.65310267 19.002554,8.99755799 C19.3468973,9.34190132 19.3468973,9.90033218 19.002554,10.2446195 L15.2423295,14.0049 Z"></path>
                    </g>
                </g>
            </g>
        </g>
    </g>
</svg>