<?xml version="1.0" encoding="UTF-8"?>
<svg width="27px" height="27px" viewBox="0 0 27 27" version="1.1" xmlns="http://www.w3.org/2000/svg" xmlns:xlink="http://www.w3.org/1999/xlink">
    <!-- Generator: Sketch 50.2 (55047) - http://www.bohemiancoding.com/sketch -->
    <title>icon_delete</title>
    <desc>Created with Sketch.</desc>
    <defs></defs>
    <g id="Page-1" stroke="none" stroke-width="1" fill="none" fill-rule="evenodd">
        <g id="首页-搜索" transform="translate(-692.000000, -377.000000)">
            <g id="历史搜索" transform="translate(0.000000, 340.000000)">
                <g id="Group">
                    <g id="icon_deleter" transform="translate(690.000000, 35.000000)">
                        <g>
                            <rect id="Rectangle-7" x="0" y="0" width="30" height="30"></rect>
                            <g id="删除" transform="translate(2.250000, 2.250000)" fill="#666666" fill-rule="nonzero">
                                <path d="M20.6853239,9.44091401 L20.6853239,23.3964305 C20.6703409,23.9076499 20.2550786,24.3185963 19.7384901,24.3334235 L6.51150987,24.3334235 C5.99492142,24.3185963 5.57965907,23.9076499 5.56467614,23.3964305 L5.56467614,9.41252028 C5.56467614,8.89503335 5.14076424,8.47552731 4.61784241,8.47552731 C4.09492058,8.47552731 3.67100868,8.89503335 3.67100868,9.41252028 L3.67100868,23.4106274 C3.67100868,24.9787696 4.9555902,26.25 6.5402018,26.25 L19.7671821,26.25 C21.3517937,26.25 22.6363752,24.9787696 22.6363752,23.4106274 L22.6363752,9.44091401 C22.6363752,8.90774566 22.1996175,8.47552731 21.6608495,8.47552731 C21.1220816,8.47552731 20.6853239,8.90774566 20.6853239,9.44091401 Z M25.4194925,4.75594916 L20.6853239,4.75594916 L20.6853239,2.83937263 C20.6853239,1.27123043 19.4007423,0 17.8161307,0 L8.40517732,0 C6.82056572,-1.97021055e-16 5.53598421,1.27123043 5.53598421,2.83937263 L5.53598421,4.75594916 L0.830507496,4.75594916 C0.356190164,4.81405746 0,5.212873 0,5.6858437 C0,6.1588144 0.356190164,6.55762993 0.830507496,6.61573824 L25.4194925,6.61573824 C25.8938098,6.55762993 26.25,6.1588144 26.25,5.6858437 C26.25,5.212873 25.8938098,4.81405746 25.4194925,4.75594916 Z M18.8633862,4.75594916 L7.38661377,4.75594916 L7.38661377,2.83937263 C7.4015967,2.32815327 7.81685905,1.91720688 8.3334475,1.90237966 L17.8161307,1.90237966 C18.0872179,1.85873797 18.3636498,1.93945099 18.5673793,2.12173039 C18.7711088,2.30400979 18.8800285,2.56807581 18.8633862,2.83937263 L18.8633862,4.75594916 Z" id="Shape"></path>
                                <path d="M11.625,19.3236842 L11.625,9.17631579 C11.625,8.66472571 11.205267,8.25 10.6875,8.25 C10.169733,8.25 9.75,8.66472571 9.75,9.17631579 L9.75,19.3236842 C9.75,19.8352743 10.169733,20.25 10.6875,20.25 C11.205267,20.25 11.625,19.8352743 11.625,19.3236842 Z M17.25,19.3236842 L17.25,9.17631579 C17.25,8.66472573 16.8302669,8.25000006 16.3125,8.25000006 C15.7947331,8.25000006 15.375,8.66472573 15.375,9.17631579 L15.375,19.3236842 C15.375,19.8352743 15.794733,20.25 16.3125,20.25 C16.830267,20.25 17.25,19.8352743 17.25,19.3236842 Z" id="Shape"></path>
                            </g>
                        </g>
                    </g>
                </g>
            </g>
        </g>
    </g>
</svg>