<?xml version="1.0" encoding="UTF-8"?>
<svg width="24px" height="24px" viewBox="0 0 24 24" version="1.1" xmlns="http://www.w3.org/2000/svg" xmlns:xlink="http://www.w3.org/1999/xlink">
    <!-- Generator: Sketch 50.2 (55047) - http://www.bohemiancoding.com/sketch -->
    <title>搜索</title>
    <desc>Created with Sketch.</desc>
    <defs></defs>
    <g id="Page-1" stroke="none" stroke-width="1" fill="none" fill-rule="evenodd">
        <g id="首页" transform="translate(-144.000000, -71.000000)" fill="#EBE8FF">
            <g id="导航栏内容" transform="translate(40.000000, 56.000000)">
                <g id="搜索" transform="translate(80.000000, 0.000000)">
                    <g id="Group-24" transform="translate(24.000000, 15.000000)">
                        <g id="搜索">
                            <g id="Shape">
                                <path d="M23.7106334,22.3258786 L19.3056037,17.9329073 C19.9601918,17.1246006 20.4914516,16.2332268 20.896221,15.2651757 C21.4622657,13.9105431 21.6867863,12.4696486 21.6867863,10.9872204 C21.6867863,9.50479233 21.4306431,8.06389776 20.8645984,6.70926518 C20.3175273,5.39936102 19.5649091,4.22364218 18.5656346,3.21725239 C17.5663602,2.20766773 16.4026481,1.41533546 15.1092833,0.862619807 C13.7684846,0.290734833 12.3423049,0 10.8750158,0 C9.40772663,0 7.9815469,0.290734833 6.64074821,0.862619807 C5.34422118,1.41533546 4.18050912,2.20766773 3.18439688,3.21725239 C2.18512239,4.22683706 1.40088164,5.4025559 0.853810484,6.70926518 C0.287765765,8.06389776 0,9.50479233 0,10.9872204 C0,12.4696486 0.287765765,13.9105431 0.853810484,15.2651757 C1.40088164,16.5750799 2.18512239,17.7507987 3.18439688,18.7571885 C4.18367137,19.7667732 5.34738343,20.5591054 6.64074821,21.1118211 C7.9815469,21.6837061 9.40772663,21.9105431 10.8750158,21.9105431 C12.3423049,21.9105431 13.7684846,21.6837061 15.1092833,21.1118211 C16.1465049,20.6677316 17.1015078,20.0702875 17.952156,19.3322684 L22.3508611,23.7188498 C22.5405968,23.9073482 22.7872531,24 23.0307473,24 C23.2805659,24 23.5303845,23.9041534 23.7201202,23.7092652 C24.0964292,23.3258786 24.0932669,22.7060703 23.7106334,22.3258786 Z M10.8750158,19.9552716 C8.48750869,19.9552716 6.24230334,19.0798722 4.55365593,17.3738019 C2.86500853,15.6677316 1.9353038,13.3993611 1.9353038,10.9872205 C1.9353038,8.57507989 2.86500856,6.30670932 4.55365593,4.60063903 C6.24230334,2.89456873 8.48750866,1.95527164 10.8750158,1.95527164 C13.2625228,1.95527164 15.5077282,2.89456876 17.1963756,4.60063903 C18.885023,6.30670929 19.7514825,8.57507989 19.7514825,10.9872205 C19.7514825,13.3993611 18.885023,15.6677316 17.1963756,17.3738019 C15.5077282,19.0798722 13.2625229,19.9552716 10.8750158,19.9552716 Z" fill-rule="nonzero"></path>
                            </g>
                        </g>
                    </g>
                </g>
            </g>
        </g>
    </g>
</svg>