<?xml version="1.0" encoding="UTF-8"?>
<svg width="60px" height="27px" viewBox="0 0 60 27" version="1.1" xmlns="http://www.w3.org/2000/svg" xmlns:xlink="http://www.w3.org/1999/xlink">
    <!-- Generator: Sketch 50.2 (55047) - http://www.bohemiancoding.com/sketch -->
    <title>置顶</title>
    <desc>Created with Sketch.</desc>
    <defs></defs>
    <g id="Page-1" stroke="none" stroke-width="1" fill="none" fill-rule="evenodd">
        <g id="首页" transform="translate(0.000000, -452.000000)" fill-rule="nonzero">
            <g id="内容1" transform="translate(0.000000, 452.000000)">
                <g id="文案">
                    <g id="Group-29">
                        <g id="置顶">
                            <path d="M57.8571429,26.1818182 L2.14285714,26.1818182 C0.964285714,26.1818182 0,25.2 0,24 L0,0 L57.8571429,0 C59.0357143,0 60,0.981818182 60,2.18181818 L60,24 C60,25.2 59.0357143,26.1818182 57.8571429,26.1818182 Z" id="Shape" fill="#E00000"></path>
                            <polygon id="Shape" fill="#FFFFFF" points="4.36363636 4.36363636 21.8181818 4.36363636 21.8181818 21.8181818 4.36363636 21.8181818"></polygon>
                            <path d="M13.5404959,7.96735943 C13.4280992,7.85464746 13.2760331,7.79497641 13.1305785,7.79497641 L13.0181818,7.79497641 C13.0115702,7.79497641 13.0049587,7.79497641 12.9983471,7.80160653 L12.9917355,7.80160653 C12.985124,7.80160653 12.9785124,7.80160653 12.9719008,7.80823664 L12.9652893,7.80823664 L12.9454545,7.81486676 L12.938843,7.81486676 L12.9190083,7.82149688 L12.9123967,7.82149688 C12.9057851,7.82149688 12.8991736,7.82812699 12.892562,7.82812699 L12.8859504,7.82812699 C12.8793388,7.83475711 12.8727273,7.83475711 12.8595041,7.84138722 C12.8528926,7.84801734 12.846281,7.84801734 12.8330579,7.85464746 C12.7867769,7.88116792 12.7471074,7.9143185 12.707438,7.9540992 L7.71570248,13.0924391 C7.49090909,13.3244932 7.49090909,13.7024098 7.71570248,13.9344639 C7.94049587,14.1665179 8.3107438,14.1665179 8.53553719,13.9344639 L12.5487603,9.82379192 L12.5487603,19.0396532 C12.5487603,19.371159 12.8066116,19.6363636 13.1305785,19.6363636 C13.4479339,19.6363636 13.7057851,19.371159 13.7057851,19.0396532 L13.7057851,9.82379192 L17.7190083,13.9344639 C17.9438017,14.1665179 18.3140496,14.1665179 18.538843,13.9344639 C18.7636364,13.7024098 18.7636364,13.3244932 18.538843,13.0924391 L13.5404959,7.96735943 Z M19.0545455,5.45454545 L7.12727273,5.45454545 C6.80991736,5.45454545 6.54545455,5.7197501 6.54545455,6.0512559 C6.54545455,6.3827617 6.80330579,6.64796634 7.12727273,6.64796634 L19.0545455,6.64796634 C19.3719008,6.64796634 19.6363636,6.3827617 19.6363636,6.0512559 C19.6363636,5.7197501 19.3719008,5.45454545 19.0545455,5.45454545 Z" id="Shape" fill="#E00000"></path>
                            <path d="M25.3987056,11.6409992 L25.3987056,10.596446 L31.6550035,10.596446 L31.6550035,9.79963945 L33.314428,9.79963945 L33.314428,10.596446 L39.5707259,10.596446 L39.5707259,11.6409992 L33.314428,11.6409992 L33.314428,12.4378058 L38.0384347,12.4378058 L38.0384347,19.1269637 L39.9387434,19.1269637 L39.9387434,20.1715169 L25.0909091,20.1715169 L25.0909091,19.1269637 L26.9912178,19.1269637 L26.9912178,12.4378058 L31.6550035,12.4378058 L31.6550035,11.6409992 L25.3987056,11.6409992 Z M26.0745196,9.67911409 L26.0745196,6.54545455 L38.8949119,6.54545455 L38.8949119,9.67911409 L26.0745196,9.67911409 Z M27.6670318,7.52974504 L27.6670318,8.69482359 L29.8751369,8.69482359 L29.8751369,7.52974504 L27.6670318,7.52974504 Z M28.5904212,13.4220963 L28.5904212,14.2189029 L36.4392313,14.2189029 L36.4392313,13.4220963 L28.5904212,13.4220963 Z M28.5904212,15.0759722 L28.5904212,15.8727788 L36.4392313,15.8727788 L36.4392313,15.0759722 L28.5904212,15.0759722 Z M28.5904212,16.7365439 L28.5904212,17.5333505 L36.4392313,17.5333505 L36.4392313,16.7365439 L28.5904212,16.7365439 Z M28.5904212,18.4573783 L28.5904212,19.1336595 L36.4392313,19.1336595 L36.4392313,18.4573783 L28.5904212,18.4573783 Z M31.4141193,7.52974504 L31.4141193,8.69482359 L33.6222244,8.69482359 L33.6222244,7.52974504 L31.4141193,7.52974504 Z M37.3626207,7.52974504 L35.0942945,7.52974504 L35.0942945,8.69482359 L37.3626207,8.69482359 L37.3626207,7.52974504 Z M40.7952206,8.447077 L40.7952206,6.9137265 L46.0076869,6.9137265 L46.0076869,8.447077 L44.4753958,8.447077 L44.4753958,18.3904198 C44.5155432,19.5755859 43.9267151,20.1715169 42.6955292,20.1715169 C42.2873643,20.211692 41.7989047,20.2317796 41.2234591,20.2317796 C41.1431644,19.5755859 41.0361047,19.066701 40.9156627,18.698429 C41.2033854,18.7386042 41.6115503,18.7586917 42.1401573,18.7586917 C42.6687643,18.7988669 42.9163397,18.5310327 42.8761924,17.9618851 L42.8761924,8.447077 L40.7952206,8.447077 Z M54.5992233,20.5397888 C53.9033357,19.9639454 52.6186199,18.9863508 50.7316937,17.5936132 C50.1161008,18.7386042 48.5838096,19.7831574 46.128129,20.7272727 C45.8805536,20.2384754 45.5995221,19.7429822 45.2716519,19.2541849 C47.2321816,18.6381664 48.5035149,17.9886686 49.0722692,17.2922998 C49.6878622,16.6361061 49.9956587,15.5312902 49.9956587,13.9778522 L50.0558797,12.1364924 L51.5881709,12.1364924 L51.5279498,13.9175895 C51.5279498,14.7746588 51.4476551,15.5312902 51.2803744,16.1874839 C51.6885393,16.4754056 52.3442796,16.9441154 53.2409041,17.600309 C54.3851041,18.4573783 55.1813602,19.0131342 55.6363636,19.2608808 L54.5992233,20.5397888 Z M46.4426167,8.07880505 L46.4426167,6.66597991 L55.5226128,6.66597991 L55.5226128,8.07880505 L51.47442,8.07880505 L51.1064025,9.79963945 L54.9070198,9.79963945 L54.9070198,17.1048159 L53.3747287,17.1048159 L53.3747287,11.2124646 L48.2224833,11.2124646 L48.2224833,17.2253412 L46.6901922,17.2253412 L46.6901922,9.79963945 L49.3867569,9.79963945 L49.7547745,8.07880505 L46.4426167,8.07880505 Z" id="Shape" fill="#FFFFFF"></path>
                        </g>
                    </g>
                </g>
            </g>
        </g>
    </g>
</svg>