<?xml version="1.0" encoding="UTF-8"?>
<svg width="87px" height="71px" viewBox="0 0 87 71" version="1.1" xmlns="http://www.w3.org/2000/svg" xmlns:xlink="http://www.w3.org/1999/xlink">
    <!-- Generator: Sketch 50.2 (55047) - http://www.bohemiancoding.com/sketch -->
    <title>icon_camera</title>
    <desc>Created with Sketch.</desc>
    <defs></defs>
    <g id="Page-1" stroke="none" stroke-width="1" fill="none" fill-rule="evenodd">
        <g id="发布" transform="translate(-332.000000, -179.000000)" fill="#373737">
            <g id="添加照片" transform="translate(0.000000, 128.000000)">
                <g id="icon_camera" transform="translate(332.000000, 51.000000)">
                    <g id="相机">
                        <g>
                            <g id="Shape">
                                <path d="M73,31 C71.8,31 71,31.8 71,33 C71,34.2 71.8,35 73,35 C74.2,35 75,34.2 75,33 C75,31.8000001 74.2,31 73,31 Z M32.9166666,12 L52.0833334,12 C53.2333334,12 54,11.2 54,10 C54,8.80000006 53.2333334,8.00000009 52.0833334,8.00000009 L32.9166666,8 C31.7666666,8 31,8.79999996 31,9.99999995 C31,11.2 31.7666666,12 32.9166666,12 Z M42.5,28 C36.175,28 31,33.175 31,39.5 C31,45.825 36.175,51 42.5,51 C48.825,51 54,45.825 54,39.5 C54,33.175 48.825,28 42.5,28 Z M42.5,47 C38.375,47 35,43.625 35,39.5 C35,35.375 38.375,32 42.5,32 C46.625,32 50,35.375 50,39.5 C50,43.625 46.625,47 42.5,47 Z M79.0909091,7.88888887 L71.1818182,7.88888887 C65.25,7.88888887 65.25,0 57.3409092,0 C49.4318183,0 43.5000001,0 43.5000001,0 C43.5000001,0 37.5681819,0 29.659091,0 C21.7500001,0 21.7500001,7.88888887 15.818182,7.88888887 L7.90909088,7.88888887 C3.55909091,7.88888887 0,11.4388889 0,15.7777777 L0,63.1111111 C0,67.45 3.55909091,71 7.90909088,71 L79.0909091,71 C83.4409091,71 87,67.45 87,63.1111111 L87,15.7777778 C87,11.4388889 83.4409091,7.88888887 79.0909091,7.88888887 Z M83,47.3124999 L65.8175,47.3124999 C65.4225,48.6906249 64.6325,50.06875 64.04,51.25 L83,51.25 L83,63.0625 C83,65.228125 81.2225,67 79.05,67 L7.95000003,66.9999999 C5.7775,66.9999999 4,65.2281249 4,63.0624999 L4,51.2499999 L22.96,51.2499999 C22.17,50.0687499 21.5775,48.6906249 21.1825,47.3124999 L4,47.3124999 L4,15.8125 C4,13.646875 5.7775,11.875 7.95000003,11.875 L15.85,11.875 C23.75,11.875 23.75,4 29.6749999,4 C33.625,4 43.4999999,4 43.4999999,4 C43.4999999,4 53.3749999,4 57.3249999,4 C63.2499999,4 63.2499999,11.875 71.1499998,11.875 L79.0499998,11.875 C81.2224998,11.875 82.9999998,13.646875 82.9999998,15.8125 L83,47.3124999 Z M43,20 C32,20 23,29 23,40 C23,51 32,60 43,60 C54,60 63,51 63,40 C63,29 54,20 43,20 Z M43,55 C34.75,55 28,48.25 28,40 C28,31.75 34.75,25 43,25 C51.25,25 58,31.75 58,40 C58,48.25 51.25,55 43,55 Z M73,16 C69.6,16 67,18.6 67,22 C67,25.4 69.6,28 73,28 C76.4,28 79,25.4 79,22 C79,18.6 76.4,16 73,16 Z M73,24 C71.8,24 71,23.2 71,22 C71,20.8 71.8,20 73,20 C74.2,20 75,20.8 75,22 C75,23.2 74.2,24 73,24 Z" fill-rule="nonzero"></path>
                            </g>
                        </g>
                    </g>
                </g>
            </g>
        </g>
    </g>
</svg>