<?xml version="1.0" encoding="UTF-8"?>
<svg width="30px" height="30px" viewBox="0 0 30 30" version="1.1" xmlns="http://www.w3.org/2000/svg" xmlns:xlink="http://www.w3.org/1999/xlink">
    <!-- Generator: Sketch 50.2 (55047) - http://www.bohemiancoding.com/sketch -->
    <title>icon_edit</title>
    <desc>Created with Sketch.</desc>
    <defs></defs>
    <g id="Page-1" stroke="none" stroke-width="1" fill="none" fill-rule="evenodd">
        <g id="我的-copy-2" transform="translate(-413.000000, -321.000000)" fill="#B8C7CE" fill-rule="nonzero">
            <g id="个人信息" transform="translate(20.000000, 270.000000)">
                <g id="Group-5" transform="translate(163.000000, 45.000000)">
                    <g id="icon_edit" transform="translate(230.000000, 6.000000)">
                        <path d="M0.857142857,26.1538462 L0.977835381,24.7444449 C0.982477391,24.6857199 1.10316995,23.2763186 1.27492475,21.799803 C1.3770492,20.9189273 1.47453165,20.2016427 1.57201409,19.6605333 C1.75769492,18.6034824 1.92016567,18.1840177 2.26831725,17.8652246 L21.3238137,0.646200558 C21.7787317,0.235125186 22.3775524,0.00861427331 23.0135093,0.00022500121 C23.6633923,-0.00816430235 24.271497,0.218346611 24.7310571,0.629421982 L28.3034478,4.76114881 C28.7583659,5.17222418 29.0090351,5.72591753 28.999751,6.31316805 C28.9904669,6.88783464 28.7397978,7.43313868 28.2848798,7.84001938 L10.2293834,25.0590434 C9.80231741,25.4449509 9.24991693,25.6379046 5.75911709,25.8895834 C4.0833475,26.0112282 2.49113426,26.0825372 2.42150394,26.0867318 L0.857142857,26.1538462 Z M3.86053045,23.5154135 C5.84731548,23.402158 7.80160633,23.2427615 8.48862547,23.1085328 L26.0938458,6.29219481 L23.0320774,2.62187908 L4.41293097,19.450801 C4.25510227,20.0464408 4.03228526,21.7662459 3.86053045,23.5154135 Z" id="Shape"></path>
                        <path d="M17.5844762,6.996943 L19.4094762,5.38461538 L23.1766397,9.77317447 L21.3516397,11.3855021 L17.5844762,6.996943 Z M28.7095238,30 L1.29047618,30 C0.576190464,30 0,29.4909413 0,28.8598769 C0,28.2288124 0.576190464,27.7197538 1.29047618,27.7197538 L28.7095238,27.7197538 C29.4238095,27.7197538 30,28.2288124 30,28.8598769 C30,29.4867343 29.4238095,30 28.7095238,30 Z" id="Shape"></path>
                    </g>
                </g>
            </g>
        </g>
    </g>
</svg>