<?xml version="1.0" encoding="UTF-8"?>
<svg width="750px" height="380px" viewBox="0 0 750 380" version="1.1" xmlns="http://www.w3.org/2000/svg" xmlns:xlink="http://www.w3.org/1999/xlink">
    <!-- Generator: Sketch 50.2 (55047) - http://www.bohemiancoding.com/sketch -->
    <title>插画</title>
    <desc>Created with Sketch.</desc>
    <defs>
        <linearGradient x1="7.631995%" y1="66.3237994%" x2="10.3256385%" y2="31.8504388%" id="linearGradient-1">
            <stop stop-color="#FD8265" offset="0%"></stop>
            <stop stop-color="#FF4940" offset="100%"></stop>
        </linearGradient>
        <rect id="path-2" x="0" y="0" width="750" height="380"></rect>
        <filter x="-3.2%" y="-3.2%" width="106.4%" height="106.4%" filterUnits="objectBoundingBox" id="filter-4">
            <feGaussianBlur stdDeviation="1.14397321" in="SourceGraphic"></feGaussianBlur>
        </filter>
        <filter x="-4.6%" y="-4.6%" width="109.3%" height="109.3%" filterUnits="objectBoundingBox" id="filter-5">
            <feGaussianBlur stdDeviation="1.21930804" in="SourceGraphic"></feGaussianBlur>
        </filter>
        <filter x="0.0%" y="0.0%" width="100.0%" height="100.0%" filterUnits="objectBoundingBox" id="filter-6">
            <feGaussianBlur stdDeviation="0" in="SourceGraphic"></feGaussianBlur>
        </filter>
        <linearGradient x1="50%" y1="0%" x2="50%" y2="100%" id="linearGradient-7">
            <stop stop-color="#FFDDAD" stop-opacity="0" offset="0%"></stop>
            <stop stop-color="#FEB875" stop-opacity="0.492385643" offset="100%"></stop>
        </linearGradient>
        <linearGradient x1="46.3148781%" y1="100%" x2="46.3148773%" y2="0%" id="linearGradient-8">
            <stop stop-color="#FD8265" offset="0%"></stop>
            <stop stop-color="#FF382F" offset="100%"></stop>
        </linearGradient>
        <linearGradient x1="46.3148781%" y1="100%" x2="46.3148773%" y2="0%" id="linearGradient-9">
            <stop stop-color="#FF5128" offset="0%"></stop>
            <stop stop-color="#FF362D" offset="100%"></stop>
        </linearGradient>
        <ellipse id="path-10" cx="14.1732738" cy="12.1485971" rx="11.8078663" ry="10.5589232"></ellipse>
        <filter x="-635.2%" y="-710.3%" width="1370.3%" height="1520.6%" filterUnits="objectBoundingBox" id="filter-11">
            <feOffset dx="0" dy="0" in="SourceAlpha" result="shadowOffsetOuter1"></feOffset>
            <feGaussianBlur stdDeviation="50" in="shadowOffsetOuter1" result="shadowBlurOuter1"></feGaussianBlur>
            <feColorMatrix values="0 0 0 0 1   0 0 0 0 1   0 0 0 0 1  0 0 0 1 0" type="matrix" in="shadowBlurOuter1"></feColorMatrix>
        </filter>
        <ellipse id="path-12" cx="13.5819219" cy="12.1485971" rx="11.8078663" ry="10.5589232"></ellipse>
        <filter x="0.0%" y="0.0%" width="100.0%" height="100.0%" filterUnits="objectBoundingBox" id="filter-13">
            <feOffset dx="0" dy="0" in="SourceAlpha" result="shadowOffsetOuter1"></feOffset>
            <feColorMatrix values="0 0 0 0 1   0 0 0 0 1   0 0 0 0 1  0 0 0 0.615772192 0" type="matrix" in="shadowOffsetOuter1"></feColorMatrix>
        </filter>
        <ellipse id="path-14" cx="11.1894266" cy="11.3482753" rx="9.3219997" ry="9.86332551"></ellipse>
        <filter x="-804.5%" y="-760.4%" width="1709.1%" height="1620.8%" filterUnits="objectBoundingBox" id="filter-15">
            <feOffset dx="0" dy="0" in="SourceAlpha" result="shadowOffsetOuter1"></feOffset>
            <feGaussianBlur stdDeviation="50" in="shadowOffsetOuter1" result="shadowBlurOuter1"></feGaussianBlur>
            <feColorMatrix values="0 0 0 0 1   0 0 0 0 1   0 0 0 0 1  0 0 0 1 0" type="matrix" in="shadowBlurOuter1"></feColorMatrix>
        </filter>
        <ellipse id="path-16" cx="10.4828327" cy="11.0940947" rx="9.3219997" ry="9.86332551"></ellipse>
        <filter x="0.0%" y="0.0%" width="100.0%" height="100.0%" filterUnits="objectBoundingBox" id="filter-17">
            <feOffset dx="0" dy="0" in="SourceAlpha" result="shadowOffsetOuter1"></feOffset>
            <feColorMatrix values="0 0 0 0 1   0 0 0 0 1   0 0 0 0 1  0 0 0 0.615772192 0" type="matrix" in="shadowOffsetOuter1"></feColorMatrix>
        </filter>
        <ellipse id="path-18" cx="7.79271554" cy="6.85109743" rx="6.49217286" ry="5.95461442"></ellipse>
        <filter x="-1155.2%" y="-1259.5%" width="2410.5%" height="2619.1%" filterUnits="objectBoundingBox" id="filter-19">
            <feOffset dx="0" dy="0" in="SourceAlpha" result="shadowOffsetOuter1"></feOffset>
            <feGaussianBlur stdDeviation="50" in="shadowOffsetOuter1" result="shadowBlurOuter1"></feGaussianBlur>
            <feColorMatrix values="0 0 0 0 1   0 0 0 0 1   0 0 0 0 1  0 0 0 1 0" type="matrix" in="shadowBlurOuter1"></feColorMatrix>
        </filter>
        <ellipse id="path-20" cx="7.30061831" cy="6.69764538" rx="6.49217286" ry="5.95461442"></ellipse>
        <filter x="0.0%" y="0.0%" width="100.0%" height="100.0%" filterUnits="objectBoundingBox" id="filter-21">
            <feOffset dx="0" dy="0" in="SourceAlpha" result="shadowOffsetOuter1"></feOffset>
            <feColorMatrix values="0 0 0 0 1   0 0 0 0 1   0 0 0 0 1  0 0 0 0.615772192 0" type="matrix" in="shadowOffsetOuter1"></feColorMatrix>
        </filter>
        <path d="M1.14343629,2.53426783 C1.14343629,4.4449042 0.946776745,5.69546804 0.553457661,6.28595937 C-0.0365209662,7.17169635 0.117058107,9.16306271 1.92308087,9.16306271 C3.72910364,9.16306271 7.71236854,7.65346706 7.71236854,6.28595937 C7.71236854,5.37428757 7.71236854,4.6100014 7.71236854,3.99310085 L7.71236854,0.0476098733 L1.14343629,2.53426783 Z" id="path-22"></path>
        <filter x="-18.9%" y="-42.6%" width="137.7%" height="185.3%" filterUnits="objectBoundingBox" id="filter-24">
            <feGaussianBlur stdDeviation="0.881696429" in="SourceGraphic"></feGaussianBlur>
        </filter>
    </defs>
    <g id="Page-1" stroke="none" stroke-width="1" fill="none" fill-rule="evenodd">
        <g id="我的-copy-3">
            <g id="插画">
                <g>
                    <g id="背景">
                        <mask id="mask-3" fill="white">
                            <use xlink:href="#path-2"></use>
                        </mask>
                        <use id="Rectangle" fill="url(#linearGradient-1)" xlink:href="#path-2"></use>
                        <g id="Group-7" mask="url(#mask-3)">
                            <g transform="translate(72.000000, 18.000000)">
                                <circle id="Oval-3" fill="#FCDC9C" opacity="0.145145089" filter="url(#filter-4)" cx="53.5" cy="156.5" r="53.5"></circle>
                                <circle id="Oval-3" fill="#FCDC9C" opacity="0.296930804" filter="url(#filter-5)" cx="54.5" cy="157.5" r="39.5"></circle>
                                <circle id="Oval-3" fill="#FFD581" opacity="0.688002232" filter="url(#filter-6)" cx="53.5" cy="156.5" r="22.5"></circle>
                                <circle id="Oval-4" fill="#FEB875" cx="393" cy="36" r="2"></circle>
                                <path d="M477.927173,74.4796303 C479.41905,74.3994211 479.510302,72.0355359 479.510302,69.607932 C479.510302,67.1803281 477.948636,-9.4007743 477.927173,-10.634018 C477.905711,-11.8672617 475.931853,67.5481633 475.931853,69.9757672 C475.931853,72.4033711 476.435296,74.5598395 477.927173,74.4796303 Z" id="Oval-4" fill="url(#linearGradient-7)" transform="translate(477.721077, 31.916783) rotate(-315.000000) translate(-477.721077, -31.916783) "></path>
                                <path d="M567.927173,124.47963 C569.41905,124.399421 569.510302,122.035536 569.510302,119.607932 C569.510302,117.180328 567.948636,40.5992257 567.927173,39.365982 C567.905711,38.1327383 565.931853,117.548163 565.931853,119.975767 C565.931853,122.403371 566.435296,124.559839 567.927173,124.47963 Z" id="Oval-4" fill="url(#linearGradient-7)" transform="translate(567.721077, 81.916783) rotate(-315.000000) translate(-567.721077, -81.916783) "></path>
                            </g>
                        </g>
                        <path d="M0,171.190599 C41.2904334,188.88275 90.0251052,197.728825 146.204016,197.728825 C230.472381,197.728825 332.503893,136.939834 414.582951,129.746245 C496.662009,122.552656 697.585396,138.846874 750,155.567221 C749.991118,163.864812 749.991118,239.009071 750,381 L0,381 L0,171.190599 Z" id="Path-64" fill="url(#linearGradient-8)" mask="url(#mask-3)"></path>
                        <path d="M0,381 C126.729836,297.156517 226.51354,252.605104 299.351114,247.345761 C408.607475,239.456748 496.541587,271.158191 570.701721,271.158191 C620.14181,271.158191 679.907903,256.717386 750,227.835776 L750,381 L0,381 Z" id="Path-66" fill="url(#linearGradient-9)" mask="url(#mask-3)"></path>
                        <g id="Group-4" opacity="0.0844866071" mask="url(#mask-3)">
                            <g transform="translate(1.000000, 151.000000)"></g>
                        </g>
                    </g>
                    <g id="money" transform="translate(539.000000, 227.000000)">
                        <g id="1" transform="translate(117.965669, 17.883702) rotate(-90.000000) translate(-117.965669, -17.883702) translate(103.965669, 4.883702)">
                            <ellipse id="Oval-10" fill="#FCBD22" cx="13.6010929" cy="13.2472826" rx="13.6010929" ry="12.1875"></ellipse>
                            <ellipse id="Oval-10" fill="#FDF761" cx="13.6010929" cy="12.1875" rx="13.6010929" ry="12.1875"></ellipse>
                            <g id="Oval-10" opacity="0.288727679">
                                <use fill="black" fill-opacity="1" filter="url(#filter-11)" xlink:href="#path-10"></use>
                                <use fill="#FFFFFF" fill-rule="evenodd" xlink:href="#path-10"></use>
                            </g>
                            <g id="Oval-10">
                                <use fill="black" fill-opacity="1" filter="url(#filter-13)" xlink:href="#path-12"></use>
                                <use fill="#FFCC35" fill-rule="evenodd" xlink:href="#path-12"></use>
                            </g>
                            <text id="¥" font-family="Arial-Black, Arial Black" font-size="14" font-weight="700" line-spacing="14" fill="#FF8F2C">
                                <tspan x="8" y="19">¥</tspan>
                            </text>
                        </g>
                        <g id="1" transform="translate(12.453552, 17.302922) rotate(-90.000000) translate(-12.453552, -17.302922) translate(1.453552, 5.302922)">
                            <ellipse id="Oval-10" fill="#FCBD22" cx="10.7377049" cy="12.3745819" rx="10.7377049" ry="11.3846154"></ellipse>
                            <ellipse id="Oval-10" fill="#FDF761" cx="10.7377049" cy="11.3846154" rx="10.7377049" ry="11.3846154"></ellipse>
                            <g id="Oval-10" opacity="0.288727679">
                                <use fill="black" fill-opacity="1" filter="url(#filter-15)" xlink:href="#path-14"></use>
                                <use fill="#FFFFFF" fill-rule="evenodd" xlink:href="#path-14"></use>
                            </g>
                            <g id="Oval-10">
                                <use fill="black" fill-opacity="1" filter="url(#filter-17)" xlink:href="#path-16"></use>
                                <use fill="#FFCC35" fill-rule="evenodd" xlink:href="#path-16"></use>
                            </g>
                            <text id="¥" font-family="Arial-Black, Arial Black" font-size="14" font-weight="700" line-spacing="14" fill="#FF8F2C">
                                <tspan x="6" y="18">¥</tspan>
                            </text>
                        </g>
                        <g id="1" transform="translate(39.623901, 8.190306) rotate(-90.000000) translate(-39.623901, -8.190306) translate(32.123901, 0.690306)">
                            <ellipse id="Oval-10" fill="#FCBD22" cx="7.47812043" cy="7.47069171" rx="7.47812043" ry="6.87303637"></ellipse>
                            <ellipse id="Oval-10" fill="#FDF761" cx="7.47812043" cy="6.87303637" rx="7.47812043" ry="6.87303637"></ellipse>
                            <g id="Oval-10" opacity="0.288727679">
                                <use fill="black" fill-opacity="1" filter="url(#filter-19)" xlink:href="#path-18"></use>
                                <use fill="#FFFFFF" fill-rule="evenodd" xlink:href="#path-18"></use>
                            </g>
                            <g id="Oval-10">
                                <use fill="black" fill-opacity="1" filter="url(#filter-21)" xlink:href="#path-20"></use>
                                <use fill="#FFCC35" fill-rule="evenodd" xlink:href="#path-20"></use>
                            </g>
                            <text id="¥" font-family="Arial-Black, Arial Black" font-size="10" font-weight="700" line-spacing="10" fill="#FF8F2C">
                                <tspan x="4" y="13">¥</tspan>
                            </text>
                        </g>
                    </g>
                    <g id="man" transform="translate(582.000000, 140.000000)">
                        <path d="M1.9397017,11.6225241 L2.63822292,11.3636666 C3.13237795,11.1805431 3.68360682,11.4145159 3.89516246,11.8971831 L7.8015088,20.8095683 C8.0819535,21.4494069 7.79060717,22.1954439 7.15076857,22.4758886 C7.10598864,22.4955159 7.06010841,22.5125304 7.01335884,22.5268465 L7.01335884,22.5268465 C6.23099669,22.7664285 5.39059277,22.401353 5.03173791,21.6660209 L0.803165756,13.0012235 C0.628001985,12.6422941 0.76985143,12.209139 1.12339875,12.0233517 L1.58662976,11.7799262 C1.70081413,11.719923 1.81874955,11.6673465 1.9397017,11.6225241 Z" id="Path-76" fill="#333333"></path>
                        <path d="M15.0987188,29.3389808 L13.7047796,30.8645376 L7.3007895,23.1885822 C7.19585326,23.0628034 7.12342152,22.9131726 7.08986134,22.7528429 L6.2981064,18.9703293 C6.20774192,18.538624 5.78452067,18.2619125 5.35281529,18.352277 C5.19362901,18.3855978 5.0484104,18.4667262 4.9365797,18.5848128 L3.9554626,17.8349538 C3.51666306,17.4995833 2.8890742,17.5834291 2.55370365,18.0222286 C2.43109823,18.1826458 2.35992366,18.3764192 2.34954306,18.5780575 L2.17781822,21.9137291 C2.15696514,22.3187902 2.38284715,22.6963272 2.74963621,22.8694603 L4.86860264,23.8696626 C5.092537,23.9753649 5.26928838,24.160394 5.36463801,24.3889285 L10.8766237,37.600085 C12.1785637,37.9868695 13.1212824,37.9868695 13.7047796,37.600085 C14.2882768,37.2133005 15.0043307,36.6397827 15.8529412,35.8795316 L15.0987188,29.3389808 Z" id="Path-74" fill="#E4DEDF"></path>
                        <path d="M23.3537164,21.3749432 C17.3924153,24.6274541 14.4117647,26.8975262 14.4117647,28.1851594 C14.4117647,29.4727925 14.6797229,31.9898489 15.2156392,35.7363285 L18.1673299,33.9407955 C16.7400645,43.5862621 16.3832481,48.6456226 17.0968808,49.1188769 C18.1673299,49.8287583 41.0735294,49.5245371 41.0735294,50.4932076 C41.0735294,51.461878 39.9007432,26.0856338 38.2902413,23.1278518 C37.1635794,21.0586707 33.4987958,20.6069364 32.0046529,20.6069364 C31.0085576,20.6069364 28.1249121,20.8629387 23.3537164,21.3749432 Z" id="Path-73" fill="#F7A24A"></path>
                        <path d="M23.0736421,5.84621084 C21.6176471,10.0734464 21.2536483,13.1253357 21.9816458,15.0018789 C23.0736421,17.8166936 23.283125,17.9479769 24.1516729,17.9479769 C25.0202209,17.9479769 29.5195358,17.7083531 30.4417973,16.1130705 C31.0566383,15.0495487 31.7900968,13.3991186 32.6421726,11.1617802 L33.8676471,3.25572474 L24.6071638,2.65895954 L23.0736421,5.84621084 Z" id="Path-71" fill="#E4DDDF"></path>
                        <path d="M22.4226254,6.97397102 C20.9251888,5.11349318 20.1764706,3.92893203 20.1764706,3.42028758 C20.1764706,2.6573209 21.7319596,3.34254971e-16 22.8371924,0 C23.9424251,0 27.0647076,0.776812206 27.7426471,0.99108199 C28.4205865,1.20535177 33.8448481,0.664788621 34.6814055,3.11468403 C35.5179629,5.56457944 35.5179629,8.00224387 34.6814055,10.2282066 C34.1237005,11.7121817 33.0711836,12.7343787 31.5238547,13.2947977 L31.7568291,9.26752168 L31.2154154,9.81418513 C30.8267798,10.2065891 30.1936222,10.2096439 29.8012183,9.82100837 C29.6115911,9.63320222 29.5049052,9.37738698 29.5049052,9.1104982 C29.5049052,8.73900197 29.5049052,8.36750574 29.5049052,7.99600951 C29.5049052,6.53661777 27.1441453,6.19593827 22.4226254,6.97397102 Z" id="Path-70" fill="#5C6F98"></path>
                        <g id="Group-2" transform="translate(23.058824, 15.289017)">
                            <mask id="mask-23" fill="white">
                                <use xlink:href="#path-22"></use>
                            </mask>
                            <use id="Path-72" fill="#E4DDDF" xlink:href="#path-22"></use>
                            <ellipse id="Oval-2" fill="#A9A9A9" opacity="0.193080357" filter="url(#filter-24)" mask="url(#mask-23)" cx="3.35350679" cy="1.03403982" rx="7.01187783" ry="3.10211946"></ellipse>
                        </g>
                        <path d="M13.1673585,107.687861 C8.51337969,108.470621 5.42575027,108.731049 3.90447021,108.469148 C2.57129722,109.320165 2.27758911,111.674827 4.64925959,112.49589 C6.23037325,113.043265 9.06973955,113.043265 13.1673585,112.49589 L13.978606,113.67052 L20.1764706,113.67052 L20.1764706,108.776151 L13.1673585,107.687861 Z" id="Path-79" fill="#622C19"></path>
                        <path d="M42.1721878,106.362579 C37.7614892,107.282145 34.8352613,107.58809 33.393504,107.280414 C32.1300208,108.280168 31.8516659,111.046365 34.0993606,112.010928 C35.5978237,112.65397 38.2887661,112.65397 42.1721878,112.010928 L42.1721878,112.010928 C42.6244477,112.753743 43.4918604,113.135821 44.3451954,112.968094 L45.5415721,112.732942 C46.781767,112.489176 47.7361549,111.49426 47.9281621,110.245005 L48.117754,109.011465 C48.2855531,107.919715 47.5365431,106.898649 46.4447934,106.73085 C46.4002537,106.724004 46.3554954,106.718666 46.310595,106.714844 L42.1721878,106.362579 Z" id="Path-79-Copy" fill="#622C19" transform="translate(40.334834, 109.678384) rotate(-15.000000) translate(-40.334834, -109.678384) "></path>
                        <path d="M36.3049361,63.6679516 C36.4988795,73.3224954 36.9569803,78.6008197 37.6792383,79.5029245 C38.7626255,80.8560816 46.8382353,106.230587 46.8382353,106.230587 C46.8382353,106.230587 43.6152341,108.507578 41.5715857,107.369083 C39.5279374,106.230587 25.2205882,80.1362335 25.2205882,78.2160765 C25.2205882,76.9359719 27.3634213,71.2493029 31.6490875,61.1560694 L36.3049361,63.6679516 Z" id="Path-78" fill="#A1312B"></path>
                        <path d="M18.1907466,49.8554913 C15.047804,61.3943894 13.4763328,68.352317 13.4763328,70.7292741 C13.4763328,74.2947098 12.3384076,106.064948 13.4763328,107.605154 C14.2349495,108.631958 16.3910068,109.098818 19.9445046,109.005736 C20.4788837,93.903991 21.2899642,85.2680672 22.3777463,83.0979643 C24.0094194,79.84281 35.4538196,64.5830567 36.3303131,63.3973785 C36.9146421,62.6069264 37.5349299,58.340517 38.1911765,50.5981504 L18.1907466,49.8554913 Z" id="Path-77" fill="#B44842"></path>
                        <path d="M32.8571497,33.6955836 C34.9212839,36.3049864 35.5719776,38.3500658 34.8092309,39.8308217 C33.6651108,42.0519556 30.0219772,52.0293871 29.3437198,52.0293871 C28.6654625,52.0293871 27.9250541,54.0198176 26.5366532,54.0198176 C25.1482524,54.0198176 26.5366532,56.1778762 27.183835,56.8758767 C27.8310168,57.5738772 29.8363346,56.8758767 30.3578632,56.2802201 C30.8793917,55.6845636 39.1042421,45.3779222 40.4809214,41.7486051 C41.3987076,39.3290604 41.2504457,36.2702768 40.0361359,32.5722543 L32.8571497,33.6955836 Z" id="Path-75" fill="#E3DCDC"></path>
                    </g>
                </g>
            </g>
        </g>
    </g>
</svg>