<?xml version="1.0" encoding="UTF-8"?>
<svg width="750px" height="402px" viewBox="0 0 750 402" version="1.1" xmlns="http://www.w3.org/2000/svg" xmlns:xlink="http://www.w3.org/1999/xlink">
    <!-- Generator: Sketch 50.2 (55047) - http://www.bohemiancoding.com/sketch -->
    <title>Group 5</title>
    <desc>Created with Sketch.</desc>
    <defs>
        <linearGradient x1="46.3148781%" y1="100%" x2="46.3148773%" y2="0%" id="linearGradient-1">
            <stop stop-color="#FD8265" offset="0%"></stop>
            <stop stop-color="#FF382F" offset="100%"></stop>
        </linearGradient>
        <linearGradient x1="50%" y1="0%" x2="50%" y2="85.0858627%" id="linearGradient-2">
            <stop stop-color="#FF7D6D" offset="0%"></stop>
            <stop stop-color="#FF4639" offset="100%"></stop>
        </linearGradient>
        <linearGradient x1="50%" y1="0%" x2="50%" y2="50%" id="linearGradient-3">
            <stop stop-color="#FF7D6D" offset="0%"></stop>
            <stop stop-color="#FE5A48" offset="100%"></stop>
        </linearGradient>
        <linearGradient x1="50%" y1="0%" x2="50%" y2="59.3063778%" id="linearGradient-4">
            <stop stop-color="#FE624E" offset="0%"></stop>
            <stop stop-color="#FE473A" offset="100%"></stop>
        </linearGradient>
        <path d="M0,402 C125,356.508161 250,333.762241 375,333.762241 C562.5,333.762241 750,402 750,402 C750,134 750,0 750,0 L0,0 L0,402 Z" id="path-5"></path>
    </defs>
    <g id="Page-1" stroke="none" stroke-width="1" fill="none" fill-rule="evenodd">
        <g id="我的-copy">
            <g id="Group-6">
                <g id="Group-5">
                    <polygon id="Rectangle" fill="url(#linearGradient-1)" points="0 0 750 0 750 442 367.577816 442 0 442"></polygon>
                    <path d="M0,442.876688 C82.5567166,382.071026 152.245797,354.080566 209.067241,358.905309 C294.299406,366.142424 370.959215,419.720899 492.233006,419.720899 C613.506798,419.720899 715.963098,358.905309 748.832902,348 C748.856066,348.645285 748.856066,380.270847 748.832902,442.876688 L0,442.876688 Z" id="Path-63" fill="#FFFFFF" opacity="0.0672991071"></path>
                    <path d="M447,56 C447,44.954305 455.954305,36 467,36 C468.198246,36 469.37188,36.105375 470.512141,36.3073637 C475.085895,28.354872 483.667599,23 493.5,23 C499.315598,23 504.693652,24.8733489 509.063629,28.0495136 C511.23796,26.7480443 513.781622,26 516.5,26 C524.340786,26 530.728021,32.2233889 530.991541,40.0000019 C530.99436,40.0000006 530.99718,40 531,40 C540.265107,40 547.895254,47.0000991 548.890142,56 L549,56 L549,59 C549,71.1502645 539.150264,81 527,81 L469,81 C456.849736,81 447,71.1502645 447,59 L447,56 Z" id="Combined-Shape" fill="url(#linearGradient-2)"></path>
                    <path d="M653.007005,167 C653.271673,157.566237 661.002242,150 670.5,150 C671.591964,150 672.660568,150.100012 673.697153,150.291377 C677.632949,142.982596 685.471951,138 694.5,138 C699.819243,138 704.725714,139.729687 708.664271,142.645732 C710.538816,141.597485 712.699633,141 715,141 C721.852938,141 727.467396,146.302566 727.964253,153.028577 C735.68449,153.487485 741.931069,159.420551 742.876212,167 L743,167 C743,167.361988 742.991257,167.721934 742.973972,168.079639 C742.991246,168.384225 743,168.69109 743,169 C743,172.926764 741.585427,176.523137 739.238066,179.307333 C735.283905,185.155482 728.59092,189 721,189 L675,189 C664.410541,189 655.568529,181.518294 653.471607,171.552528 C653.163221,170.251845 653,168.894983 653,167.5 C653,167.421309 653.000519,167.342739 653.001555,167.264294 C653.000519,167.176319 653,167.08822 653,167 L653.007005,167 Z" id="Combined-Shape-Copy" fill="url(#linearGradient-3)"></path>
                    <path d="M334.009088,152 C334.272114,144.7758 340.211552,139 347.5,139 C348.396258,139 349.272118,139.087339 350.119531,139.25397 C353.151381,133.746539 359.125664,130 366,130 C370.038107,130 373.765642,131.29278 376.768627,133.47586 C378.290548,132.539845 380.08223,132 382,132 C387.212951,132 391.494266,135.988808 391.958317,141.080794 C397.834604,141.736269 402.467739,146.304167 402.957215,152 L403,152 C403,152.183542 402.997091,152.366405 402.991317,152.548545 C402.997089,152.698345 403,152.848846 403,153 C403,154.595077 402.67582,156.117467 402.087259,157.509761 C399.798394,164.194353 393.460406,169 386,169 L351,169 C343.164244,169 336.56669,163.698623 334.598392,156.48692 C334.209423,155.226778 334,153.887846 334,152.5 C334,152.421308 334.000673,152.342773 334.002014,152.264401 C334.000673,152.176428 334,152.088293 334,152 L334.009088,152 Z" id="Combined-Shape-Copy" fill="url(#linearGradient-3)"></path>
                    <circle id="Oval-15" fill="url(#linearGradient-4)" cx="593" cy="71" r="14"></circle>
                    <mask id="mask-6" fill="white">
                        <use xlink:href="#path-5"></use>
                    </mask>
                    <use id="Path-2" fill="#000000" opacity="0.145479911" xlink:href="#path-5"></use>
                </g>
            </g>
        </g>
    </g>
</svg>