<?xml version="1.0" encoding="UTF-8"?>
<svg width="750px" height="316px" viewBox="0 0 750 316" version="1.1" xmlns="http://www.w3.org/2000/svg" xmlns:xlink="http://www.w3.org/1999/xlink">
    <!-- Generator: Sketch 50.2 (55047) - http://www.bohemiancoding.com/sketch -->
    <title>Group 5</title>
    <desc>Created with Sketch.</desc>
    <defs>
        <path d="M9,0 L661,0 C665.970563,-9.13077564e-16 670,4.02943725 670,9 L670,307 C670,311.970563 665.970563,316 661,316 L9,316 C4.02943725,316 6.08718376e-16,311.970563 0,307 L0,9 C-6.08718376e-16,4.02943725 4.02943725,9.13077564e-16 9,0 Z" id="path-1"></path>
        <linearGradient x1="46.3148781%" y1="100%" x2="46.3148773%" y2="0%" id="linearGradient-3">
            <stop stop-color="#FD8265" offset="0%"></stop>
            <stop stop-color="#FF382F" offset="100%"></stop>
        </linearGradient>
        <linearGradient x1="50%" y1="0%" x2="50%" y2="50%" id="linearGradient-4">
            <stop stop-color="#FF7D6D" offset="0%"></stop>
            <stop stop-color="#FE5A48" offset="100%"></stop>
        </linearGradient>
        <ellipse id="path-5" cx="204" cy="275" rx="204" ry="44"></ellipse>
        <filter x="-3.8%" y="-16.5%" width="107.6%" height="135.2%" filterUnits="objectBoundingBox" id="filter-6">
            <feOffset dx="0" dy="1" in="SourceAlpha" result="shadowOffsetOuter1"></feOffset>
            <feGaussianBlur stdDeviation="5" in="shadowOffsetOuter1" result="shadowBlurOuter1"></feGaussianBlur>
            <feColorMatrix values="0 0 0 0 0.996078431   0 0 0 0 0.403921569   0 0 0 0 0.317647059  0 0 0 1 0" type="matrix" in="shadowBlurOuter1"></feColorMatrix>
        </filter>
        <ellipse id="path-7" cx="203" cy="267.5" rx="182" ry="39.5"></ellipse>
        <filter x="-3.4%" y="-14.6%" width="106.9%" height="131.6%" filterUnits="objectBoundingBox" id="filter-8">
            <feOffset dx="0" dy="1" in="SourceAlpha" result="shadowOffsetOuter1"></feOffset>
            <feGaussianBlur stdDeviation="4" in="shadowOffsetOuter1" result="shadowBlurOuter1"></feGaussianBlur>
            <feColorMatrix values="0 0 0 0 0.996078431   0 0 0 0 0.407843137   0 0 0 0 0.321568627  0 0 0 1 0" type="matrix" in="shadowBlurOuter1"></feColorMatrix>
        </filter>
        <ellipse id="path-9" cx="205.5" cy="257" rx="155.5" ry="34"></ellipse>
        <filter x="-3.1%" y="-12.5%" width="106.1%" height="127.9%" filterUnits="objectBoundingBox" id="filter-10">
            <feOffset dx="0" dy="1" in="SourceAlpha" result="shadowOffsetOuter1"></feOffset>
            <feGaussianBlur stdDeviation="3" in="shadowOffsetOuter1" result="shadowBlurOuter1"></feGaussianBlur>
            <feColorMatrix values="0 0 0 0 0.992156863   0 0 0 0 0.407843137   0 0 0 0 0.321568627  0 0 0 1 0" type="matrix" in="shadowBlurOuter1"></feColorMatrix>
        </filter>
        <linearGradient x1="0%" y1="77.6524981%" x2="98.3287124%" y2="100%" id="linearGradient-11">
            <stop stop-color="#FF9F79" offset="0%"></stop>
            <stop stop-color="#FF9C78" offset="100%"></stop>
        </linearGradient>
        <linearGradient x1="10.1318192%" y1="2.85499323%" x2="77.5988833%" y2="100%" id="linearGradient-12">
            <stop stop-color="#FEEFE8" offset="0%"></stop>
            <stop stop-color="#FFB8A0" offset="100%"></stop>
        </linearGradient>
        <linearGradient x1="3.28636194%" y1="33.9773595%" x2="66.5204913%" y2="33.9773595%" id="linearGradient-13">
            <stop stop-color="#FEC048" offset="0%"></stop>
            <stop stop-color="#FDB83B" offset="100%"></stop>
        </linearGradient>
        <linearGradient x1="50%" y1="0%" x2="50%" y2="100%" id="linearGradient-14">
            <stop stop-color="#F3D463" offset="0%"></stop>
            <stop stop-color="#FFE89A" offset="100%"></stop>
        </linearGradient>
        <linearGradient x1="100%" y1="50%" x2="31.0979394%" y2="50%" id="linearGradient-15">
            <stop stop-color="#FDB738" offset="0%"></stop>
            <stop stop-color="#FCC44D" offset="100%"></stop>
        </linearGradient>
        <filter x="-57.5%" y="-55.9%" width="212.9%" height="207.4%" filterUnits="objectBoundingBox" id="filter-16">
            <feOffset dx="0" dy="1" in="SourceAlpha" result="shadowOffsetOuter1"></feOffset>
            <feGaussianBlur stdDeviation="6" in="shadowOffsetOuter1" result="shadowBlurOuter1"></feGaussianBlur>
            <feColorMatrix values="0 0 0 0 1   0 0 0 0 0.0721649485   0 0 0 0 0  0 0 0 0.658656024 0" type="matrix" in="shadowBlurOuter1" result="shadowMatrixOuter1"></feColorMatrix>
            <feMerge>
                <feMergeNode in="shadowMatrixOuter1"></feMergeNode>
                <feMergeNode in="SourceGraphic"></feMergeNode>
            </feMerge>
        </filter>
        <ellipse id="path-17" cx="27.0149626" cy="11.0139169" rx="21.5336658" ry="7.86708351"></ellipse>
        <filter x="-348.3%" y="-953.3%" width="796.6%" height="2006.7%" filterUnits="objectBoundingBox" id="filter-18">
            <feOffset dx="0" dy="0" in="SourceAlpha" result="shadowOffsetOuter1"></feOffset>
            <feGaussianBlur stdDeviation="50" in="shadowOffsetOuter1" result="shadowBlurOuter1"></feGaussianBlur>
            <feColorMatrix values="0 0 0 0 1   0 0 0 0 1   0 0 0 0 1  0 0 0 1 0" type="matrix" in="shadowBlurOuter1"></feColorMatrix>
        </filter>
        <ellipse id="path-19" cx="27.0149626" cy="10.2272086" rx="21.5336658" ry="7.86708351"></ellipse>
        <filter x="0.0%" y="0.0%" width="100.0%" height="100.0%" filterUnits="objectBoundingBox" id="filter-20">
            <feOffset dx="0" dy="0" in="SourceAlpha" result="shadowOffsetOuter1"></feOffset>
            <feColorMatrix values="0 0 0 0 1   0 0 0 0 1   0 0 0 0 1  0 0 0 0.615772192 0" type="matrix" in="shadowOffsetOuter1"></feColorMatrix>
        </filter>
        <ellipse id="path-21" cx="27.0149626" cy="11.0139169" rx="21.5336658" ry="7.86708351"></ellipse>
        <filter x="-348.3%" y="-953.3%" width="796.6%" height="2006.7%" filterUnits="objectBoundingBox" id="filter-22">
            <feOffset dx="0" dy="0" in="SourceAlpha" result="shadowOffsetOuter1"></feOffset>
            <feGaussianBlur stdDeviation="50" in="shadowOffsetOuter1" result="shadowBlurOuter1"></feGaussianBlur>
            <feColorMatrix values="0 0 0 0 1   0 0 0 0 1   0 0 0 0 1  0 0 0 1 0" type="matrix" in="shadowBlurOuter1"></feColorMatrix>
        </filter>
        <ellipse id="path-23" cx="27.0149626" cy="10.2272086" rx="21.5336658" ry="7.86708351"></ellipse>
        <filter x="0.0%" y="0.0%" width="100.0%" height="100.0%" filterUnits="objectBoundingBox" id="filter-24">
            <feOffset dx="0" dy="0" in="SourceAlpha" result="shadowOffsetOuter1"></feOffset>
            <feColorMatrix values="0 0 0 0 1   0 0 0 0 1   0 0 0 0 1  0 0 0 0.615772192 0" type="matrix" in="shadowOffsetOuter1"></feColorMatrix>
        </filter>
        <ellipse id="path-25" cx="27.0149626" cy="11.0139169" rx="21.5336658" ry="7.86708351"></ellipse>
        <filter x="-348.3%" y="-953.3%" width="796.6%" height="2006.7%" filterUnits="objectBoundingBox" id="filter-26">
            <feOffset dx="0" dy="0" in="SourceAlpha" result="shadowOffsetOuter1"></feOffset>
            <feGaussianBlur stdDeviation="50" in="shadowOffsetOuter1" result="shadowBlurOuter1"></feGaussianBlur>
            <feColorMatrix values="0 0 0 0 1   0 0 0 0 1   0 0 0 0 1  0 0 0 1 0" type="matrix" in="shadowBlurOuter1"></feColorMatrix>
        </filter>
        <ellipse id="path-27" cx="27.0149626" cy="10.2272086" rx="21.5336658" ry="7.86708351"></ellipse>
        <filter x="0.0%" y="0.0%" width="100.0%" height="100.0%" filterUnits="objectBoundingBox" id="filter-28">
            <feOffset dx="0" dy="0" in="SourceAlpha" result="shadowOffsetOuter1"></feOffset>
            <feColorMatrix values="0 0 0 0 1   0 0 0 0 1   0 0 0 0 1  0 0 0 0.615772192 0" type="matrix" in="shadowOffsetOuter1"></feColorMatrix>
        </filter>
        <ellipse id="path-29" cx="27.0149626" cy="11.0139169" rx="21.5336658" ry="7.86708351"></ellipse>
        <filter x="-348.3%" y="-953.3%" width="796.6%" height="2006.7%" filterUnits="objectBoundingBox" id="filter-30">
            <feOffset dx="0" dy="0" in="SourceAlpha" result="shadowOffsetOuter1"></feOffset>
            <feGaussianBlur stdDeviation="50" in="shadowOffsetOuter1" result="shadowBlurOuter1"></feGaussianBlur>
            <feColorMatrix values="0 0 0 0 1   0 0 0 0 1   0 0 0 0 1  0 0 0 1 0" type="matrix" in="shadowBlurOuter1"></feColorMatrix>
        </filter>
        <ellipse id="path-31" cx="27.0149626" cy="10.2272086" rx="21.5336658" ry="7.86708351"></ellipse>
        <filter x="0.0%" y="0.0%" width="100.0%" height="100.0%" filterUnits="objectBoundingBox" id="filter-32">
            <feOffset dx="0" dy="0" in="SourceAlpha" result="shadowOffsetOuter1"></feOffset>
            <feColorMatrix values="0 0 0 0 1   0 0 0 0 1   0 0 0 0 1  0 0 0 0.615772192 0" type="matrix" in="shadowOffsetOuter1"></feColorMatrix>
        </filter>
        <ellipse id="path-33" cx="27.0149626" cy="11.0139169" rx="21.5336658" ry="7.86708351"></ellipse>
        <filter x="-348.3%" y="-953.3%" width="796.6%" height="2006.7%" filterUnits="objectBoundingBox" id="filter-34">
            <feOffset dx="0" dy="0" in="SourceAlpha" result="shadowOffsetOuter1"></feOffset>
            <feGaussianBlur stdDeviation="50" in="shadowOffsetOuter1" result="shadowBlurOuter1"></feGaussianBlur>
            <feColorMatrix values="0 0 0 0 1   0 0 0 0 1   0 0 0 0 1  0 0 0 1 0" type="matrix" in="shadowBlurOuter1"></feColorMatrix>
        </filter>
        <ellipse id="path-35" cx="27.0149626" cy="10.2272086" rx="21.5336658" ry="7.86708351"></ellipse>
        <filter x="0.0%" y="0.0%" width="100.0%" height="100.0%" filterUnits="objectBoundingBox" id="filter-36">
            <feOffset dx="0" dy="0" in="SourceAlpha" result="shadowOffsetOuter1"></feOffset>
            <feColorMatrix values="0 0 0 0 1   0 0 0 0 1   0 0 0 0 1  0 0 0 0.615772192 0" type="matrix" in="shadowOffsetOuter1"></feColorMatrix>
        </filter>
        <ellipse id="path-37" cx="23.882793" cy="10.2272086" rx="19.967581" ry="7.08037516"></ellipse>
        <filter x="-375.6%" y="-1059.3%" width="851.2%" height="2218.5%" filterUnits="objectBoundingBox" id="filter-38">
            <feOffset dx="0" dy="0" in="SourceAlpha" result="shadowOffsetOuter1"></feOffset>
            <feGaussianBlur stdDeviation="50" in="shadowOffsetOuter1" result="shadowBlurOuter1"></feGaussianBlur>
            <feColorMatrix values="0 0 0 0 1   0 0 0 0 1   0 0 0 0 1  0 0 0 1 0" type="matrix" in="shadowBlurOuter1"></feColorMatrix>
        </filter>
        <ellipse id="path-39" cx="23.882793" cy="9.44050021" rx="19.967581" ry="7.08037516"></ellipse>
        <filter x="0.0%" y="0.0%" width="100.0%" height="100.0%" filterUnits="objectBoundingBox" id="filter-40">
            <feOffset dx="0" dy="0" in="SourceAlpha" result="shadowOffsetOuter1"></feOffset>
            <feColorMatrix values="0 0 0 0 1   0 0 0 0 1   0 0 0 0 1  0 0 0 0.615772192 0" type="matrix" in="shadowOffsetOuter1"></feColorMatrix>
        </filter>
        <ellipse id="path-41" cx="19.6253811" cy="8.40407843" rx="16.4081055" ry="5.81820814"></ellipse>
        <filter x="-457.1%" y="-1289.1%" width="1014.2%" height="2678.1%" filterUnits="objectBoundingBox" id="filter-42">
            <feOffset dx="0" dy="0" in="SourceAlpha" result="shadowOffsetOuter1"></feOffset>
            <feGaussianBlur stdDeviation="50" in="shadowOffsetOuter1" result="shadowBlurOuter1"></feGaussianBlur>
            <feColorMatrix values="0 0 0 0 1   0 0 0 0 1   0 0 0 0 1  0 0 0 1 0" type="matrix" in="shadowBlurOuter1"></feColorMatrix>
        </filter>
        <ellipse id="path-43" cx="19.6253811" cy="7.75761086" rx="16.4081055" ry="5.81820814"></ellipse>
        <filter x="0.0%" y="0.0%" width="100.0%" height="100.0%" filterUnits="objectBoundingBox" id="filter-44">
            <feOffset dx="0" dy="0" in="SourceAlpha" result="shadowOffsetOuter1"></feOffset>
            <feColorMatrix values="0 0 0 0 1   0 0 0 0 1   0 0 0 0 1  0 0 0 0.615772192 0" type="matrix" in="shadowOffsetOuter1"></feColorMatrix>
        </filter>
        <ellipse id="path-45" cx="15.604904" cy="6.68240971" rx="13.046723" ry="4.62628364"></ellipse>
        <filter x="-574.9%" y="-1621.2%" width="1249.7%" height="3342.3%" filterUnits="objectBoundingBox" id="filter-46">
            <feOffset dx="0" dy="0" in="SourceAlpha" result="shadowOffsetOuter1"></feOffset>
            <feGaussianBlur stdDeviation="50" in="shadowOffsetOuter1" result="shadowBlurOuter1"></feGaussianBlur>
            <feColorMatrix values="0 0 0 0 1   0 0 0 0 1   0 0 0 0 1  0 0 0 1 0" type="matrix" in="shadowBlurOuter1"></feColorMatrix>
        </filter>
        <ellipse id="path-47" cx="15.604904" cy="6.16837819" rx="13.046723" ry="4.62628364"></ellipse>
        <filter x="0.0%" y="0.0%" width="100.0%" height="100.0%" filterUnits="objectBoundingBox" id="filter-48">
            <feOffset dx="0" dy="0" in="SourceAlpha" result="shadowOffsetOuter1"></feOffset>
            <feColorMatrix values="0 0 0 0 1   0 0 0 0 1   0 0 0 0 1  0 0 0 0.615772192 0" type="matrix" in="shadowOffsetOuter1"></feColorMatrix>
        </filter>
        <filter x="-10.7%" y="-5.0%" width="121.3%" height="111.8%" filterUnits="objectBoundingBox" id="filter-49">
            <feOffset dx="0" dy="1" in="SourceAlpha" result="shadowOffsetOuter1"></feOffset>
            <feGaussianBlur stdDeviation="2" in="shadowOffsetOuter1" result="shadowBlurOuter1"></feGaussianBlur>
            <feColorMatrix values="0 0 0 0 0.996078431   0 0 0 0 0.349019608   0 0 0 0 0.278431373  0 0 0 0.578691123 0" type="matrix" in="shadowBlurOuter1" result="shadowMatrixOuter1"></feColorMatrix>
            <feMerge>
                <feMergeNode in="shadowMatrixOuter1"></feMergeNode>
                <feMergeNode in="SourceGraphic"></feMergeNode>
            </feMerge>
        </filter>
        <linearGradient x1="0%" y1="50%" x2="100%" y2="50%" id="linearGradient-50">
            <stop stop-color="#FFFFFF" offset="0%"></stop>
            <stop stop-color="#FFFFFF" stop-opacity="0.499320652" offset="100%"></stop>
        </linearGradient>
        <linearGradient x1="2.57531378%" y1="39.5083845%" x2="97.9730893%" y2="39.5083843%" id="linearGradient-51">
            <stop stop-color="#FFFFFF" offset="0%"></stop>
            <stop stop-color="#FFFFFF" stop-opacity="0.497056159" offset="100%"></stop>
        </linearGradient>
        <linearGradient x1="5.84938734%" y1="64.4825804%" x2="100%" y2="62.7937175%" id="linearGradient-52">
            <stop stop-color="#FFFFFF" offset="0%"></stop>
            <stop stop-color="#FFFFFF" stop-opacity="0.565557065" offset="100%"></stop>
        </linearGradient>
        <linearGradient x1="0%" y1="53.1916976%" x2="96.9567997%" y2="53.1916991%" id="linearGradient-53">
            <stop stop-color="#FFFFFF" offset="0%"></stop>
            <stop stop-color="#FFFFFF" stop-opacity="0.59728827" offset="100%"></stop>
        </linearGradient>
        <linearGradient x1="3.46508896%" y1="40.6719957%" x2="95.3992199%" y2="40.6719953%" id="linearGradient-54">
            <stop stop-color="#FFFFFF" offset="0%"></stop>
            <stop stop-color="#FFFFFF" stop-opacity="0.580021513" offset="100%"></stop>
        </linearGradient>
        <linearGradient x1="12.7552828%" y1="50%" x2="100%" y2="50%" id="linearGradient-55">
            <stop stop-color="#FFFFFF" offset="0%"></stop>
            <stop stop-color="#FFFFFF" stop-opacity="0.518653759" offset="100%"></stop>
        </linearGradient>
    </defs>
    <g id="Page-1" stroke="none" stroke-width="1" fill="none" fill-rule="evenodd">
        <g id="我的-copy" transform="translate(0.000000, -126.000000)">
            <g id="Group-7" transform="translate(0.000000, 126.000000)">
                <g id="Group-5" transform="translate(40.000000, 0.000000)">
                    <mask id="mask-2" fill="white">
                        <use xlink:href="#path-1"></use>
                    </mask>
                    <use id="Rectangle-5" fill="#D8D8D8" xlink:href="#path-1"></use>
                    <polygon id="Rectangle" fill="url(#linearGradient-3)" mask="url(#mask-2)" points="-40 -86 710 -86 710 316 327.577816 316 -40 316"></polygon>
                    <path d="M-38,315.876688 C44.5567166,255.071026 114.245797,227.080566 171.067241,231.905309 C256.299406,239.142424 332.959215,292.720899 454.233006,292.720899 C575.506798,292.720899 677.963098,231.905309 710.832902,221 C710.856066,221.645285 710.856066,253.270847 710.832902,315.876688 L-38,315.876688 Z" id="Path-63" fill="#FFFFFF" opacity="0.0672991071" mask="url(#mask-2)"></path>
                    <path d="M613.007005,41 C613.271673,31.5662373 621.002242,24 630.5,24 C631.591964,24 632.660568,24.1000125 633.697153,24.291377 C637.632949,16.9825963 645.471951,12 654.5,12 C659.819243,12 664.725714,13.7296871 668.664271,16.645732 C670.538816,15.5974846 672.699633,15 675,15 C681.852938,15 687.467396,20.3025658 687.964253,27.0285773 C695.68449,27.4874848 701.931069,33.4205513 702.876212,41 L703,41 C703,41.3619881 702.991257,41.7219342 702.973972,42.0796388 C702.991246,42.3842248 703,42.6910901 703,43 C703,46.926764 701.585427,50.5231368 699.238066,53.3073326 C695.283905,59.1554815 688.59092,63 681,63 L635,63 C624.410541,63 615.568529,55.5182942 613.471607,45.5525275 C613.163221,44.2518446 613,42.8949834 613,41.5 C613,41.421309 613.000519,41.3427393 613.001555,41.2642941 C613.000519,41.1763193 613,41.0882203 613,41 L613.007005,41 Z" id="Combined-Shape-Copy" fill="url(#linearGradient-4)" mask="url(#mask-2)"></path>
                    <path d="M294.009088,26 C294.272114,18.7758005 300.211552,13 307.5,13 C308.396258,13 309.272118,13.0873391 310.119531,13.2539704 C313.151381,7.74653943 319.125664,4 326,4 C330.038107,4 333.765642,5.2927796 336.768627,7.47585954 C338.290548,6.5398446 340.08223,6 342,6 C347.212951,6 351.494266,9.9888077 351.958317,15.0807944 C357.834604,15.7362692 362.467739,20.304167 362.957215,26 L363,26 C363,26.1835423 362.997091,26.3664052 362.991317,26.5485451 C362.997089,26.6983448 363,26.848846 363,27 C363,28.5950775 362.67582,30.1174672 362.087259,31.5097612 C359.798394,38.1943533 353.460406,43 346,43 L311,43 C303.164244,43 296.56669,37.6986228 294.598392,30.4869199 C294.209423,29.2267784 294,27.8878459 294,26.5 C294,26.421308 294.000673,26.3427733 294.002014,26.2644012 C294.000673,26.1764279 294,26.0882926 294,26 L294.009088,26 Z" id="Combined-Shape-Copy" fill="url(#linearGradient-4)" mask="url(#mask-2)"></path>
                    <g id="Group-4" mask="url(#mask-2)">
                        <g transform="translate(272.000000, 7.000000)">
                            <g id="Oval-2" opacity="0.103348214">
                                <use fill="black" fill-opacity="1" filter="url(#filter-6)" xlink:href="#path-5"></use>
                                <use fill="#FFFFFF" fill-rule="evenodd" xlink:href="#path-5"></use>
                            </g>
                            <g id="Oval-2" opacity="0.288839286">
                                <use fill="black" fill-opacity="1" filter="url(#filter-8)" xlink:href="#path-7"></use>
                                <use fill="#FFFFFF" fill-rule="evenodd" xlink:href="#path-7"></use>
                            </g>
                            <g id="Oval-2" opacity="0.369921875">
                                <use fill="black" fill-opacity="1" filter="url(#filter-10)" xlink:href="#path-9"></use>
                                <use fill="#FFFFFF" fill-rule="evenodd" xlink:href="#path-9"></use>
                            </g>
                            <g id="Group-3" stroke-width="1" fill-rule="evenodd" transform="translate(48.000000, 0.000000)">
                                <path d="M22.334932,169.567646 C28.2105879,164.112764 34.9766465,161.385322 42.6331077,161.385322 C50.2895689,161.385322 127.456132,161.385322 274.132796,161.385322 C282.828229,161.915215 287.84228,164.642656 289.174951,169.567646 C290.228051,172.180793 291.552947,190.33955 298.109053,217.636701 C300.180349,226.260795 313.985907,232.580668 313.985907,243.765614 C313.985907,246.171057 313.985907,249.974633 313.985907,255.176343 C314.142899,262.727759 310.933377,266.689549 304.35734,267.061714 C297.505244,267.061714 201.732008,267.061714 17.0376311,267.061714 C8.05290924,267.765284 2.59875003,264.68783 0.675153458,257.829352 C0.0952083429,254.035862 0.113033312,249.34795 0.728628364,243.765614 C1.12892563,240.135641 8.27555659,240.381864 9.94367969,233.867479 C12.2453327,224.879022 16.3757502,203.445745 22.334932,169.567646 Z" id="Path-53" fill="url(#linearGradient-11)"></path>
                                <path d="M26.5590372,155.406896 C29.618623,149.952013 34.9766465,147.224572 42.6331077,147.224572 C50.2895689,147.224572 127.456132,147.224572 274.132796,147.224572 C282.828229,147.754465 287.84228,150.481906 289.174951,155.406896 C290.665496,159.105512 298.935814,187.641745 313.985907,241.015593 C314.142899,248.567008 310.933377,252.528799 304.35734,252.900964 C297.505244,252.900964 201.732008,252.900964 17.0376311,252.900964 C8.05290924,253.604534 2.59875003,250.52708 0.675153458,243.668601 C2.30857889,238.141058 10.9365401,208.720489 26.5590372,155.406896 Z" id="Path-53" fill="url(#linearGradient-12)"></path>
                                <path d="M28.6536699,178.394075 L28.6536699,178.394075 C29.3038512,178.394075 29.8310215,178.920973 29.8313579,179.571154 L29.8423971,200.912632 C29.8427332,201.562379 29.316282,202.089375 28.6665354,202.089711 C28.6663325,202.089711 28.6661297,202.089711 28.6659268,202.089711 L28.6659268,202.089711 C28.0157455,202.089711 27.4885752,201.562814 27.4882388,200.912632 L27.4771996,179.571154 C27.4768635,178.921407 28.0033147,178.394411 28.6530613,178.394075 C28.6532642,178.394075 28.653467,178.394075 28.6536699,178.394075 Z" id="Rectangle-3" fill="#FF935C" transform="translate(28.659798, 190.241893) rotate(-345.000000) translate(-28.659798, -190.241893) "></path>
                                <ellipse id="Oval-3" fill="#FF935C" transform="translate(24.274314, 205.724234) rotate(-345.000000) translate(-24.274314, -205.724234) " cx="24.2743142" cy="205.724234" rx="1.56608479" ry="1.96677088"></ellipse>
                                <path d="M50.2434688,155.206348 L248.112752,155.206348 C250.009415,155.206348 251.645326,156.538344 252.029735,158.395643 L266.782741,229.675886 C267.230481,231.839176 265.839754,233.955834 263.676464,234.403574 C263.409759,234.458775 263.138115,234.486591 262.865758,234.486591 L35.8021038,234.486591 C33.5929648,234.486591 31.8021038,232.69573 31.8021038,230.486591 C31.8021038,230.219844 31.8287864,229.953765 31.8817533,229.692329 L46.3231184,158.412086 C46.7009823,156.547011 48.3405012,155.206348 50.2434688,155.206348 Z" id="Path-50" fill="#FF8479"></path>
                                <ellipse id="Oval" fill="#FFAB9D" cx="277.98005" cy="191.170129" rx="14.8778055" ry="11.0139169"></ellipse>
                                <ellipse id="Oval" fill="#FFE2DA" cx="277.98005" cy="192.743546" rx="14.8778055" ry="11.0139169"></ellipse>
                                <g id="Group" transform="translate(80.653367, 0.000000)">
                                    <path d="M39.1673562,93.6182938 C52.0115334,77.4048335 46.9573827,65.9744778 24.0049039,59.3272267 C17.1850254,56.6821665 -6.41964728,45.910463 1.66662563,31.4314604 C5.2830504,24.1642336 11.3685913,19.4562747 19.9232485,17.3075837 L64.2094763,26.2183458 L55.5411752,90.4942788 L39.1673562,93.6182938 Z" id="Path-52" fill="url(#linearGradient-13)"></path>
                                    <path d="M75.5110306,183.547715 C89.5852981,181.546603 98.7592951,178.826802 103.033022,175.388311 C109.443611,170.230575 115.730731,158.192481 104.067973,152.199685 C92.4052136,146.20689 52.973284,143.573097 40.1447825,135.749712 C27.3162811,127.926326 23.5201189,113.655007 38.5621496,93.6377703 C62.749625,64.0526422 50.0578159,20.7240271 19.5760599,17.1851655 C26.3078046,10.8093844 119.154946,-21.2329243 161.253971,22.9840501 C184.224654,59.1137324 145.423352,81.4127897 130.18791,91.4398864 C114.952468,101.466983 110.445183,115.814893 126.051887,129.209735 C146.027624,143.716539 161.253971,155.638987 146.027624,173.08993 C128.94435,189.117989 83.8205518,194.316963 77.9629703,194.316963 C74.0579159,194.316963 73.2406027,190.727214 75.5110306,183.547715 Z" id="Path-51" fill="url(#linearGradient-14)"></path>
                                    <rect id="Rectangle-2" fill="url(#linearGradient-15)" x="75.9551122" y="57.4297096" width="62.6433915" height="4.72025011" rx="2.36012505"></rect>
                                    <rect id="Rectangle-2-Copy" fill="url(#linearGradient-15)" x="64.9925187" y="75.5240017" width="62.6433915" height="4.72025011" rx="2.36012505"></rect>
                                    <rect id="Rectangle-2-Copy-2" fill="url(#linearGradient-15)" x="53.2468828" y="92.8315854" width="62.6433915" height="4.72025011" rx="2.36012505"></rect>
                                    <rect id="Rectangle-2-Copy-3" fill="url(#linearGradient-15)" x="43.0673317" y="108.565752" width="62.6433915" height="4.72025011" rx="2.36012505"></rect>
                                    <rect id="Rectangle-2-Copy-4" fill="url(#linearGradient-15)" x="49.3316708" y="125.873336" width="62.6433915" height="4.72025011" rx="2.36012505"></rect>
                                </g>
                                <g id="Group-2" filter="url(#filter-16)" transform="translate(27.830424, 27.534792)">
                                    <g id="1" transform="translate(23.850374, 130.593586)">
                                        <path d="M0.834337757,10.2272086 C0.577285375,14.5157645 0.774303153,17.0070076 1.42539109,17.7009379 C10.9743518,27.5747555 41.0804481,27.5747555 51.4131524,17.7009379 C52.2727296,16.9422579 52.621648,14.4510148 52.4599076,10.2272086 L0.834337757,10.2272086 Z" id="Path-38" fill="#FCBD22"></path>
                                        <ellipse id="Oval-10" fill="#FDF761" cx="26.6234414" cy="10.6205627" rx="25.840399" ry="10.6205627"></ellipse>
                                        <g id="Oval-10" opacity="0.288727679">
                                            <use fill="black" fill-opacity="1" filter="url(#filter-18)" xlink:href="#path-17"></use>
                                            <use fill="#FFFFFF" fill-rule="evenodd" xlink:href="#path-17"></use>
                                        </g>
                                        <g id="Oval-10">
                                            <use fill="black" fill-opacity="1" filter="url(#filter-20)" xlink:href="#path-19"></use>
                                            <use fill="#FFCC35" fill-rule="evenodd" xlink:href="#path-19"></use>
                                        </g>
                                        <path d="M21.1931878,13.9498217 L21.4150416,11.6320182 L19.1864576,11.6447693 C18.4888125,11.3513613 18.8028216,9.65104036 19.4752205,9.57442891 L21.6199074,9.53213117 L21.8739232,6.9792952 C21.9174983,6.54679237 22.3302683,6.11917975 22.824843,6.09675568 C23.3930315,6.07090307 23.6707611,6.34189771 23.634012,6.91098537 L23.47052,9.49488353 L24.7643531,9.46842731 L24.8631295,6.86278562 C24.8726172,6.61997999 24.9549109,6.41814577 25.1115577,6.19072323 C25.3132915,6.04911061 25.5366857,5.97248437 25.7333571,5.96338448 C26.3229172,5.93603436 26.6164762,6.21265905 26.6147511,6.79338187 L26.6106807,9.00540824 L34.3012396,4.74848815 C34.9656741,4.44893115 35.6009164,6.61480292 34.7277259,7.36165468 L28.3367241,10.6373016 L35.7841792,13.7011755 C36.8447299,14.1793289 37.2323851,16.2430431 36.1892214,16.0838954 L26.6116499,12.1133548 L26.6160241,13.9927683 C26.6176418,14.4851488 26.1523969,14.8598676 25.5692485,14.8525697 C25.0154009,14.845588 24.5905127,14.4639983 24.6065487,13.9774091 L24.6872693,11.6117225 L23.3401679,11.6203048 L23.2006142,13.9662748 C23.1673756,14.5365507 22.801435,14.8171871 22.1318776,14.8084426 C21.5498304,14.8007822 21.1481106,14.4265658 21.1931878,13.9498217 Z" id="¥" fill="#FFAE33"></path>
                                    </g>
                                    <g id="1" transform="translate(102.937656, 158.128379)">
                                        <path d="M0.834337757,10.2272086 C0.577285375,14.5157645 0.774303153,17.0070076 1.42539109,17.7009379 C10.9743518,27.5747555 41.0804481,27.5747555 51.4131524,17.7009379 C52.2727296,16.9422579 52.621648,14.4510148 52.4599076,10.2272086 L0.834337757,10.2272086 Z" id="Path-38" fill="#FCBD22"></path>
                                        <ellipse id="Oval-10" fill="#FDF761" cx="26.6234414" cy="10.6205627" rx="25.840399" ry="10.6205627"></ellipse>
                                        <g id="Oval-10" opacity="0.288727679">
                                            <use fill="black" fill-opacity="1" filter="url(#filter-22)" xlink:href="#path-21"></use>
                                            <use fill="#FFFFFF" fill-rule="evenodd" xlink:href="#path-21"></use>
                                        </g>
                                        <g id="Oval-10">
                                            <use fill="black" fill-opacity="1" filter="url(#filter-24)" xlink:href="#path-23"></use>
                                            <use fill="#FFCC35" fill-rule="evenodd" xlink:href="#path-23"></use>
                                        </g>
                                        <path d="M21.1931878,13.9498217 L21.4150416,11.6320182 L19.1864576,11.6447693 C18.4888125,11.3513613 18.8028216,9.65104036 19.4752205,9.57442891 L21.6199074,9.53213117 L21.8739232,6.9792952 C21.9174983,6.54679237 22.3302683,6.11917975 22.824843,6.09675568 C23.3930315,6.07090307 23.6707611,6.34189771 23.634012,6.91098537 L23.47052,9.49488353 L24.7643531,9.46842731 L24.8631295,6.86278562 C24.8726172,6.61997999 24.9549109,6.41814577 25.1115577,6.19072323 C25.3132915,6.04911061 25.5366857,5.97248437 25.7333571,5.96338448 C26.3229172,5.93603436 26.6164762,6.21265905 26.6147511,6.79338187 L26.6106807,9.00540824 L34.3012396,4.74848815 C34.9656741,4.44893115 35.6009164,6.61480292 34.7277259,7.36165468 L28.3367241,10.6373016 L35.7841792,13.7011755 C36.8447299,14.1793289 37.2323851,16.2430431 36.1892214,16.0838954 L26.6116499,12.1133548 L26.6160241,13.9927683 C26.6176418,14.4851488 26.1523969,14.8598676 25.5692485,14.8525697 C25.0154009,14.845588 24.5905127,14.4639983 24.6065487,13.9774091 L24.6872693,11.6117225 L23.3401679,11.6203048 L23.2006142,13.9662748 C23.1673756,14.5365507 22.801435,14.8171871 22.1318776,14.8084426 C21.5498304,14.8007822 21.1481106,14.4265658 21.1931878,13.9498217 Z" id="¥" fill="#FFAE33"></path>
                                    </g>
                                    <g id="1" transform="translate(95.890274, 151.048003)">
                                        <path d="M0.834337757,10.2272086 C0.577285375,14.5157645 0.774303153,17.0070076 1.42539109,17.7009379 C10.9743518,27.5747555 41.0804481,27.5747555 51.4131524,17.7009379 C52.2727296,16.9422579 52.621648,14.4510148 52.4599076,10.2272086 L0.834337757,10.2272086 Z" id="Path-38" fill="#FCBD22"></path>
                                        <ellipse id="Oval-10" fill="#FDF761" cx="26.6234414" cy="10.6205627" rx="25.840399" ry="10.6205627"></ellipse>
                                        <g id="Oval-10" opacity="0.288727679">
                                            <use fill="black" fill-opacity="1" filter="url(#filter-26)" xlink:href="#path-25"></use>
                                            <use fill="#FFFFFF" fill-rule="evenodd" xlink:href="#path-25"></use>
                                        </g>
                                        <g id="Oval-10">
                                            <use fill="black" fill-opacity="1" filter="url(#filter-28)" xlink:href="#path-27"></use>
                                            <use fill="#FFCC35" fill-rule="evenodd" xlink:href="#path-27"></use>
                                        </g>
                                        <path d="M21.1931878,13.9498217 L21.4150416,11.6320182 L19.1864576,11.6447693 C18.4888125,11.3513613 18.8028216,9.65104036 19.4752205,9.57442891 L21.6199074,9.53213117 L21.8739232,6.9792952 C21.9174983,6.54679237 22.3302683,6.11917975 22.824843,6.09675568 C23.3930315,6.07090307 23.6707611,6.34189771 23.634012,6.91098537 L23.47052,9.49488353 L24.7643531,9.46842731 L24.8631295,6.86278562 C24.8726172,6.61997999 24.9549109,6.41814577 25.1115577,6.19072323 C25.3132915,6.04911061 25.5366857,5.97248437 25.7333571,5.96338448 C26.3229172,5.93603436 26.6164762,6.21265905 26.6147511,6.79338187 L26.6106807,9.00540824 L34.3012396,4.74848815 C34.9656741,4.44893115 35.6009164,6.61480292 34.7277259,7.36165468 L28.3367241,10.6373016 L35.7841792,13.7011755 C36.8447299,14.1793289 37.2323851,16.2430431 36.1892214,16.0838954 L26.6116499,12.1133548 L26.6160241,13.9927683 C26.6176418,14.4851488 26.1523969,14.8598676 25.5692485,14.8525697 C25.0154009,14.845588 24.5905127,14.4639983 24.6065487,13.9774091 L24.6872693,11.6117225 L23.3401679,11.6203048 L23.2006142,13.9662748 C23.1673756,14.5365507 22.801435,14.8171871 22.1318776,14.8084426 C21.5498304,14.8007822 21.1481106,14.4265658 21.1931878,13.9498217 Z" id="¥" fill="#FFAE33"></path>
                                    </g>
                                    <g id="1" transform="translate(79.516253, 163.273718) rotate(-26.000000) translate(-79.516253, -163.273718) translate(53.016253, 150.273718)">
                                        <path d="M0.834337757,10.2272086 C0.577285375,14.5157645 0.774303153,17.0070076 1.42539109,17.7009379 C10.9743518,27.5747555 41.0804481,27.5747555 51.4131524,17.7009379 C52.2727296,16.9422579 52.621648,14.4510148 52.4599076,10.2272086 L0.834337757,10.2272086 Z" id="Path-38" fill="#FCBD22"></path>
                                        <ellipse id="Oval-10" fill="#FDF761" cx="26.6234414" cy="10.6205627" rx="25.840399" ry="10.6205627"></ellipse>
                                        <g id="Oval-10" opacity="0.288727679">
                                            <use fill="black" fill-opacity="1" filter="url(#filter-30)" xlink:href="#path-29"></use>
                                            <use fill="#FFFFFF" fill-rule="evenodd" xlink:href="#path-29"></use>
                                        </g>
                                        <g id="Oval-10">
                                            <use fill="black" fill-opacity="1" filter="url(#filter-32)" xlink:href="#path-31"></use>
                                            <use fill="#FFCC35" fill-rule="evenodd" xlink:href="#path-31"></use>
                                        </g>
                                        <path d="M21.1931878,13.9498217 L21.4150416,11.6320182 L19.1864576,11.6447693 C18.4888125,11.3513613 18.8028216,9.65104036 19.4752205,9.57442891 L21.6199074,9.53213117 L21.8739232,6.9792952 C21.9174983,6.54679237 22.3302683,6.11917975 22.824843,6.09675568 C23.3930315,6.07090307 23.6707611,6.34189771 23.634012,6.91098537 L23.47052,9.49488353 L24.7643531,9.46842731 L24.8631295,6.86278562 C24.8726172,6.61997999 24.9549109,6.41814577 25.1115577,6.19072323 C25.3132915,6.04911061 25.5366857,5.97248437 25.7333571,5.96338448 C26.3229172,5.93603436 26.6164762,6.21265905 26.6147511,6.79338187 L26.6106807,9.00540824 L34.3012396,4.74848815 C34.9656741,4.44893115 35.6009164,6.61480292 34.7277259,7.36165468 L28.3367241,10.6373016 L35.7841792,13.7011755 C36.8447299,14.1793289 37.2323851,16.2430431 36.1892214,16.0838954 L26.6116499,12.1133548 L26.6160241,13.9927683 C26.6176418,14.4851488 26.1523969,14.8598676 25.5692485,14.8525697 C25.0154009,14.845588 24.5905127,14.4639983 24.6065487,13.9774091 L24.6872693,11.6117225 L23.3401679,11.6203048 L23.2006142,13.9662748 C23.1673756,14.5365507 22.801435,14.8171871 22.1318776,14.8084426 C21.5498304,14.8007822 21.1481106,14.4265658 21.1931878,13.9498217 Z" id="¥" fill="#FFAE33"></path>
                                    </g>
                                    <g id="1" transform="translate(110.837949, 241.944553) rotate(-26.000000) translate(-110.837949, -241.944553) translate(84.337949, 228.944553)">
                                        <path d="M0.834337757,10.2272086 C0.577285375,14.5157645 0.774303153,17.0070076 1.42539109,17.7009379 C10.9743518,27.5747555 41.0804481,27.5747555 51.4131524,17.7009379 C52.2727296,16.9422579 52.621648,14.4510148 52.4599076,10.2272086 L0.834337757,10.2272086 Z" id="Path-38" fill="#FCBD22"></path>
                                        <ellipse id="Oval-10" fill="#FDF761" cx="26.6234414" cy="10.6205627" rx="25.840399" ry="10.6205627"></ellipse>
                                        <g id="Oval-10" opacity="0.288727679">
                                            <use fill="black" fill-opacity="1" filter="url(#filter-34)" xlink:href="#path-33"></use>
                                            <use fill="#FFFFFF" fill-rule="evenodd" xlink:href="#path-33"></use>
                                        </g>
                                        <g id="Oval-10">
                                            <use fill="black" fill-opacity="1" filter="url(#filter-36)" xlink:href="#path-35"></use>
                                            <use fill="#FFCC35" fill-rule="evenodd" xlink:href="#path-35"></use>
                                        </g>
                                        <path d="M21.1931878,13.9498217 L21.4150416,11.6320182 L19.1864576,11.6447693 C18.4888125,11.3513613 18.8028216,9.65104036 19.4752205,9.57442891 L21.6199074,9.53213117 L21.8739232,6.9792952 C21.9174983,6.54679237 22.3302683,6.11917975 22.824843,6.09675568 C23.3930315,6.07090307 23.6707611,6.34189771 23.634012,6.91098537 L23.47052,9.49488353 L24.7643531,9.46842731 L24.8631295,6.86278562 C24.8726172,6.61997999 24.9549109,6.41814577 25.1115577,6.19072323 C25.3132915,6.04911061 25.5366857,5.97248437 25.7333571,5.96338448 C26.3229172,5.93603436 26.6164762,6.21265905 26.6147511,6.79338187 L26.6106807,9.00540824 L34.3012396,4.74848815 C34.9656741,4.44893115 35.6009164,6.61480292 34.7277259,7.36165468 L28.3367241,10.6373016 L35.7841792,13.7011755 C36.8447299,14.1793289 37.2323851,16.2430431 36.1892214,16.0838954 L26.6116499,12.1133548 L26.6160241,13.9927683 C26.6176418,14.4851488 26.1523969,14.8598676 25.5692485,14.8525697 C25.0154009,14.845588 24.5905127,14.4639983 24.6065487,13.9774091 L24.6872693,11.6117225 L23.3401679,11.6203048 L23.2006142,13.9662748 C23.1673756,14.5365507 22.801435,14.8171871 22.1318776,14.8084426 C21.5498304,14.8007822 21.1481106,14.4265658 21.1931878,13.9498217 Z" id="¥" fill="#FFAE33"></path>
                                    </g>
                                    <g id="1" transform="translate(220.118078, 258.528469) rotate(1.000000) translate(-220.118078, -258.528469) translate(196.118078, 247.028469)">
                                        <path d="M0.100691371,9.44050021 C-0.136463648,13.29526 0.0453037976,15.5345087 0.645993708,16.1582466 C9.45580885,25.0333074 37.2315165,25.0333074 46.7644089,16.1582466 C47.5574498,15.4763086 47.8793599,13.2370599 47.7301391,9.44050021 L0.100691371,9.44050021 Z" id="Path-38" fill="#FCBD22"></path>
                                        <ellipse id="Oval-10" fill="#FDF761" cx="23.882793" cy="9.44050021" rx="23.882793" ry="9.44050021"></ellipse>
                                        <g id="Oval-10" opacity="0.288727679">
                                            <use fill="black" fill-opacity="1" filter="url(#filter-38)" xlink:href="#path-37"></use>
                                            <use fill="#FFFFFF" fill-rule="evenodd" xlink:href="#path-37"></use>
                                        </g>
                                        <g id="Oval-10">
                                            <use fill="black" fill-opacity="1" filter="url(#filter-40)" xlink:href="#path-39"></use>
                                            <use fill="#FFCC35" fill-rule="evenodd" xlink:href="#path-39"></use>
                                        </g>
                                        <path d="M18.6353502,12.2337218 L18.8379123,10.1493145 L16.8031182,10.1607815 C16.1661379,9.89691894 16.4528419,8.36781545 17.0667713,8.29891856 L19.0249637,8.26088008 L19.2568912,5.96510744 C19.2966771,5.5761564 19.6735541,5.19160316 20.1251223,5.17143713 C20.6439031,5.14818781 20.8974823,5.39189406 20.8639288,5.90367621 L20.7146535,8.22738317 L21.8959793,8.20359102 L21.9861665,5.86033003 C21.9948292,5.64197424 22.0699669,5.46046416 22.2129923,5.25594242 C22.397184,5.12858979 22.6011526,5.05967959 22.7807221,5.05149603 C23.3190161,5.02689999 23.5870483,5.27566936 23.5854731,5.79791505 L23.5817567,7.78719665 L30.6035714,3.95893631 C31.2102289,3.68954384 31.7902327,5.63731849 30.9929719,6.3089644 L25.1577094,9.25476299 L31.9575597,12.0101135 C32.9258886,12.4401182 33.2798347,14.2960222 32.3273809,14.1529003 L23.5826417,10.5821819 L23.5866355,12.2723438 C23.5881125,12.7151429 23.1633237,13.0521286 22.6308839,13.0455656 C22.1251969,13.0392869 21.7372555,12.6961223 21.7518971,12.2585312 L21.8255985,10.1310624 L20.5956364,10.1387805 L20.4682177,12.2485181 C20.4378694,12.7613688 20.1037498,13.0137459 19.4924147,13.005882 C18.9609803,12.998993 18.5941927,12.6624591 18.6353502,12.2337218 Z" id="¥" fill="#FFAE33"></path>
                                    </g>
                                    <g id="1" transform="translate(249.394788, 18.333092) rotate(-30.000000) translate(-249.394788, -18.333092) translate(229.394788, 8.833092)">
                                        <path d="M0.0827418521,7.75761086 C-0.112137265,10.9252106 0.0372278189,12.7652848 0.530837105,13.2778334 C7.77019053,20.5708016 30.5945247,20.5708016 38.4280576,13.2778334 C39.0797289,12.7174596 39.3442544,10.8773854 39.2216342,7.75761086 L0.0827418521,7.75761086 Z" id="Path-38" fill="#FCBD22"></path>
                                        <ellipse id="Oval-10" fill="#FDF761" cx="19.6253811" cy="7.75761086" rx="19.6253811" ry="7.75761086"></ellipse>
                                        <g id="Oval-10" opacity="0.288727679">
                                            <use fill="black" fill-opacity="1" filter="url(#filter-42)" xlink:href="#path-41"></use>
                                            <use fill="#FFFFFF" fill-rule="evenodd" xlink:href="#path-41"></use>
                                        </g>
                                        <g id="Oval-10">
                                            <use fill="black" fill-opacity="1" filter="url(#filter-44)" xlink:href="#path-43"></use>
                                            <use fill="#FFCC35" fill-rule="evenodd" xlink:href="#path-43"></use>
                                        </g>
                                        <path d="M15.3133617,10.0529051 L15.4798146,8.34006996 L13.8077485,8.34949286 C13.284318,8.13266714 13.5199133,6.87614581 14.024402,6.81953067 L15.6335217,6.78827303 L15.8241052,4.90175109 C15.8567987,4.58213553 16.1664926,4.2661338 16.537563,4.24956263 C16.9638645,4.23045779 17.17224,4.4307203 17.1446678,4.85127076 L17.0220028,6.76074737 L17.9927422,6.74119648 L18.0668524,4.81565159 C18.0739708,4.6362205 18.1357143,4.4870669 18.2532436,4.31900377 C18.4046008,4.21435336 18.5722094,4.15772729 18.7197684,4.15100255 C19.1621046,4.13079107 19.3823566,4.33521413 19.3810623,4.76436288 L19.3780083,6.39902971 L25.1480952,3.25320551 C25.6466083,3.03183568 26.123219,4.63239469 25.4680801,5.18431117 L20.6730274,7.60498366 L26.2607178,9.86915786 C27.0564298,10.2225088 27.3472804,11.7475743 26.5646137,11.6299656 L19.3787356,8.69577321 L19.3820174,10.0846422 C19.3832311,10.4485068 19.0341663,10.7254205 18.5966407,10.7200274 C18.1810988,10.714868 17.862313,10.4328768 17.8743445,10.0732919 L17.9349077,8.32507159 L16.924202,8.33141382 L16.8194973,10.0650638 C16.794559,10.4864923 16.5200004,10.69388 16.0176436,10.6874179 C15.5809442,10.681757 15.2795412,10.4052145 15.3133617,10.0529051 Z" id="¥" fill="#FFAE33"></path>
                                    </g>
                                    <g id="1" transform="translate(17.179415, 62.935360) rotate(43.000000) translate(-17.179415, -62.935360) translate(1.179415, 55.435360)">
                                        <path d="M0.0657912656,6.16837819 C-0.0891647023,8.68705998 0.0296012871,10.1501745 0.422089234,10.5577219 C6.17838078,16.3566446 24.3268968,16.3566446 30.5556436,10.5577219 C31.0738128,10.1121469 31.2841473,8.64903231 31.1866472,6.16837819 L0.0657912656,6.16837819 Z" id="Path-38" fill="#FCBD22"></path>
                                        <ellipse id="Oval-10" fill="#FDF761" cx="15.604904" cy="6.16837819" rx="15.604904" ry="6.16837819"></ellipse>
                                        <g id="Oval-10" opacity="0.288727679">
                                            <use fill="black" fill-opacity="1" filter="url(#filter-46)" xlink:href="#path-45"></use>
                                            <use fill="#FFFFFF" fill-rule="evenodd" xlink:href="#path-45"></use>
                                        </g>
                                        <g id="Oval-10">
                                            <use fill="black" fill-opacity="1" filter="url(#filter-48)" xlink:href="#path-47"></use>
                                            <use fill="#FFCC35" fill-rule="evenodd" xlink:href="#path-47"></use>
                                        </g>
                                        <path d="M12.1762497,7.99345594 L12.3086028,6.63151408 L10.979078,6.6390066 C10.5628781,6.46660003 10.7502091,5.46749104 11.1513477,5.42247414 L12.4308213,5.39761998 L12.5823616,3.89757299 C12.6083576,3.64343422 12.8546072,3.39216895 13.1496597,3.37899257 C13.4886286,3.36380157 13.6543161,3.52303808 13.6323924,3.85743411 L13.5348566,5.37573325 L14.3067293,5.36018758 L14.3656572,3.82911193 C14.3713174,3.68643929 14.420412,3.56784146 14.5138641,3.43420792 C14.6342141,3.35099631 14.7674862,3.30597072 14.8848161,3.30062362 C15.2365348,3.28455268 15.4116658,3.44709741 15.4106366,3.78833027 L15.4082083,5.08811746 L19.9962288,2.58675026 C20.392616,2.4107305 20.7715877,3.68339724 20.2506613,4.1222475 L16.4379283,6.04701837 L20.8809184,7.84735136 C21.5136199,8.12831441 21.7448866,9.34095332 21.1225578,9.24743812 L15.4087865,6.91434758 L15.4113961,8.01869138 C15.4123611,8.30801425 15.1348062,8.52819911 14.7869125,8.52391084 C14.456499,8.5198084 14.2030199,8.29558624 14.2125867,8.00966631 L14.2607428,6.61958829 L13.4570914,6.62463125 L13.3738367,8.00312379 C13.3540072,8.33821801 13.135695,8.50312005 12.7362516,8.49798177 C12.3890149,8.49348053 12.1493576,8.27359086 12.1762497,7.99345594 Z" id="¥" fill="#FFAE33"></path>
                                    </g>
                                </g>
                            </g>
                            <g id="美女" filter="url(#filter-49)" stroke-width="1" fill-rule="evenodd" transform="translate(231.000000, 181.000000)">
                                <path d="M38.0243378,18.0348172 C37.4506426,15.1405262 35.761382,13.8119102 35.5732013,12.7455727 C35.3850206,11.6792352 34.8140674,8.10832217 35.5732013,5.38056223 C36.3323353,2.65280228 42.2731128,0.916127562 43.9440816,0.685433774 C45.6150503,0.454739987 51.0835789,1.20557989 52.7321042,7.61365625 C54.3806294,14.0217326 53.4268036,18.2049313 57.9978549,22.8204944 C62.5689062,27.4360575 60.8784826,35.5731329 59.4381688,36.3739356 C57.9978549,37.1747383 52.9120656,38.2749142 51.3301284,36.9792798 C49.7481912,35.6836454 39.6764615,29.4885284 38.193846,27.3721216 C37.2054356,25.9611838 36.8441683,24.5998564 37.1100439,23.2881393 C38.1020366,21.7154519 38.4068012,19.9643446 38.0243378,18.0348172 Z" id="Path-54" fill="#0F2967"></path>
                                <path d="M38.8647751,8.13584939 C42.9013542,9.56879094 45.6356904,10.4820989 47.0677834,10.8757732 C48.4998765,11.2694475 48.2555644,14.0346128 46.3348472,19.1712689 C47.9165264,22.145584 49.4212488,23.6327415 50.8490144,23.6327415 C50.9021479,24.800891 48.4913147,27.6506849 45.4063041,26.7855335 C42.3212935,25.920382 39.7935227,25.3508847 40.0384296,24.0696569 C40.2833364,22.7884291 42.1271478,21.3681985 41.5205634,19.737017 C40.9139791,18.1058355 38.5710893,17.3204135 37.8636352,14.417106 C37.3919992,12.4815676 37.7257125,10.3878154 38.8647751,8.13584939 Z" id="Path-55" fill="#FEDFC3"></path>
                                <path d="M22.692662,102.96272 C25.412251,93.1162541 26.9770558,87.5880549 27.3870762,86.3781219 C28.002107,84.5632224 29.7470094,78.9829732 30.0267115,77.0576867 C30.2131795,75.7741625 30.7468502,73.8351814 31.6277234,71.2407436 C36.8387566,69.4434995 39.768524,68.210258 40.4170258,67.5410192 C41.0655276,66.8717804 38.313044,65.8630453 32.159575,64.5148138 C28.3989466,66.1584891 26.3569823,67.5718432 26.0336823,68.754876 C25.5487323,70.5294252 23.7428617,79.3671911 23.1445213,82.7426007 C22.7456277,84.9928738 22.0530049,91.6057139 21.0666531,102.581121 L22.692662,102.96272 Z" id="Path-60" fill="#FBD3B2"></path>
                                <path d="M37.4264256,23.2545027 C34.6238648,27.2441222 31.3470833,37.1215189 30.3299884,41.2082603 C29.0462807,43.6193223 25.5268913,48.2939142 19.7718202,55.232036 C19.7138416,56.5544255 20.0773979,57.2156202 20.8624891,57.2156202 C22.040126,57.2156202 32.962581,44.1821165 33.3602372,43.4544644 C33.6253414,42.969363 35.165225,38.8935881 37.979888,31.2271396 C38.2359555,26.8793476 38.051468,24.2218019 37.4264256,23.2545027 Z" id="Path-58" fill="#FBD3B2"></path>
                                <path d="M24.6359871,60.6635265 C20.8021515,62.6996526 18.5465295,64.5267395 17.8691209,66.1447871 C16.8530079,68.5718585 7.30805053,91.6995058 7.30805053,92.6045058 C7.30805053,93.5095057 8.45543842,94.0270593 9.05962909,93.997373 C9.66381976,93.9676867 13.4168403,85.8904021 14.9443017,83.1812663 C16.4717631,80.4721305 21.5344007,71.9604747 23.9780648,67.7311309 C26.084604,66.6735684 28.5545038,65.0633833 31.3877641,62.9005759 L24.6359871,60.6635265 Z" id="Path-62" fill="#FBD3B2"></path>
                                <path d="M40.4540216,23.1472208 C39.0732352,22.837361 38.1232113,22.837361 37.6039499,23.1472208 C36.8250578,23.6120105 35.9429418,25.5952242 35.9429418,32.1779986 C35.9429418,38.7607729 38.9598042,43.659637 37.0086453,47.3084265 C35.0574865,50.957216 29.9088259,51.9232261 22.0185664,54.6883913 C20.5207998,57.5214178 21.5901169,60.0060901 25.2265178,62.1424082 C32.2484088,66.0432762 37.0302485,68.2876167 39.572037,68.8754296 C43.3847197,69.757149 48.5084392,70.4681438 52.9755799,64.6080317 C57.4427205,58.7479196 55.5712584,47.8496493 53.79595,43.1838943 C52.6124111,40.073391 53.2086387,34.0569706 55.5846327,25.1346333 C52.8247517,23.9241263 51.1830938,23.4308278 50.6596592,23.6547375 C49.8745074,23.9906022 48.2282004,25.7819149 45.098818,25.7819149 C43.0125631,25.7819149 41.4642977,24.9036835 40.4540216,23.1472208 Z" id="Path-56" fill="#FEAE4C"></path>
                                <path d="M34.0611686,35.0903164 L34.0611686,42.4863203 C36.8580752,44.2409693 38.6356635,44.8993019 39.3939334,44.4613182 C40.0644047,44.0740476 40.1420372,41.2335933 39.6268308,35.9399551 L39.6268374,35.9399544 C39.4994153,34.6307192 38.5339607,33.5572009 37.2455286,33.2921048 L36.4642274,33.1313514 C35.3823209,32.9087482 34.3248069,33.6053512 34.1022037,34.6872576 C34.0749175,34.8198752 34.0611686,34.9549208 34.0611686,35.0903164 Z" id="Path-59" fill="#233771"></path>
                                <path d="M54.6879597,25.1971849 C56.5834733,24.7354166 57.4490116,25.7664108 57.2845747,28.2901676 C57.1201377,30.8139243 55.6845512,36.7280127 52.9778151,46.0324326 C52.2572891,48.5284373 51.3140698,49.5723557 50.1481572,49.1641877 C48.9822446,48.7560197 43.5346909,45.3480404 33.8054961,38.9402498 C33.5904747,38.2782749 33.7642567,37.9472874 34.3268421,37.9472874 C34.8894275,37.9472874 36.688173,38.5373711 39.7230787,39.7175385 C39.5580347,38.9461112 39.2287857,38.0998905 38.7353316,37.1788764 C38.3645339,36.0994803 39.3848513,36.2661055 39.958498,37.0091505 C40.5321448,37.7521954 41.4567557,39.8446595 41.6769338,40.6923659 C41.8971119,41.5400723 47.9773194,44.1993407 48.949262,44.1993407 C49.9212047,44.1993407 50.4859992,43.6727694 50.7172862,41.8545676 C50.9485731,40.0363659 52.641239,28.9866113 52.9778151,27.57464 C53.2021992,26.6333257 53.7722474,25.8408407 54.6879597,25.1971849 Z" id="Path-57" fill="#FBD3B2"></path>
                                <path d="M6.13385148,92.5565132 C2.40397973,90.9961134 0.378486458,90.8624741 0.057371672,92.1555953 C-0.424300508,94.0952771 2.26135058,95.0918357 3.09561157,95.4906404 C3.92987257,95.889445 7.96820973,98.7432678 8.55476215,97.3162055 C9.14131456,95.8891431 10.4300566,94.6426145 9.49240935,93.8468167 C8.86731121,93.3162848 7.74779192,92.8861836 6.13385148,92.5565132 Z" id="Path-61" fill="#031A5A"></path>
                                <path d="M20.9939227,102.948672 C17.2640509,101.388272 15.2385577,101.254632 14.9174429,102.547754 C14.4357707,104.487435 17.1214218,105.483994 17.9556828,105.882799 C18.7899438,106.281603 22.8282809,109.135426 23.4148334,107.708364 C24.0013858,106.281301 25.2901278,105.034773 24.3524806,104.238975 C23.7273824,103.708443 22.6078631,103.278342 20.9939227,102.948672 Z" id="Path-61-Copy" fill="#031A5A" transform="translate(19.772063, 104.886800) rotate(-15.000000) translate(-19.772063, -104.886800) "></path>
                            </g>
                        </g>
                    </g>
                    <g id="文案" mask="url(#mask-2)">
                        <g transform="translate(34.000000, 48.000000)">
                            <g id="Group-14" stroke-width="1" fill="none" fill-rule="evenodd" transform="translate(0.000000, 101.000000)">
                                <text id="您-的-零-钱-不-会-在-这-过-夜" font-family="PingFangSC-Regular, PingFang SC" font-size="18" font-weight="normal" line-spacing="18" fill="#FFFFFF" fill-opacity="0.696473053">
                                    <tspan x="0" y="19">您  的  零  钱  不  会  在  这  过  夜</tspan>
                                </text>
                                <circle id="Oval-12-Copy" fill="#FFFFFF" opacity="0.473493304" cx="24" cy="9" r="2"></circle>
                                <circle id="Oval-12-Copy-2" fill="#FFFFFF" opacity="0.473493304" cx="54" cy="9" r="2"></circle>
                                <circle id="Oval-12-Copy-3" fill="#FFFFFF" opacity="0.473493304" cx="84" cy="9" r="2"></circle>
                                <circle id="Oval-12-Copy-4" fill="#FFFFFF" opacity="0.473493304" cx="113" cy="9" r="2"></circle>
                                <circle id="Oval-12-Copy-5" fill="#FFFFFF" opacity="0.473493304" cx="143" cy="9" r="2"></circle>
                                <circle id="Oval-12-Copy-6" fill="#FFFFFF" opacity="0.473493304" cx="174" cy="9" r="2"></circle>
                                <circle id="Oval-12-Copy-7" fill="#FFFFFF" opacity="0.473493304" cx="204" cy="9" r="2"></circle>
                                <circle id="Oval-12-Copy-7" fill="#FFFFFF" opacity="0.473493304" cx="234" cy="9" r="2"></circle>
                                <circle id="Oval-12-Copy-7" fill="#FFFFFF" opacity="0.473493304" cx="264" cy="9" r="2"></circle>
                            </g>
                            <g id="1" stroke-width="1" fill="none" fill-rule="evenodd" transform="translate(6.000000, 0.000000)">
                                <path d="M43.776,19 L43.776,27.352 C40.5421002,27.352 2.64558236,27.352 0,27.352 L0,19 C2.544,19.288 41.616,19.288 43.776,19 Z" id="一" fill="url(#linearGradient-50)"></path>
                                <path d="M62.76,20.104 C56.68,20.168 53.048,20.264 51.864,20.392 L51.864,12.856 C53.592,13.048 93.528,13.048 95.208,12.856 L95.208,20.392 C93.992,20.264 89.848,20.168 82.776,20.104 L82.776,35.848 C82.776,36.952 88.248,36.76 88.536,35.224 C88.728,34.024 88.968,30.712 88.968,28.504 C91.704,29.8 93.288,30.28 96.024,30.712 C95.736,36.952 95.352,39.064 94.392,40.936 C93.192,43.24 90.984,43.864 84.12,43.864 C76.968,43.864 75.288,42.952 75.288,39.016 L75.288,20.104 L70.152,20.104 C70.056,25.72 69.432,29.752 68.088,33.16 C65.976,38.536 62.472,41.8 55.416,44.92 C54.168,42.376 52.536,39.88 51,38.152 C56.28,36.28 59.448,33.832 61.08,30.28 C62.232,27.832 62.712,24.76 62.76,20.104 Z M90.744,1 L90.744,8.488 C90.744,8.488 57.602962,8.488 56.376,8.488 L56.376,1 C57.9394214,1 90.744,1 90.744,1 Z" id="元" fill="url(#linearGradient-51)"></path>
                                <path d="M163.184,16.128 L176.864,16.128 C176.336,14.688 176.24,14.448 175.952,13.68 C172.4,14.256 166.928,14.832 161.84,15.216 C160.736,15.264 159.44,15.408 158.672,15.552 L158,8.256 C158.816,8.304 159.824,8.352 160.496,8.352 L161.408,8.352 C163.136,5.232 164.096,2.736 164.72,0 L172.496,1.056 C172.112,1.632 171.968,1.968 171.584,2.784 C171.008,3.984 170.096,5.712 168.752,8.064 C170.624,7.92 171.488,7.872 173.264,7.68 C172.88,6.912 172.592,6.384 171.68,4.656 L177.104,2.112 C179.024,4.896 180.224,6.96 181.952,10.512 L181.952,4.704 C181.952,2.928 181.904,1.824 181.76,0.672 L189.296,0.672 C189.152,1.728 189.104,2.544 189.104,4.32 L189.104,5.52 C191.888,4.56 191.936,4.512 193.664,3.648 C195.92,2.544 196.592,2.112 198.176,0.864 L203.12,7.056 C202.256,7.392 201.92,7.536 201.104,7.92 C196.736,9.936 193.808,11.04 189.104,12.336 L189.104,14.112 C189.104,15.12 189.44,15.264 191.792,15.264 C194.24,15.264 195.2,15.12 195.68,14.64 C195.968,14.304 196.064,13.248 196.112,10.56 C198.512,11.52 200.48,12 202.88,12.288 C202.496,17.52 202.064,19.104 200.72,20.256 C199.328,21.36 197.024,21.696 190.688,21.696 C187.376,21.696 185.84,21.552 184.496,21.168 C182.672,20.592 181.952,19.584 181.952,17.568 L181.952,13.296 L177.152,16.128 C178.592,16.08 179.12,16.08 180.128,15.984 C179.984,17.28 179.936,18.432 179.936,20.544 L179.936,39.552 C179.936,41.52 179.648,42.624 178.976,43.488 C177.968,44.688 176.144,45.264 173.216,45.264 C172.592,45.264 171.632,45.264 170.48,45.216 C170.24,42.48 169.904,41.04 169.088,38.544 C170.096,38.736 170.96,38.832 171.776,38.832 C172.544,38.832 172.976,38.64 172.976,38.256 L172.976,36.096 L167.312,36.096 L167.312,40.032 C167.312,42.384 167.36,43.824 167.552,45.696 L159.968,45.696 C160.208,43.728 160.256,42.576 160.256,40.032 L160.256,20.4 C160.256,18.768 160.208,17.472 160.112,16.032 C161.12,16.128 161.696,16.128 163.184,16.128 Z M167.264,21.936 L167.264,23.808 L172.976,23.808 L172.976,21.936 L167.264,21.936 Z M167.264,28.992 L167.264,30.912 L172.976,30.912 L172.976,28.992 L167.264,28.992 Z M189.104,26.784 L189.104,27.408 C192.944,26.256 195.776,24.96 198.368,23.088 L203.456,29.04 C197.456,31.728 194.384,32.784 189.104,34.128 L189.104,37.248 C189.104,38.256 189.776,38.544 192.32,38.544 C194.576,38.544 195.536,38.352 195.92,37.776 C196.208,37.296 196.304,36.096 196.352,32.928 C198.8,33.984 200.624,34.512 203.216,34.896 C202.88,40.512 202.448,42.048 200.96,43.392 C199.52,44.736 197.312,45.12 190.976,45.12 C186.704,45.12 184.784,44.832 183.536,44.112 C182.384,43.392 181.952,42.48 181.952,40.752 L181.952,27.216 C181.952,25.248 181.904,24.192 181.76,22.992 L189.296,22.992 C189.152,24 189.104,24.912 189.104,26.784 Z" id="能" fill="url(#linearGradient-52)"></path>
                                <path d="M244.216,34.656 L244.216,37.728 C245.224,37.824 247.288,37.872 249.112,37.872 C250.84,37.872 254.344,37.68 256.648,37.488 C255.784,40.032 255.448,41.664 255.064,44.496 C251.512,44.592 250.216,44.64 249.4,44.64 C239.944,44.64 235.864,43.392 231.832,39.264 C230.2,42.192 229.528,43.152 227.56,45.456 C225.736,43.296 225.4,42.96 223.24,41.184 C222.616,44.112 220.984,44.976 216.088,44.976 C214.84,44.976 214.072,44.928 212.536,44.832 C212.248,42 211.96,40.608 211,38.016 C212.632,38.208 213.592,38.256 214.696,38.256 C215.992,38.256 216.232,38.016 216.232,36.72 L216.232,28.8 C214.84,29.184 214.84,29.184 213.592,29.52 C213.016,29.712 212.968,29.712 212.392,29.904 C212.104,30 212.104,30 211.816,30.048 L211.144,22.752 C212.392,22.656 213.784,22.416 216.232,21.744 L216.232,14.784 L214.888,14.784 C213.784,14.784 212.872,14.832 211.48,14.976 L211.48,7.92 C212.728,8.112 213.64,8.16 214.984,8.16 L216.232,8.16 L216.232,4.944 C216.232,2.352 216.184,1.392 215.992,0 L223.624,0 C223.432,1.44 223.384,2.4 223.384,4.896 L223.384,8.16 L224.632,8.16 C225.592,8.16 225.784,8.16 226.792,8.016 L226.792,14.88 C226.024,14.832 225.4,14.784 224.632,14.784 L223.384,14.784 L223.384,19.68 C224.248,19.392 224.872,19.152 226.264,18.672 L226.264,25.344 C224.776,25.968 224.44,26.064 223.384,26.496 L223.384,39.264 C226.408,36.144 228.28,32.016 228.808,27.312 L235.768,28.848 C235.624,29.184 235.384,30 235.048,31.152 C234.904,31.776 234.76,32.256 234.424,33.216 C235.288,34.368 235.912,34.992 237.16,35.76 L237.16,26.4 L230.632,26.4 C229.144,26.4 228.136,26.448 227.176,26.544 L227.176,20.016 C228.376,20.112 229.624,20.16 231.496,20.16 L250.984,20.16 C253.096,20.16 254.2,20.112 255.592,19.968 L255.592,26.592 C254.248,26.448 252.952,26.4 250.984,26.4 L244.216,26.4 L244.216,28.8 L249.88,28.8 C251.896,28.8 252.904,28.752 254.248,28.608 L254.248,34.848 C252.808,34.704 251.896,34.656 249.88,34.656 L244.216,34.656 Z M248.104,18.624 L231.832,18.624 C230.104,18.624 229.096,18.672 228.136,18.72 C228.136,18.528 228.184,16.848 228.28,13.728 L228.28,5.472 C228.28,3.6 228.232,2.112 228.088,0.912 C229.576,1.056 231.208,1.152 232.888,1.152 L248.44,1.152 C250.264,1.152 251.752,1.056 253.096,0.912 C252.952,2.112 252.856,3.84 252.856,5.808 L252.856,13.776 C252.856,15.84 252.904,16.992 253.048,18.768 C251.512,18.672 250.168,18.624 248.104,18.624 Z M235.192,6.528 L235.192,8.112 L245.848,8.112 L245.848,6.528 L235.192,6.528 Z M235.192,12.288 L235.192,13.872 L245.848,13.872 L245.848,12.288 L235.192,12.288 Z" id="提" fill="url(#linearGradient-53)"></path>
                                <path d="M308.944,1 L308.944,28.216 L302.856,28.216 L302.856,6.8 L290.376,6.8 L290.376,28.216 L284.432,28.216 L284.432,1 L308.944,1 Z M306.312,43.144 L301.368,43.144 C298.2,43.144 296.664,41.512 296.664,38.248 L296.664,31.912 C296.088,33.352 295.464,34.648 294.744,35.8 C292.344,39.448 288.456,42.232 283.08,44.2 L280.392,39.976 C285.624,37.96 289.176,35.464 291,32.536 C292.824,29.32 293.88,25.144 294.072,20.056 L294.072,8.68 L298.824,8.68 L298.824,20.056 C298.728,23.032 298.392,25.672 297.816,28.072 L301.656,28.072 L301.656,37.144 C301.656,38.104 302.04,38.584 302.808,38.584 L305.4,38.584 C305.928,38.584 306.312,38.344 306.552,37.864 C306.84,37.288 307.032,35.752 307.128,33.16 L311.784,34.648 C311.448,38.776 310.872,41.272 310.056,42.04 C309.192,42.76 307.944,43.144 306.312,43.144 Z M265.008,16.744 L269.952,16.744 L269.952,6.952 L264.336,6.952 L264.336,1.2 L282.56,1.2 L282.56,6.952 L277.04,6.952 L277.04,16.744 L281.888,16.744 L281.888,21.544 L277.04,21.544 L277.04,28.52 C278.912,27.848 280.784,27.176 282.608,26.408 L282.608,33.208 C277.808,35.128 270.672,36.76 265.2,38.104 L264,31.304 C266.016,30.92 268.032,30.488 269.952,30.008 L269.952,21.544 L265.008,21.544 L265.008,16.744 Z" id="现" fill="url(#linearGradient-54)"></path>
                                <path d="M121.136,28.368 L125.936,26.448 C126.848,28.128 127.424,29.424 128.48,32.064 C130.736,27.696 132.08,23.088 132.8,17.472 C130.832,17.472 129.968,17.52 128.672,17.664 L128.672,10.656 C127.136,10.56 126.416,10.56 124.448,10.56 L109.568,10.56 C107.36,10.56 106.4,10.608 104.912,10.704 L104.912,3.696 C106.352,3.888 107.072,3.936 109.568,3.936 L113.6,3.936 L113.6,3.456 C113.6,1.824 113.552,1.008 113.36,0 L121.232,0 C121.04,0.912 121.04,1.68 121.04,3.312 L121.04,3.936 L124.448,3.936 C126.944,3.936 127.808,3.888 129.296,3.696 L129.296,10.608 C130.448,10.704 131.216,10.704 133.328,10.704 C133.472,8.4 133.52,6.624 133.52,4.704 C133.52,2.64 133.424,1.488 133.28,0.096 L140.72,0.096 C140.624,1.008 140.576,1.632 140.528,3.12 L144.752,0.24 C147.008,2.784 148.16,4.368 149.936,7.344 L145.52,10.704 C147.536,10.704 148.304,10.656 149.6,10.512 L149.6,17.664 C148.208,17.52 147.008,17.472 144.704,17.472 L139.664,17.472 L139.376,19.632 L143.936,19.632 C143.792,20.64 143.744,21.504 143.744,23.04 L143.696,37.056 C143.696,37.68 143.84,37.824 144.416,37.824 C144.992,37.824 145.232,37.584 145.376,36.816 C145.472,36.048 145.568,33.888 145.568,30.768 C145.568,30.288 145.52,29.616 145.52,28.8 C147.392,30.096 148.352,30.576 150.32,31.2 C150.128,38.544 149.84,40.992 148.928,42.576 C148.016,44.16 146.48,44.688 142.88,44.688 C138.512,44.688 137.12,43.728 137.12,40.752 L137.12,40.464 L137.36,28.656 C135.2,35.76 132.272,41.04 127.904,45.792 C125.936,43.152 124.784,41.856 122.576,39.936 C124.448,38.064 125.792,36.384 127.328,34.08 L123.632,36.048 C122.864,32.976 122.48,31.92 121.136,28.704 L121.136,38.976 C121.136,40.992 120.752,42.528 120.08,43.344 C119.12,44.4 117.44,44.832 114.368,44.832 C113.888,44.832 113.168,44.784 112.256,44.736 C112.016,42.096 111.776,40.944 111.056,38.832 C110.672,40.08 110.432,40.8 109.712,42.768 C107.84,40.992 106.352,39.936 104,38.688 C106.016,34.416 106.736,31.632 107.072,26.832 L112.784,28.08 C112.496,32.592 112.16,35.04 111.296,38.064 C111.872,38.112 112.592,38.16 113.024,38.16 C113.84,38.16 114.08,37.968 114.08,37.248 L114.08,25.872 L111.296,25.872 C109.568,25.872 107.984,25.92 106.688,26.016 C106.784,24.768 106.832,23.232 106.832,21.6 L106.832,16.224 C106.832,14.64 106.784,13.296 106.688,12 C107.936,12.096 109.52,12.144 111.44,12.144 L123.056,12.144 C124.928,12.144 126.416,12.096 127.712,12 C127.568,13.104 127.52,14.16 127.52,16.128 L127.52,21.744 C127.52,23.808 127.568,24.864 127.712,26.016 C126.368,25.92 124.928,25.872 123.296,25.872 L121.136,25.872 L121.136,28.368 Z M140.336,10.704 L144.176,10.704 C142.784,8.016 142.208,7.104 140.48,4.704 C140.48,7.68 140.432,8.592 140.336,10.704 Z M113.936,17.904 L113.936,20.064 L120.464,20.064 L120.464,17.904 L113.936,17.904 Z" id="就" fill="url(#linearGradient-55)"></path>
                            </g>
                            <rect id="Rectangle-5" fill="#5E6DFF" fill-rule="evenodd" x="0" y="51" width="108" height="36"></rect>
                            <text id="一元提现" fill="none" font-family="PingFangSC-Semibold, PingFang SC" font-size="24" font-weight="500" line-spacing="24">
                                <tspan x="6" y="82" fill="#FFFFFF">一元提现</tspan>
                            </text>
                        </g>
                    </g>
                </g>
            </g>
        </g>
    </g>
</svg>