<?xml version="1.0" encoding="UTF-8"?>
<svg width="60px" height="60px" viewBox="0 0 60 60" version="1.1" xmlns="http://www.w3.org/2000/svg" xmlns:xlink="http://www.w3.org/1999/xlink">
    <!-- Generator: Sketch 50.2 (55047) - http://www.bohemiancoding.com/sketch -->
    <title>支付宝 (1)</title>
    <desc>Created with Sketch.</desc>
    <defs></defs>
    <g id="Page-1" stroke="none" stroke-width="1" fill="none" fill-rule="evenodd">
        <g id="我的-提现" transform="translate(-30.000000, -246.000000)">
            <g id="支付宝" transform="translate(0.000000, 216.000000)">
                <rect id="Rectangle-2-Copy-3" fill="#FFFFFF" x="0" y="0" width="750" height="120"></rect>
                <g id="支付宝-(1)" transform="translate(30.000000, 30.000000)" fill="#00A0E9">
                    <g id="Shape">
                        <path d="M34.4625062,39.3504673 C34.4625062,39.3504673 30.0010849,42.9212941 28.3777689,43.8568862 C26.9507404,44.6788209 25.6116219,45.2249984 24.4195872,45.604795 C23.2254413,45.9835359 22.1792587,46.2218178 21.2811567,46.3205203 C20.3830547,46.4192228 19.6395432,46.4814471 19.0494491,46.5103599 C18.9936183,46.5372202 18.9228328,46.5521751 18.8391452,46.5521751 L18.1652462,46.5521751 C16.621278,46.5521751 15.168504,46.3698423 13.8068656,46.0039449 C12.4442302,45.6391033 11.2585879,45.09838 10.247886,44.3826546 C9.23718411,43.6669879 8.43666882,42.7678153 7.84768896,41.687307 C7.25865042,40.605743 6.96360337,39.3492357 6.96360337,37.9179609 C6.99151879,36.6829183 7.3283803,35.5594805 7.97324961,34.5488205 C8.62023016,33.5381018 9.45499461,32.6818001 10.4797129,31.9790357 C11.5044312,31.2762713 12.6416907,30.7439931 13.8917261,30.3781544 C15.1407059,30.0133714 16.397075,29.8598928 17.6610682,29.9157245 C18.8960903,29.9714976 20.0891807,30.1185251 21.2405152,30.3567483 C22.3917911,30.5959685 23.4948014,30.8835724 24.5463795,31.2205568 C25.5989545,31.5574826 26.5956986,31.9222069 27.5367293,32.31602 C28.4776427,32.7097745 29.3682966,33.0885741 30.2105091,33.4534157 C30.5473706,33.5939334 30.8982485,33.7346271 31.2630254,33.8750861 C31.6278611,34.0156038 32.0066543,34.1562388 32.4004609,34.2967565 C33.2148166,33.2581219 33.9015004,32.2408935 34.4636792,31.2430771 C35.0248609,30.2462577 35.4883974,29.3343002 35.853233,28.5059143 C36.2191242,27.6775285 36.5001549,26.9833852 36.6966184,26.4211385 C36.8929646,25.8599474 37.0184666,25.4672485 37.075353,25.2419276 L18.7962165,25.2419278 L18.7962165,23.2204318 L27.4304044,23.2204318 L27.4304044,18.5465763 L15.4271321,18.5465763 L15.4271321,16.5250803 L27.4303459,16.5250803 L27.4303459,12.7342109 C27.4303459,12.4820883 27.5698056,12.2781735 27.8509536,12.1236979 C28.132043,11.9691636 28.4550641,11.8640099 28.8198411,11.8082368 C29.2415044,11.7234923 29.717943,11.6816771 30.2511507,11.6816771 L33.4936189,11.6816771 L33.4936189,16.5250804 L45.8326972,16.5250804 L45.8326972,18.5465764 L33.4936189,18.5465764 L33.4936189,23.2204318 L43.2994328,23.2204318 C43.301544,23.2065326 43.3037139,23.192516 43.3058252,23.1786753 L43.3058252,23.2204318 L43.2994328,23.2204318 C43.1009167,24.4715437 42.7672808,25.7912723 42.295182,27.1797349 C41.9024896,28.3868616 41.3199022,29.762422 40.5472436,31.3064159 C39.774761,32.8504097 38.7575494,34.4373331 37.4936736,36.0661302 C37.4936736,36.0661302 47.1589136,40.6896667 57.3616423,42.3173496 C59.0558611,38.5597915 60,34.3890668 60,29.9995309 C60.0000585,13.4315797 46.5676464,0 30.0000292,0 C13.4313565,0 0,13.4315797 0,29.9994135 C0,46.567306 13.4313565,60 30.0000292,60 C40.2768277,60 49.3466367,54.8314003 54.7532525,46.9524981 C49.2597236,45.7551067 43.4238205,43.3312351 34.4625062,39.3504673 Z M10.8787977,38.0028228 C10.7661391,43.1509548 16.5901371,43.5329214 17.488239,43.5608372 C20.4571245,43.6519743 22.8541546,42.5307064 24.7200297,41.4223409 C26.5869604,40.312861 29.6320268,37.4490799 29.745741,37.3503187 C29.8573439,37.2516162 29.9700026,37.1475181 30.0816055,37.0348577 C29.2672498,36.5852714 28.4668518,36.1710492 27.6814085,35.7923083 C26.8960238,35.4135673 22.9014232,33.2675642 19.3573396,32.9017256 C12.6460305,32.2054123 10.9131641,36.4373056 10.8787977,38.0028228 Z" fill-rule="nonzero"></path>
                    </g>
                </g>
            </g>
        </g>
    </g>
</svg>