<?xml version="1.0" encoding="UTF-8"?>
<svg width="90px" height="90px" viewBox="0 0 90 90" version="1.1" xmlns="http://www.w3.org/2000/svg" xmlns:xlink="http://www.w3.org/1999/xlink">
    <!-- Generator: Sketch 50.2 (55047) - http://www.bohemiancoding.com/sketch -->
    <title>批发采购</title>
    <desc>Created with Sketch.</desc>
    <defs>
        <linearGradient x1="50%" y1="0%" x2="50%" y2="100%" id="linearGradient-1">
            <stop stop-color="#4667FB" offset="0%"></stop>
            <stop stop-color="#634FFD" offset="100%"></stop>
        </linearGradient>
        <linearGradient x1="-12.2732691%" y1="50%" x2="-12.2732691%" y2="139.306626%" id="linearGradient-2">
            <stop stop-color="#FFFFFF" offset="0%"></stop>
            <stop stop-color="#FFFFFF" stop-opacity="0.573426178" offset="100%"></stop>
        </linearGradient>
    </defs>
    <g id="Page-1" stroke="none" stroke-width="1" fill="none" fill-rule="evenodd">
        <g id="发布-copy-4" transform="translate(-480.000000, -508.000000)">
            <g id="3" transform="translate(19.000000, 508.000000)">
                <g id="批发采购" transform="translate(461.000000, 0.000000)">
                    <g>
                        <circle id="Oval" fill="url(#linearGradient-1)" cx="45" cy="45" r="45"></circle>
                        <g id="采购申请单" transform="translate(21.000000, 23.000000)">
                            <path d="M45.0000001,21.6 L44.8140001,21.6 L41.3340001,38.2684 C41.5128431,39.7186113 41.0230389,41.1714427 39.9866742,42.2647664 C38.9503095,43.3580901 37.4650114,43.9889136 35.9010001,44 L12.171,44 C10.6069887,43.9889136 9.12169056,43.3580901 8.08532588,42.2647664 C7.04896121,41.1714427 6.55915694,39.7186113 6.73799999,38.2684 L3.25799999,21.6 L3.00000001,21.6 C1.34314576,21.6 3.74700272e-16,20.3463973 0,18.8 C-3.74700272e-16,17.2536027 1.34314576,16 3.00000001,16 L45.0000001,16 C46.6568543,16 48,17.2536027 48,18.8 C48,20.3463973 46.6568543,21.6 45.0000001,21.6 Z M16.4166667,36 L30.5833333,36 C31.3657367,36 32,35.3284271 32,34.5 C32,33.6715729 31.3657367,33 30.5833333,33 L16.4166667,33 C15.6342633,33 15,33.6715729 15,34.5 C15,35.3284271 15.6342633,36 16.4166667,36 Z M34.5,25 L13.5,25 C12.6715729,25 12,25.6715729 12,26.5 C12,27.3284271 12.6715729,28 13.5,28 L34.5,28 C35.3284271,28 36,27.3284271 36,26.5 C36,25.6715729 35.3284271,25 34.5,25 Z" id="Shape" fill="#FFFFFF" fill-rule="nonzero"></path>
                            <path d="M36.1210479,13.2205029 L27.9221379,5.02159291 C27.1467851,4.29835616 26.8278587,3.20967655 27.0903995,2.18239099 C27.3529404,1.15510543 28.1551054,0.352940427 29.182391,0.0903995494 C30.2096765,-0.172141328 31.2983561,0.146785107 32.0215929,0.922137873 L40.220503,9.12104795 C41.2864048,10.263758 41.2554328,12.0454858 40.1504593,13.1504593 C39.0454858,14.2554328 37.263758,14.2864047 36.1210479,13.2205029 Z" id="Path" fill="url(#linearGradient-2)"></path>
                            <path d="M11.8999126,13.2859764 C10.7220647,14.2948397 8.96613736,14.2270935 7.86952193,13.1304781 C6.7729065,12.0338626 6.70516028,10.2779353 7.71402363,9.10008742 L16.1000878,0.714023332 C17.2779356,-0.29483972 19.0338628,-0.227093376 20.1304781,0.86952193 C21.2270934,1.96613724 21.2948397,3.72206436 20.2859767,4.89991223 L11.8999126,13.2859764 Z" id="Path" fill="url(#linearGradient-2)"></path>
                        </g>
                    </g>
                </g>
            </g>
        </g>
    </g>
</svg>