<?xml version="1.0" encoding="UTF-8"?>
<svg width="90px" height="90px" viewBox="0 0 90 90" version="1.1" xmlns="http://www.w3.org/2000/svg" xmlns:xlink="http://www.w3.org/1999/xlink">
    <!-- Generator: Sketch 50.2 (55047) - http://www.bohemiancoding.com/sketch -->
    <title>二手闲置</title>
    <desc>Created with Sketch.</desc>
    <defs>
        <linearGradient x1="50%" y1="0%" x2="50%" y2="100%" id="linearGradient-1">
            <stop stop-color="#66DD07" offset="0%"></stop>
            <stop stop-color="#31AB00" offset="100%"></stop>
        </linearGradient>
        <linearGradient x1="42.2723471%" y1="8.49558144%" x2="86.0025178%" y2="61.4036848%" id="linearGradient-2">
            <stop stop-color="#FFFFFF" offset="0%"></stop>
            <stop stop-color="#FFFFFF" stop-opacity="0.661486639" offset="100%"></stop>
        </linearGradient>
        <linearGradient x1="50%" y1="0%" x2="50%" y2="80.5432291%" id="linearGradient-3">
            <stop stop-color="#FFFFFF" offset="0%"></stop>
            <stop stop-color="#FFFFFF" stop-opacity="0.731431159" offset="100%"></stop>
        </linearGradient>
    </defs>
    <g id="Page-1" stroke="none" stroke-width="1" fill="none" fill-rule="evenodd">
        <g id="发布-copy-4" transform="translate(-180.000000, -158.000000)">
            <g id="1" transform="translate(19.000000, 158.000000)">
                <g id="二手闲置" transform="translate(161.000000, 0.000000)">
                    <g>
                        <circle id="Oval" fill="url(#linearGradient-1)" cx="45" cy="45" r="45"></circle>
                        <g id="我的闲置" transform="translate(20.000000, 22.000000)" fill-rule="nonzero">
                            <path d="M21.0810811,3.24528649 L11.3513514,4.04812529 C9.18918917,4.31573825 7.70270271,6.32283516 7.97297301,8.46373859 L8.10810812,9.66799679 C8.26895329,10.8473297 8.39098239,11.669742 8.47419544,12.1352337 C9.63137827,12.1400349 18.2467346,9.61972046 18.2467346,9.61972046 C18.2467346,9.61972046 21.0810811,3.24528649 21.0810811,3.24528649 Z" id="Shape" fill="url(#linearGradient-2)"></path>
                            <path d="M40.8108108,7.2594804 C40.9459459,5.78760932 40.6756757,4.44954469 39.7297297,3.24528649 C38.9189189,2.17483481 37.5675675,1.37199602 36.2162162,1.23818958 L26.7567568,0.0339313832 C24.3243244,-0.233681572 22.0270271,1.10438306 21.0810811,3.24528649 C19.3681729,7.10000091 18.4202118,9.22528526 18.2371979,9.62113953 C20.6166692,10.2141009 38.8189777,11.8655142 39.7297297,12.038065 C40.01531,11.2746408 40.3756703,9.68177924 40.8108108,7.2594804 Z" id="Shape" fill="url(#linearGradient-3)"></path>
                            <path d="M46.6216216,9.53419027 C48.5135135,9.53419027 50.0654297,11.3034083 50.0654297,13.5551758 C50.0654297,15.8069432 48.7837838,17.5063202 47.2972973,17.7739332 L47.2972973,40.9787092 C47.2972973,44.3238707 44.5945946,47 41.2162162,47 L8.78378376,47 C5.40540541,47 2.70270271,44.3238707 2.70270271,40.9787092 L2.70270271,17.7739332 C1.21621624,17.5063203 0.0844726562,15.7959015 0.0844726562,13.5551758 C0.0844726563,11.31445 1.48648654,9.66799679 3.37837842,9.66799679 L46.6216216,9.53419027 Z M43.2432432,40.9787092 L43.2432432,18.576772 L6.75675677,18.576772 L6.75675677,40.9787092 C6.75675677,42.0491609 7.70270271,42.9858061 8.78378376,42.9858061 L41.2162162,42.9858061 C42.2972973,42.9858061 43.2432432,42.0491609 43.2432432,40.9787092 Z" id="Shape" fill="#FFFFFF"></path>
                            <path d="M16.2,27 L33.8,27 C34.9733333,27 36,26.0666667 36,25 C36,23.9333334 34.9733333,23.0000001 33.8,23 L16.2,23 C15.0266667,23 14,23.9333333 14,25 C14,26.0666667 15.0266667,27 16.2,27 Z" id="Shape" fill="#FFFFFF"></path>
                        </g>
                    </g>
                </g>
            </g>
        </g>
    </g>
</svg>