<?xml version="1.0" encoding="UTF-8"?>
<svg width="90px" height="90px" viewBox="0 0 90 90" version="1.1" xmlns="http://www.w3.org/2000/svg" xmlns:xlink="http://www.w3.org/1999/xlink">
    <!-- Generator: Sketch 50.2 (55047) - http://www.bohemiancoding.com/sketch -->
    <title>征婚交友</title>
    <desc>Created with Sketch.</desc>
    <defs>
        <linearGradient x1="50%" y1="0%" x2="50%" y2="90.9180664%" id="linearGradient-1">
            <stop stop-color="#45EAC4" offset="0%"></stop>
            <stop stop-color="#2CC0D6" offset="100%"></stop>
        </linearGradient>
        <linearGradient x1="50%" y1="72.5778963%" x2="50%" y2="106.03018%" id="linearGradient-2">
            <stop stop-color="#FFFFFF" offset="0%"></stop>
            <stop stop-color="#ECECEC" stop-opacity="0.635586504" offset="100%"></stop>
        </linearGradient>
        <linearGradient x1="50.0408113%" y1="0%" x2="50.0408113%" y2="37.9839428%" id="linearGradient-3">
            <stop stop-color="#D7D7D7" stop-opacity="0.851534194" offset="0%"></stop>
            <stop stop-color="#FFFFFF" offset="100%"></stop>
        </linearGradient>
    </defs>
    <g id="Page-1" stroke="none" stroke-width="1" fill="none" fill-rule="evenodd">
        <g id="发布-copy-4" transform="translate(-480.000000, -158.000000)">
            <g id="1" transform="translate(19.000000, 158.000000)">
                <g id="征婚交友" transform="translate(461.000000, 0.000000)">
                    <g>
                        <circle id="Oval" fill="url(#linearGradient-1)" cx="45" cy="45" r="45"></circle>
                        <g id="性别-(1)" transform="translate(23.000000, 23.000000)">
                            <path d="M35.6402897,19.9974083 L35.6402897,6.67062725 L33.9932738,8.33380187 C33.5089748,8.82266221 32.7240491,8.82266221 32.2398025,8.33380187 L31.3632243,7.44857403 C30.8789252,6.95955468 30.8789252,6.16697867 31.3632243,5.67801233 L36.6233234,0.36664525 C37.107465,-0.122215083 37.8925481,-0.122215083 38.3766897,0.36664525 L39.2533729,1.2518731 C39.2534429,1.2518731 40.7146165,2.72725284 43.6368938,5.67801233 C44.1210354,6.16703167 44.1210354,6.95960769 43.6368938,7.44857403 L42.7601056,8.33380187 C42.275964,8.82266221 41.4908809,8.82266221 41.0067393,8.33380187 L39.3597234,6.67073326 L39.3597234,19.9974083 C39.3140324,20.0000758 35.6867784,20.001572 35.6402897,19.9974083 Z" id="Shape" fill="url(#linearGradient-2)" fill-rule="nonzero"></path>
                            <path d="M14.4000215,25.0005995 L14.4000215,33.0395062 L20.7333369,33.0395062 C21.4329271,33.0395062 22,33.5968621 22,34.2844644 L22,35.5294227 C22,36.2170251 21.4329271,36.774381 20.7333369,36.774381 L14.4000215,36.774381 L14.4000215,43.7550417 C14.4000215,44.4426441 13.8329485,45 13.1333584,45 L11.8666953,45 C11.1671051,45 10.6000322,44.4426441 10.6000322,43.7550417 L10.6000322,36.774381 L4.26666309,36.774381 C3.56707293,36.774381 3,36.2170251 3,35.5294227 L3,34.2844644 C3,33.5968621 3.56707293,33.0395062 4.26666309,33.0395062 L10.5999785,33.0395062 L10.5999785,25.0005995 C10.6031011,25.0020556 14.3987263,24.9986993 14.4000215,25.0005995 Z" id="Combined-Shape" fill="url(#linearGradient-3)"></path>
                            <path d="M10.9821063,25.8680623 C4.76318851,24.8948279 0,19.5218451 0,13.0202308 C0,5.82936774 5.8203101,0 13,0 C20.1796899,0 26,5.82936774 26,13.0202308 C26,19.5218451 21.2366377,24.8946538 15.0178937,25.8680623 C15.0217693,25.8979978 14.0243474,26.0004038 13,25.9999988 C12.3353342,25.999736 11.662703,25.9557572 10.9821063,25.8680623 Z M13,4.11164266 C8.08750741,4.11164266 4.10525401,8.10009329 4.10525401,13.0202308 C4.10525401,17.9403682 8.08750741,21.9288189 13,21.9288189 C17.9123767,21.9288189 21.894746,17.9403682 21.894746,13.0202308 C21.894746,8.10009329 17.9123767,4.11164266 13,4.11164266 Z" id="Combined-Shape" fill="#FFFFFF"></path>
                            <path d="M52,31.9727019 C52,39.1674681 46.1797029,45 39.000029,45 C31.8203551,45 26,39.1674681 26,31.9727019 C26,25.4675585 30.7631779,20.0917754 36.9821398,19.1180127 C36.978503,19.0905312 38.064604,19.0019661 39,19.0000408 C40.0763355,18.9978254 41.021894,19.0863904 41.0178023,19.1180127 C47.2367642,20.0917754 52,25.4675585 52,31.9727019 Z M38.999971,23.0592783 C34.0876053,23.0592783 30.1052449,27.0500099 30.1052449,31.9727019 C30.1052449,36.89551 34.0876053,40.8861256 38.999971,40.8861256 C43.9123368,40.8861256 47.8946972,36.89551 47.8946972,31.9727019 C47.8946972,27.0500099 43.9123368,23.0592783 38.999971,23.0592783 Z" id="Shape" fill="#FFFFFF" fill-rule="nonzero"></path>
                        </g>
                    </g>
                </g>
            </g>
        </g>
    </g>
</svg>