<?xml version="1.0" encoding="UTF-8"?>
<svg width="90px" height="90px" viewBox="0 0 90 90" version="1.1" xmlns="http://www.w3.org/2000/svg" xmlns:xlink="http://www.w3.org/1999/xlink">
    <!-- Generator: Sketch 50.2 (55047) - http://www.bohemiancoding.com/sketch -->
    <title>休闲娱乐</title>
    <desc>Created with Sketch.</desc>
    <defs>
        <linearGradient x1="50%" y1="0%" x2="50%" y2="91.3045469%" id="linearGradient-1">
            <stop stop-color="#7ECCFF" offset="0%"></stop>
            <stop stop-color="#00AAFF" offset="100%"></stop>
        </linearGradient>
        <linearGradient x1="50%" y1="0%" x2="50%" y2="35.5350889%" id="linearGradient-2">
            <stop stop-color="#FFFFFF" stop-opacity="0.842929121" offset="0%"></stop>
            <stop stop-color="#FFFFFF" offset="100%"></stop>
        </linearGradient>
    </defs>
    <g id="Page-1" stroke="none" stroke-width="1" fill="none" fill-rule="evenodd">
        <g id="发布-copy-4" transform="translate(-180.000000, -508.000000)">
            <g id="3" transform="translate(19.000000, 508.000000)">
                <g id="休闲娱乐" transform="translate(161.000000, 0.000000)">
                    <g>
                        <circle id="Oval" fill="url(#linearGradient-1)" cx="45" cy="45" r="45"></circle>
                        <g id="咖啡" transform="translate(19.000000, 18.000000)">
                            <path d="M3.05218956,17.1564077 L40.95021,17.1564077 C41.5542891,17.0312815 42.1583683,17 42.7942412,17 C45.6238752,17 48.1673665,18.1261352 50.0113977,19.9404642 C51.8554289,21.7547931 53,24.2885974 53,27.0413724 C53,29.7941473 51.8554289,32.3279516 50.0113977,34.1422805 C48.1673665,35.9566095 45.5920816,37.0827447 42.7942412,37.0827447 C40.95021,37.0827447 39.2333533,36.6135217 37.7390522,35.7689203 C36.785243,37.4581231 35.7360528,39.0534813 34.5596881,40.617558 L46.3233353,40.617558 L39.2333533,48 L7.089982,48 L0,40.617558 L11.5410918,40.617558 C6.45410918,33.8607467 3.49730054,26.0716448 3.05218956,17.1564077 Z M9,23.7113402 C9.79113924,28.5979381 12.1012658,33.8556701 14.8544304,38 L19,35.371134 C16.6582278,31.8453608 14.5696203,27.1752577 13.9050633,23 L9,23.7113402 Z M42.9541985,22.0647059 C42.370229,25.5911765 41.4083969,28.9558824 40,32.1264706 C40.9274809,32.6764706 41.9923664,33 43.1603053,33 C44.7748092,33 46.2175573,32.3852941 47.2824427,31.3823529 C48.3473282,30.3794118 49,29.0205882 49,27.5 C49,25.9794118 48.3473282,24.6205882 47.2824427,23.6176471 C46.2175573,22.6147059 44.7748092,22 43.1603053,22 C43.0916031,22.0647059 43.0229008,22.0647059 42.9541985,22.0647059 Z" id="Shape" fill="url(#linearGradient-2)" fill-rule="nonzero"></path>
                            <path d="M34.2104022,18.0888672 C28.0981956,5.33724835 35.4680578,12.5734298 33.7073399,4.09650135 C37.4551538,11.848906 31.5944784,7.36591498 34.2104022,18.0888672 Z" id="Path" fill="#FFFFFF"></path>
                            <path d="M26.6034025,14.5907757 C23.9593241,3.86782352 29.8518416,8.35081452 26.0997685,0.598409887 C27.8624874,9.07533832 20.4842497,1.87538308 26.6034025,14.5907757 Z" id="Path" fill="#FFFFFF"></path>
                            <path d="M18.9826919,16.9228367 C12.8904977,4.20744405 20.2362298,11.4073993 18.4812768,2.93047086 C22.2418905,10.6828755 16.3753331,6.1998845 18.9826919,16.9228367 Z" id="Path" fill="#FFFFFF"></path>
                        </g>
                    </g>
                </g>
            </g>
        </g>
    </g>
</svg>