<?xml version="1.0" encoding="UTF-8"?>
<svg width="90px" height="90px" viewBox="0 0 90 90" version="1.1" xmlns="http://www.w3.org/2000/svg" xmlns:xlink="http://www.w3.org/1999/xlink">
    <!-- Generator: Sketch 50.2 (55047) - http://www.bohemiancoding.com/sketch -->
    <title>健康生活</title>
    <desc>Created with Sketch.</desc>
    <defs>
        <linearGradient x1="23.2987007%" y1="12.6975073%" x2="77.7008929%" y2="88.3779762%" id="linearGradient-1">
            <stop stop-color="#45EAC4" offset="0%"></stop>
            <stop stop-color="#2CC0D6" offset="100%"></stop>
        </linearGradient>
    </defs>
    <g id="Page-1" stroke="none" stroke-width="1" fill="none" fill-rule="evenodd">
        <g id="发布-copy-4" transform="translate(-630.000000, -508.000000)">
            <g id="3" transform="translate(19.000000, 508.000000)">
                <g id="健康生活" transform="translate(611.000000, 0.000000)">
                    <g>
                        <circle id="Oval-Copy" fill="url(#linearGradient-1)" cx="45" cy="45" r="45"></circle>
                        <g id="2、健康知识" transform="translate(19.000000, 23.000000)" fill="#FFFFFF" fill-rule="nonzero">
                            <path d="M45.1525418,24 L50.5,24 C51.3284271,24 52,24.6715729 52,25.5 L52,25.5 C52,26.3284271 51.3284271,27 50.5,27 L43,27 C43.7466083,25.9749157 44.4738069,24.9648253 45.1525418,24 Z M34.2541182,24 L29.8678829,10.2551943 C29.6999803,9.72905066 29.1373445,9.43863898 28.6112009,9.60654167 C28.3054799,9.70410318 28.0651543,9.94245994 27.9650813,10.247368 L24.3905447,21.1384638 C24.2183197,21.6632085 23.6533141,21.9489822 23.1285694,21.7767572 C22.8287268,21.6783466 22.5929311,21.4441737 22.4924523,21.1450178 L20.4722955,15.1303989 C20.2964508,14.6068561 19.7294853,14.324991 19.2059424,14.5008357 C18.9040394,14.6022372 18.6684901,14.8413786 18.5716692,15.1447817 L15.7458223,24 L7.77657435,24 C7.01785622,22.8257943 6.31584405,21.7132644 5.7009438,20.711303 C4.0145795,18.5328335 3,15.7895263 3,12.7998789 C3,5.73034955 8.62829513,0 15.5714201,0 C19.3312133,0 22.6963256,1.68966643 24.9999703,4.35330382 C27.3037934,1.68966643 30.6687272,1.68272294e-15 34.4285799,1.68272294e-15 C41.3716454,1.68272294e-15 47,5.73034949 47,12.7998789 C47,15.7894657 45.985361,18.5328941 44.2989967,20.711303 C43.6840964,21.7132644 42.9820248,22.8257336 42.2233661,24 L34.2541182,24 Z M0,25.5 L0,25.5 C-1.01453063e-16,24.6715729 0.671572875,24 1.5,24 L6.69247111,24 C7.42020622,24.9648253 8.1997645,25.9749726 9,27 L1.5,27 C0.671572875,27 1.01453063e-16,26.3284271 0,25.5 Z M21.4940047,24.8935343 L23.4875011,31.1567238 C23.6550065,31.6829941 24.2174228,31.9738305 24.743693,31.8063251 C25.0527601,31.7079529 25.2949202,31.4657936 25.3932934,31.1567268 L28.946368,19.9937576 C29.113875,19.4674878 29.6762922,19.1766532 30.202562,19.3441602 C30.5116258,19.4425325 30.7537837,19.6846891 30.8521577,19.9937524 L32.9186021,26.4859374 L41,26.4859374 C35.5736199,34.5896632 26,44 26,44 C26,44 16.4263801,34.5897234 11,26.4861183 L19.0812798,26.4861183 L19.5882169,24.893517 C19.7557318,24.3672498 20.3181534,24.0764236 20.8444206,24.2439384 C21.1534809,24.3423147 21.395634,24.5844722 21.4940047,24.8935343 Z" id="Shape"></path>
                        </g>
                    </g>
                </g>
            </g>
        </g>
    </g>
</svg>