<?xml version="1.0" encoding="UTF-8"?>
<svg width="90px" height="90px" viewBox="0 0 90 90" version="1.1" xmlns="http://www.w3.org/2000/svg" xmlns:xlink="http://www.w3.org/1999/xlink">
    <!-- Generator: Sketch 50.2 (55047) - http://www.bohemiancoding.com/sketch -->
    <title>汽车服务</title>
    <desc>Created with Sketch.</desc>
    <defs>
        <linearGradient x1="50%" y1="0%" x2="50%" y2="100%" id="linearGradient-1">
            <stop stop-color="#FFE81B" offset="0%"></stop>
            <stop stop-color="#FFC70B" offset="100%"></stop>
        </linearGradient>
        <linearGradient x1="50%" y1="0%" x2="50%" y2="111.902211%" id="linearGradient-2">
            <stop stop-color="#FFFFFF" offset="0%"></stop>
            <stop stop-color="#FFFFFF" stop-opacity="0.687783062" offset="100%"></stop>
        </linearGradient>
    </defs>
    <g id="Page-1" stroke="none" stroke-width="1" fill="none" fill-rule="evenodd">
        <g id="发布-copy-4" transform="translate(-630.000000, -158.000000)">
            <g id="1" transform="translate(19.000000, 158.000000)">
                <g id="汽车服务" transform="translate(611.000000, 0.000000)">
                    <g>
                        <circle id="Oval-Copy" fill="url(#linearGradient-1)" cx="45" cy="45" r="45"></circle>
                        <g transform="translate(11.000000, 23.000000)" fill-rule="nonzero">
                            <path d="M62.9670157,27.3785352 L62.9670157,27.0848441 L62.9670157,26.7585207 L62.9670157,26.595359 L62.9670157,26.4321972 C62.9670157,26.3669326 62.9670157,26.3016679 62.9340314,26.2690355 C62.2743455,20.3952139 58.0193717,15.6961566 52.4120419,14.3255983 C52.4007668,14.3046497 10.5846014,14.2569644 10.5549738,14.2603336 C4.98062827,15.6635243 0.72565445,20.3625816 0.0329842932,26.1385062 C0.0329842932,26.3016679 0.0329842932,26.3669326 0,26.3995649 L0,34.5902828 C0,36.515591 1.58324607,38.0819434 3.49633508,38.0819434 L7.19057592,38.0819434 C8.01518325,42.0304569 11.5445026,45 15.7664921,45 C20.1204188,45 23.6497382,42.0304569 24.4743455,38.0819434 L38.7235602,38.0819434 C39.5481675,42.0304569 43.0774869,45 47.2994764,45 C51.6534031,45 55.1827225,42.0304569 56.0073298,38.0819434 L59.5036649,38.0819434 C61.4497382,38.0819434 63,36.515591 63,34.6229152 L63,27.7048586 C62.9670157,27.6069616 62.9670157,27.4764322 62.9670157,27.3785352 Z M47.3324607,27.7048586 C43.1104712,27.7048586 39.5481675,30.6744017 38.7565445,34.6229152 L24.408377,34.6229152 C23.6167539,30.6744017 20.0544503,27.7048586 15.8324607,27.7048586 C11.6104712,27.7048586 8.04816754,30.6744017 7.2565445,34.6229152 L3.46335079,34.6229152 L3.46335079,27.7048586 L3.46335079,27.4764322 L3.46335079,27.3785352 L3.46335079,27.2153735 L3.46335079,27.0848441 L3.46335079,26.9869471 L3.46335079,26.8564177 L3.46335079,26.791153 C3.8591623,22.4510515 6.99267016,18.7635968 11.3795812,17.6867295 C11.5445026,17.6540972 11.7094241,17.5888325 11.8413613,17.5235678 C12.5340314,17.3930384 13.2267016,17.3277737 13.952356,17.3277737 L48.9816754,17.3277737 C49.7073298,17.3277737 50.4,17.3930384 51.0926702,17.5235678 C51.2575916,17.5888325 51.3895288,17.6214648 51.5544503,17.6867295 C55.908377,18.7635968 59.0748691,22.4510515 59.4706806,26.791153 L59.4706806,34.6229152 L55.908377,34.6229152 C55.1167539,30.6744017 51.5544503,27.7048586 47.3324607,27.7048586 Z" id="Shape" fill="#FFFFFF"></path>
                            <path d="M52.5004313,14.7433092 C49.643406,14.7625881 13.7512916,14.7542262 10.6433632,14.6780445 C11.5339391,6.68312069 20.4502618,0 31.4670157,0 C42.4837696,0 51.5768711,6.68312069 52.5004313,14.7433092 Z M33.2046198,14.2864564 L48.872159,14.2864564 C47.7177088,8.73895825 41.065445,4.04641044 33.1162304,3.52429297 L33.2046198,14.2864564 Z M29.6198953,3.52429297 C21.7366492,4.11167513 15.3931014,8.80422293 14.2386512,14.2538241 L29.7082847,14.2538241 L29.6198953,3.52429297 Z" id="Combined-Shape" fill="url(#linearGradient-2)"></path>
                        </g>
                    </g>
                </g>
            </g>
        </g>
    </g>
</svg>