<?xml version="1.0" encoding="UTF-8"?>
<svg width="90px" height="90px" viewBox="0 0 90 90" version="1.1" xmlns="http://www.w3.org/2000/svg" xmlns:xlink="http://www.w3.org/1999/xlink">
    <!-- Generator: Sketch 50.2 (55047) - http://www.bohemiancoding.com/sketch -->
    <title>旅游酒店</title>
    <desc>Created with Sketch.</desc>
    <defs>
        <linearGradient x1="50%" y1="100%" x2="50%" y2="0%" id="linearGradient-1">
            <stop stop-color="#FF8900" offset="0%"></stop>
            <stop stop-color="#FFC600" offset="100%"></stop>
        </linearGradient>
    </defs>
    <g id="Page-1" stroke="none" stroke-width="1" fill="none" fill-rule="evenodd">
        <g id="发布-copy-4" transform="translate(-30.000000, -508.000000)">
            <g id="3" transform="translate(19.000000, 508.000000)">
                <g id="旅游酒店" transform="translate(11.000000, 0.000000)">
                    <g>
                        <circle id="Oval" fill="url(#linearGradient-1)" cx="45" cy="45" r="45"></circle>
                        <g id="旅游特惠" transform="translate(20.000000, 27.000000)" fill="#FFFFFF" fill-rule="nonzero">
                            <path d="M49.9994699,11.8728923 C49.9753085,11.2699883 49.4675461,10.9394368 48.8853752,10.801153 C48.8018796,10.781321 2.2613009,0.0788967673 1.50834356,0.00772849435 C0.535956303,-0.084190463 -0.0322095277,0.657645739 0.00141325117,1.49642637 C0.0103401131,1.72630482 0.135048988,2.03156648 0.233565308,2.22351013 L15.4137861,36.2051512 C15.7890888,36.7338608 16.6063517,37.1973463 17.2404266,36.9139701 C18.4110224,36.3908264 28.6622753,28.5080065 29.2010412,28.3596716 C29.4814625,28.282451 36.5112916,32.3004602 36.8995302,32.2995956 C37.5349416,32.2977583 38.0489047,31.7772084 38.0476753,31.1362075 C38.0471407,31.0810345 39.1334391,20.7450432 39.1334391,20.7450432 C39.1334391,20.7450432 49.709213,12.5640407 49.8208255,12.4594228 C49.9324381,12.3548048 50.0070603,12.0666192 49.9994699,11.8728923 Z M34.6530821,27 L5,4 C5,4 33.6202074,18.9795585 34.32541,19.3923358 C35.0306126,19.8051132 34.9867502,20.0013389 34.9996604,20.5494194 C35.0125707,21.0975 34.6530821,27 34.6530821,27 Z" id="Shape"></path>
                        </g>
                    </g>
                </g>
            </g>
        </g>
    </g>
</svg>