<?xml version="1.0" encoding="UTF-8"?>
<svg width="90px" height="90px" viewBox="0 0 90 90" version="1.1" xmlns="http://www.w3.org/2000/svg" xmlns:xlink="http://www.w3.org/1999/xlink">
    <!-- Generator: Sketch 50.2 (55047) - http://www.bohemiancoding.com/sketch -->
    <title>婚庆摄影</title>
    <desc>Created with Sketch.</desc>
    <defs>
        <linearGradient x1="50%" y1="0%" x2="50%" y2="100%" id="linearGradient-1">
            <stop stop-color="#6CC5FF" offset="0%"></stop>
            <stop stop-color="#0CAEFF" offset="100%"></stop>
        </linearGradient>
        <linearGradient x1="50%" y1="0%" x2="50%" y2="100%" id="linearGradient-2">
            <stop stop-color="#FFFFFF" stop-opacity="0.867357337" offset="0%"></stop>
            <stop stop-color="#FFFFFF" offset="100%"></stop>
        </linearGradient>
    </defs>
    <g id="Page-1" stroke="none" stroke-width="1" fill="none" fill-rule="evenodd">
        <g id="发布-copy-4" transform="translate(-630.000000, -333.000000)">
            <g id="2" transform="translate(19.000000, 333.000000)">
                <g id="婚庆摄影" transform="translate(611.000000, 0.000000)">
                    <g>
                        <circle id="Oval-Copy" fill="url(#linearGradient-1)" cx="45" cy="45" r="45"></circle>
                        <g id="摄影" transform="translate(19.000000, 21.000000)">
                            <path d="M43.64,41.6842105 L9.36,41.6842105 C7.70314575,41.6842105 6.36,40.3410648 6.36,38.6842105 L6.36,17.3157895 C6.36,15.6589352 7.70314575,14.3157895 9.36,14.3157895 L43.64,14.3157895 C45.2968542,14.3157895 46.64,15.6589352 46.64,17.3157895 L46.64,38.6842105 C46.64,40.3410648 45.2968542,41.6842105 43.64,41.6842105 Z M50,8 L3,8 C1.34314575,8 -2.02906125e-16,9.34314575 0,11 L0,45 C2.02906125e-16,46.6568542 1.34314575,48 3,48 L50,48 C51.6568542,48 53,46.6568542 53,45 L53,11 C53,9.34314575 51.6568542,8 50,8 Z" id="Shape" fill="url(#linearGradient-2)" fill-rule="nonzero"></path>
                            <path d="M29.6418214,28.4594595 C29.6418214,30.7880114 27.7870011,32.6756757 25.4989643,32.6756757 C23.2109275,32.6756757 21.3561071,30.7880114 21.3561071,28.4594595 C21.3561071,26.1309075 23.2109275,24.2432432 25.4989643,24.2432432 C27.7870011,24.2432432 29.6418214,26.1309075 29.6418214,28.4594595 Z M15.1418214,28.4594595 C15.1418214,34.2808393 19.7788722,39 25.4989643,39 C31.2190563,39 35.8561071,34.2808393 35.8561071,28.4594595 C35.8561071,22.6380797 31.2190563,17.9189189 25.4989643,17.9189189 C19.7788722,17.9189189 15.1418214,22.6380797 15.1418214,28.4594595 Z" id="Shape" fill="#FFFFFF" fill-rule="nonzero"></path>
                            <path d="M34.7165057,-1.77635684e-15 L16.0456993,-1.33226763e-15 C14.8657813,-1.1155202e-15 13.795434,0.6916429 13.3106301,1.76736207 L10.5035436,7.99593553 L39.5035436,7.99593553 L37.5683464,2.06886919 C37.1654468,0.834879891 36.0146034,-6.82545891e-16 34.7165057,-4.4408921e-16 Z" id="Path" fill="#FFFFFF"></path>
                            <path d="M39,18.5 C39,19.3284271 39.6715729,20 40.5,20 C41.3284271,20 42,19.3284271 42,18.5 C42,17.6715729 41.3284271,17 40.5,17 C39.6715729,17 39,17.6715729 39,18.5 Z" id="Shape" fill="#FFFFFF" fill-rule="nonzero"></path>
                        </g>
                    </g>
                </g>
            </g>
        </g>
    </g>
</svg>