<?xml version="1.0" encoding="UTF-8"?>
<svg width="90px" height="90px" viewBox="0 0 90 90" version="1.1" xmlns="http://www.w3.org/2000/svg" xmlns:xlink="http://www.w3.org/1999/xlink">
    <!-- Generator: Sketch 50.2 (55047) - http://www.bohemiancoding.com/sketch -->
    <title>家政服务</title>
    <desc>Created with Sketch.</desc>
    <defs>
        <linearGradient x1="50%" y1="0%" x2="50%" y2="100%" id="linearGradient-1">
            <stop stop-color="#FFA7AA" offset="0%"></stop>
            <stop stop-color="#FE597C" offset="100%"></stop>
        </linearGradient>
        <linearGradient x1="61.4152263%" y1="96.3039202%" x2="41.0429923%" y2="80.1891542%" id="linearGradient-2">
            <stop stop-color="#FFFFFF" stop-opacity="0.783995697" offset="0%"></stop>
            <stop stop-color="#FFFFFF" offset="100%"></stop>
        </linearGradient>
    </defs>
    <g id="Page-1" stroke="none" stroke-width="1" fill="none" fill-rule="evenodd">
        <g id="发布-copy-4" transform="translate(-480.000000, -333.000000)">
            <g id="2" transform="translate(19.000000, 333.000000)">
                <g id="家政服务" transform="translate(461.000000, 0.000000)">
                    <g>
                        <circle id="Oval" fill="url(#linearGradient-1)" cx="45" cy="45" r="45"></circle>
                        <g id="swt-icon-家政" transform="translate(18.000000, 19.000000)">
                            <path d="M52.1794367,40.473018 C50.9898724,40.473018 50.0254757,41.4371895 50.0254757,42.626206 C50.0254757,43.8155433 50.9898081,44.7797148 52.1794367,44.7797148 C53.3690653,44.7797148 54.3333333,43.8155433 54.3333333,42.626206 C54.333269,41.4371253 53.369001,40.473018 52.1794367,40.473018 Z M43.9625603,39.2772658 C43.9625603,37.0309323 42.1410078,35.2099119 39.894096,35.2099119 C37.6470555,35.2099119 35.8256318,37.0309323 35.8256318,39.2772658 C35.8256318,41.5237276 37.6471198,43.3447479 39.894096,43.3447479 C42.1410078,43.3447479 43.9625603,41.5237276 43.9625603,39.2772658 Z M47.8195888,0.352141591 C46.6336937,-0.596184917 45.585873,0.67122269 45.585873,0.67122269 L35.9123645,9.86108759 C38.4651643,9.86108759 39.9010739,13.0509364 39.9010739,13.0509364 L49.2555628,3.54186211 C49.893795,2.58506785 49.9535306,2.13422306 49.4151369,1.62801701 C48.8767433,1.12181096 49.005484,1.3004681 47.8195888,0.352141591 Z M44.9198763,44.6195327 C43.1575446,44.6195327 41.7288444,46.0479563 41.7288444,47.8098305 C41.7288444,49.5717048 43.1575446,51 44.9198763,51 C46.682208,51 48.1108438,49.5717047 48.1108438,47.8098305 C48.1108438,46.0479563 46.682208,44.6195327 44.9198763,44.6195327 Z" id="Shape" fill="url(#linearGradient-2)" fill-rule="nonzero"></path>
                            <path d="M32.4764549,13.6155846 C29.7641454,11.5421348 25.9349458,13.6155846 25.9349458,13.6155846 C12.2136955,26.6934834 1.71064133,22.6370991 1.71064133,22.6370991 C1.71064133,22.6370991 -0.777080001,22.7865681 0.247503035,26.2150542 C3.31899916,36.4927501 17.9937032,48.9003476 21.9462364,49.6596246 C25.8987697,50.4189016 27.3708554,49.819101 27.3708554,49.819101 L27.5304295,48.702702 C24.9776298,37.3791078 34.8697449,24.7796382 34.8697449,24.7796382 C37.9010739,21.7493942 36.6248027,18.4001331 36.6248027,18.4001331 C36.1460804,15.2104128 32.4764549,13.6155846 32.4764549,13.6155846 Z" id="Path" stroke="#FFFFFF" stroke-width="4"></path>
                        </g>
                    </g>
                </g>
            </g>
        </g>
    </g>
</svg>