<?xml version="1.0" encoding="UTF-8"?>
<svg width="90px" height="90px" viewBox="0 0 90 90" version="1.1" xmlns="http://www.w3.org/2000/svg" xmlns:xlink="http://www.w3.org/1999/xlink">
    <!-- Generator: Sketch 50.2 (55047) - http://www.bohemiancoding.com/sketch -->
    <title>票务卡券</title>
    <desc>Created with Sketch.</desc>
    <defs>
        <linearGradient x1="0%" y1="0%" x2="95.1665249%" y2="100%" id="linearGradient-1">
            <stop stop-color="#FFA7AA" offset="0%"></stop>
            <stop stop-color="#FE597C" offset="100%"></stop>
        </linearGradient>
    </defs>
    <g id="Page-1" stroke="none" stroke-width="1" fill="none" fill-rule="evenodd">
        <g id="发布-copy-4" transform="translate(-30.000000, -683.000000)">
            <g id="4" transform="translate(19.000000, 683.000000)">
                <g id="票务卡券" transform="translate(11.000000, 0.000000)">
                    <g>
                        <circle id="Oval" fill="url(#linearGradient-1)" cx="45" cy="45" r="45"></circle>
                        <g id="卡包-(1)" transform="translate(19.000000, 27.000000)" fill="#FFFFFF" fill-rule="nonzero">
                            <path d="M6.04710935,28.5648103 C4.12724089,28.5648103 2.57092985,27.1024354 2.57092985,25.2985108 L2.57092985,5.70133416 C2.57092985,3.8974612 4.12724089,2.43513806 6.04710935,2.43513806 L40.9528386,2.43513806 C42.872655,2.43513806 44.4290702,3.8974612 44.4290702,5.70133416 L44.4290702,8.36856486 L47,8.36856486 L47,3.87498062 C47,1.73488083 45.252384,0 43.096755,0 L3.9031929,0 C1.74751185,-5.16795004e-05 0,1.73482915 0,3.87492894 L0,27.1249677 C0,29.2651192 1.74751185,31 3.9031929,31 L10.7549802,31 L10.7549802,28.5648103 L6.04710935,28.5648103 Z" id="Shape"></path>
                            <path d="M53,9.87498062 C53,7.73488083 51.2524342,6 49.0968028,6 L9.90319722,6 C7.74751378,6 6,7.73488083 6,9.87498062 L6,12.4659841 L53,12.4659841 L53,9.87498062 Z M6,17.1168807 L6,33.1250194 C6,35.2651192 7.74751378,37 9.90319722,37 L49.0968028,37 C51.2524342,37 53,35.2651192 53,33.1250194 L53,17.1168807 L6,17.1168807 Z M47.8988423,31.37572 L40.9754186,31.37572 L40.9754186,28.3266294 L47.8988423,28.3266294 L47.8988423,31.37572 Z" id="Shape"></path>
                        </g>
                    </g>
                </g>
            </g>
        </g>
    </g>
</svg>