<?xml version="1.0" encoding="UTF-8"?>
<svg width="90px" height="90px" viewBox="0 0 90 90" version="1.1" xmlns="http://www.w3.org/2000/svg" xmlns:xlink="http://www.w3.org/1999/xlink">
    <!-- Generator: Sketch 50.2 (55047) - http://www.bohemiancoding.com/sketch -->
    <title>Group 5</title>
    <desc>Created with Sketch.</desc>
    <defs>
        <linearGradient x1="50%" y1="100%" x2="50%" y2="0%" id="linearGradient-1">
            <stop stop-color="#FF3C43" offset="0%"></stop>
            <stop stop-color="#FF736D" offset="100%"></stop>
        </linearGradient>
        <linearGradient x1="50%" y1="-93.374833%" x2="50%" y2="83.9200811%" id="linearGradient-2">
            <stop stop-color="#FFFFFF" stop-opacity="0.324728261" offset="0%"></stop>
            <stop stop-color="#FFFFFF" offset="100%"></stop>
        </linearGradient>
        <linearGradient x1="50%" y1="-266.913167%" x2="50%" y2="100%" id="linearGradient-3">
            <stop stop-color="#FFFFFF" stop-opacity="0.314821105" offset="0%"></stop>
            <stop stop-color="#FFFFFF" offset="100%"></stop>
        </linearGradient>
    </defs>
    <g id="Page-1" stroke="none" stroke-width="1" fill="none" fill-rule="evenodd">
        <g id="发布-copy-4" transform="translate(-30.000000, -158.000000)">
            <g id="1" transform="translate(19.000000, 158.000000)">
                <g id="Group-5" transform="translate(11.000000, 0.000000)">
                    <g>
                        <circle id="Oval" fill="url(#linearGradient-1)" cx="45" cy="45" r="45"></circle>
                        <g id="商城-(2)" transform="translate(20.000000, 23.000000)">
                            <path d="M44.463828,21.7488285 C43.4636912,21.7488285 42.6607645,22.5501406 42.6607645,23.5482662 L42.6678077,40.3678538 C42.6678077,40.923149 42.2099986,41.3800375 41.6535845,41.3800375 L7.72640889,41.4011246 C7.16999477,41.4011246 6.71218567,40.9512652 6.71218567,40.39597 L6.69809919,23.7450796 C6.69809919,22.7539831 5.88812925,21.945642 4.89503568,21.945642 C3.90194211,21.945642 3.09197216,22.7539831 3.09901538,23.7521087 L3.11310186,40.39597 C3.11310186,42.9334583 5.18380763,45 7.7334521,45 L41.6606277,44.9789128 C44.203229,44.9718838 46.2739347,42.9053421 46.2739347,40.3678538 L46.2739347,23.5552952 C46.2668915,22.5501406 45.4569216,21.7488285 44.463828,21.7488285 Z" id="Shape" fill="url(#linearGradient-2)" fill-rule="nonzero"></path>
                            <path d="M49.5208577,14.3955014 C49.8307593,15.3444236 50.0068397,16.3917526 49.9997965,17.4320525 C49.9997965,21.0590441 48.0206525,24.3908154 44.8300753,26.1269916 C43.4848209,26.8650422 41.8930539,27.2446111 40.0899904,27.2516401 C37.1177528,27.2516401 34.3708983,25.9582943 32.5044458,23.7371134 C30.6520798,25.9372071 27.9404412,27.230553 25.010463,27.2516401 C22.0593552,27.237582 19.3406735,25.9442362 17.4812642,23.7441425 C15.6148118,25.9653233 12.8750004,27.2656982 9.91684934,27.2727273 C8.15604507,27.2727272 6.58540773,26.9142456 5.25423975,26.2043111 C2.01436,24.4821931 0.00704321644,21.1363636 0,17.4742268 C0,16.4339269 0.161993972,15.393627 0.493025176,14.3814433 C0.514154824,14.2830365 0.535284473,14.1916588 0.556414121,14.1283974 L5.09928899,3.41611998 C5.79656744,1.32146205 7.7334521,7.10542736e-16 10.2267508,0 L39.8927803,0 C42.3579062,0 44.4567848,1.33552015 45.1892793,3.51452672 L49.4152094,14.0229616 C49.4574687,14.1213683 49.4856416,14.2197751 49.5067713,14.3252109 C49.5138145,14.346298 49.5138145,14.3673852 49.5208577,14.3955014 Z M39.4249513,15.8823529 C40.4251188,15.8823529 41.2280702,15.089614 41.2280702,14.1176471 C41.2280702,13.1456802 40.4251188,12.3529412 39.4249513,12.3529412 L10.5750487,12.3529412 C9.58192466,12.3529412 8.77192982,13.1456802 8.77192982,14.1176471 C8.77192982,15.089614 9.58192466,15.8823529 10.5750487,15.8823529 L39.4249513,15.8823529 Z" id="Combined-Shape" fill="#FFFFFF"></path>
                            <path d="M21,41.4198048 L21,37.0047105 C21,34.2321545 22.3745308,32 25,32 C27.6467451,32 29,34.2321545 29,37.0047105 L29,41.4198048" id="Rectangle-13" stroke="url(#linearGradient-3)" stroke-width="4"></path>
                        </g>
                    </g>
                </g>
            </g>
        </g>
    </g>
</svg>