<?xml version="1.0" encoding="UTF-8"?>
<svg width="90px" height="90px" viewBox="0 0 90 90" version="1.1" xmlns="http://www.w3.org/2000/svg" xmlns:xlink="http://www.w3.org/1999/xlink">
    <!-- Generator: Sketch 50.2 (55047) - http://www.bohemiancoding.com/sketch -->
    <title>餐饮美食</title>
    <desc>Created with Sketch.</desc>
    <defs>
        <linearGradient x1="50%" y1="0%" x2="50%" y2="100%" id="linearGradient-1">
            <stop stop-color="#FF957B" offset="0%"></stop>
            <stop stop-color="#FF5959" offset="100%"></stop>
        </linearGradient>
        <linearGradient x1="50%" y1="0%" x2="50%" y2="32.3745488%" id="linearGradient-2">
            <stop stop-color="#FFFFFF" stop-opacity="0.86497962" offset="0%"></stop>
            <stop stop-color="#FFFFFF" offset="100%"></stop>
        </linearGradient>
    </defs>
    <g id="Page-1" stroke="none" stroke-width="1" fill="none" fill-rule="evenodd">
        <g id="发布-copy-4" transform="translate(-330.000000, -508.000000)">
            <g id="3" transform="translate(19.000000, 508.000000)">
                <g id="餐饮美食" transform="translate(311.000000, 0.000000)">
                    <g>
                        <circle id="Oval" fill="url(#linearGradient-1)" cx="45" cy="45" r="45"></circle>
                        <g id="影院信息-餐饮" transform="translate(17.000000, 26.000000)">
                            <path d="M55.2631165,39 L0.736883503,39 C0.329893248,39 0,38.6642927 0,38.2499837 L0,36.7500163 C0,36.336034 0.32982901,36 0.736883503,36 L55.2631165,36 C55.6701068,36 56,36.3359686 56,36.7500163 L56,38.2499837 C56,38.6642927 55.6701709,39 55.2631165,39 Z M55.2630532,33 L0.736882658,33 C0.32989287,33 0,32.6786287 0,32.2825706 L0,30.8477745 C0,30.451529 0.329828632,30.1303451 0.736882658,30.1303451 L2.94740222,30.1303451 C2.94740222,18.614851 11.1891706,5.91034429 28,5.91034429 C44.8108294,5.91034429 53.0525978,18.6148509 53.0525978,30.1304076 L55.2631173,30.1304076 C55.6701071,30.1304076 56,30.4515289 56,30.847837 L56,32.2826331 C55.9999358,32.6786286 55.6701071,33 55.2630532,33 Z M19.2980203,14 C15.8413327,15.9716723 12.9716723,18.8412683 11,22.2980203 C11.6470304,23.0552712 12.470272,23.6459038 13.4209239,24 C15.1776919,20.8119749 17.8120393,18.1776276 21,16.4209239 C20.6459681,15.4703364 20.0550781,14.6467729 19.2980203,14 Z" id="Shape" fill="url(#linearGradient-2)" fill-rule="nonzero"></path>
                            <path d="M22.230859,6.53553117 C22.1318294,6.28771164 22.1051956,5.97530708 22.1051956,5.73912227 C22.1051956,2.56947078 24.7442742,0 27.9999358,0 C31.2555975,0 33.894676,2.5694083 33.894676,5.73912227 C33.894676,5.97530708 33.9229214,6.24667997 33.894676,6.47542733 C33.855372,6.52555019 30.8636836,5.94165659 27.9999358,5.92987288 C25.1374786,5.91809448 22.2361606,6.53507889 22.230859,6.53553117 Z" id="Path" fill="#FFFFFF"></path>
                        </g>
                    </g>
                </g>
            </g>
        </g>
    </g>
</svg>