<?xml version="1.0" encoding="UTF-8"?>
<svg width="90px" height="90px" viewBox="0 0 90 90" version="1.1" xmlns="http://www.w3.org/2000/svg" xmlns:xlink="http://www.w3.org/1999/xlink">
    <!-- Generator: Sketch 50.2 (55047) - http://www.bohemiancoding.com/sketch -->
    <title>宠物服务</title>
    <desc>Created with Sketch.</desc>
    <defs>
        <linearGradient x1="50%" y1="0%" x2="50%" y2="100%" id="linearGradient-1">
            <stop stop-color="#56C1FF" offset="0%"></stop>
            <stop stop-color="#2B8EFE" offset="100%"></stop>
        </linearGradient>
        <linearGradient x1="50%" y1="0%" x2="50%" y2="75.9032816%" id="linearGradient-2">
            <stop stop-color="#FFFFFF" stop-opacity="0.73791327" offset="0%"></stop>
            <stop stop-color="#FFFFFF" offset="100%"></stop>
        </linearGradient>
    </defs>
    <g id="Page-1" stroke="none" stroke-width="1" fill="none" fill-rule="evenodd">
        <g id="发布-copy-4" transform="translate(-30.000000, -333.000000)">
            <g id="2" transform="translate(19.000000, 333.000000)">
                <g id="宠物服务" transform="translate(11.000000, 0.000000)">
                    <g>
                        <circle id="Oval" fill="url(#linearGradient-1)" cx="45" cy="45" r="45"></circle>
                        <g id="宠物" transform="translate(20.000000, 24.000000)" fill-rule="nonzero">
                            <path d="M4,33 C4,40.1797017 13.4020203,46 25,46 C36.5979797,46 46,40.1797017 46,33 C46,25.8202983 36.5979797,20 25,20 C13.4020203,20 4,25.8202983 4,33 Z" id="Shape" fill="url(#linearGradient-2)"></path>
                            <path d="M4.77465827,21.9365144 C6.1766409,22.2200397 7.32447725,21.5411335 7.78578846,20.1555332 C8.24709966,18.769933 7.95180157,16.8881443 7.01113012,15.2190188 C6.07045871,13.5498933 4.62732432,12.3470109 3.22534171,12.0634856 C1.82335909,11.7799603 0.67552276,12.4588665 0.214211554,13.8444667 C-0.247099652,15.2300669 0.0481984105,17.1118556 0.98886982,18.7809811 C1.92954122,20.4501066 3.37267563,21.6529891 4.77465827,21.9365144 Z" id="Shape" fill="#FFFFFF"></path>
                            <path d="M12.1574612,11.3290712 C12.8067761,14.8892037 15.2773707,17.4040736 17.6756887,16.9461902 C20.0740066,16.4883068 21.4918537,13.2310613 20.8425388,9.67092877 C20.1932239,6.11079625 17.7226293,3.59592645 15.3243113,4.05380985 C12.9259934,4.51169325 11.5081463,7.76893872 12.1574612,11.3290712 Z" id="Shape" fill="#FFFFFF"></path>
                            <path d="M30.4991407,15.9749706 C32.9216128,16.3213679 35.3335144,13.0316624 35.8862737,8.62720778 C36.439033,4.22275314 34.9233314,0.371426703 32.5008593,0.0250294137 C30.0783872,-0.321367876 27.6664856,2.96833759 27.1137263,7.37279222 C26.560967,11.7772469 28.0766686,15.6285733 30.4991407,15.9749706 Z" id="Shape" fill="#FFFFFF"></path>
                            <path d="M42.2036834,21.731211 C43.7833144,22.6220934 46.3158119,21.2260609 47.8601749,18.6130852 C49.404538,16.0001095 49.3759476,13.1596714 47.7963166,12.268789 C46.2166856,11.3779066 43.6841881,12.7739391 42.1398251,15.3869148 C40.595462,17.9998905 40.6240524,20.8403286 42.2036834,21.731211 Z" id="Shape" fill="#FFFFFF"></path>
                        </g>
                    </g>
                </g>
            </g>
        </g>
    </g>
</svg>