<?xml version="1.0" encoding="UTF-8"?>
<svg width="40px" height="40px" viewBox="0 0 40 40" version="1.1" xmlns="http://www.w3.org/2000/svg" xmlns:xlink="http://www.w3.org/1999/xlink">
    <!-- Generator: Sketch 50.2 (55047) - http://www.bohemiancoding.com/sketch -->
    <title>余额支付</title>
    <desc>Created with Sketch.</desc>
    <defs></defs>
    <g id="Page-1" stroke="none" stroke-width="1" fill="none" fill-rule="evenodd">
        <g id="选择支付方式" transform="translate(-30.000000, -1177.000000)" fill="#FFA700">
            <g id="余额支付" transform="translate(30.000000, 1148.000000)">
                <g id="Group-10" transform="translate(0.000000, 29.000000)">
                    <g id="余额支付">
                        <g id="Shape">
                            <path d="M19.9999216,0.0243529412 C8.96764706,0.0243529412 0.0243921569,8.96764706 0.0243921569,19.9998824 C0.0243921569,31.0323137 8.96768627,39.9756471 19.9999216,39.9756471 C31.0323529,39.9756471 39.9756863,31.0323529 39.9756863,19.9998824 C39.9756471,8.96764706 31.0323529,0.0243529412 19.9999216,0.0243529412 Z M26.5942353,22.4984314 C27.4806275,22.4984314 28.2063529,23.2241569 28.2063529,24.1105882 C28.2063529,24.9970196 27.4806667,25.7227451 26.5942353,25.7227451 L21.6120784,25.7227451 L21.6120784,29.8781961 C21.6120784,30.7645882 20.8865882,31.4903529 19.9999608,31.4903529 C19.1135686,31.4903529 18.3879608,30.7646275 18.3879608,29.8781961 L18.3879608,25.7227451 L13.4093725,25.7227451 C12.5229804,25.7227451 11.7973725,24.9970196 11.7973725,24.1105882 C11.7973725,23.2241569 12.522902,22.4984314 13.4093725,22.4984314 L18.3916863,22.4984314 L18.3916863,20.1158431 L13.4093725,20.1158431 C12.5229804,20.1158431 11.7973725,19.3903137 11.7973725,18.5038431 C11.7973725,17.6172157 12.522902,16.8917255 13.4093725,16.8917255 L16.9889412,16.8917255 L12.6613333,11.8458824 C12.085451,11.1727451 12.1639216,10.1515294 12.8372157,9.57560784 C13.5105098,8.99952941 14.5315686,9.07803922 15.1076078,9.75133333 L20.0036078,15.4592157 L24.8997647,9.75133333 C25.4758431,9.07803922 26.496902,8.99956863 27.1702353,9.57560784 C27.8435294,10.1515686 27.922,11.1727451 27.3458824,11.8458824 L23.0183529,16.8917255 L26.5979216,16.8917255 C27.4843137,16.8917255 28.2100392,17.6172157 28.2100392,18.5038431 C28.2100392,19.3902353 27.4843529,20.1158431 26.5979216,20.1158431 L21.612,20.1158431 L21.612,22.4984314 L26.5941569,22.4984314 L26.5942353,22.4984314 Z" fill-rule="nonzero"></path>
                        </g>
                    </g>
                </g>
            </g>
        </g>
    </g>
</svg>