<?xml version="1.0" encoding="UTF-8"?>
<svg width="40px" height="40px" viewBox="0 0 40 40" version="1.1" xmlns="http://www.w3.org/2000/svg" xmlns:xlink="http://www.w3.org/1999/xlink">
    <!-- Generator: Sketch 50.2 (55047) - http://www.bohemiancoding.com/sketch -->
    <title>支付宝支付</title>
    <desc>Created with Sketch.</desc>
    <defs></defs>
    <g id="Page-1" stroke="none" stroke-width="1" fill="none" fill-rule="evenodd">
        <g id="选择支付方式" transform="translate(-30.000000, -1078.000000)" fill="#008BFF">
            <g id="支付宝" transform="translate(30.000000, 1049.000000)">
                <g id="Group-8" transform="translate(0.000000, 29.000000)">
                    <g id="支付宝支付">
                        <g id="Shape">
                            <path d="M8.99775281,22.5168539 C8.5258427,22.8988764 8.01797753,23.4516854 7.8741573,24.1573034 C7.67640449,25.1191011 7.83370787,26.3280899 8.76404494,27.2719101 C9.88764045,28.4179775 11.6,28.7325843 12.341573,28.7865169 C14.3505618,28.9303371 16.4898876,27.9370787 18.1033708,26.8 C18.7370787,26.3550562 19.8157303,25.4606742 20.8539326,24.0764045 C18.5348315,22.8808989 15.6404494,21.5550562 12.5483146,21.6853933 C10.9573034,21.752809 9.8247191,22.0808989 8.99775281,22.5168539 Z M38.4,27.811236 C39.4247191,25.411236 39.9910112,22.7685393 39.9910112,19.9955056 C39.9910112,8.97078652 31.0202247,0 19.9955056,0 C8.96629213,0.00449438202 0,8.9752809 0,20 C0,31.0247191 8.97078652,39.9955056 19.9955056,39.9955056 C26.6516854,39.9955056 32.552809,36.7280899 36.188764,31.7123596 C32.7505618,30 27.0876404,27.1910112 23.5955056,25.4876404 C21.9325843,27.3842697 19.4696629,29.2853933 16.6876404,30.1168539 C14.9393258,30.6337079 13.3662921,30.8359551 11.7213483,30.4988764 C10.0898876,30.1662921 8.88988764,29.4022472 8.18876404,28.6382022 C7.83370787,28.247191 7.4247191,27.752809 7.12808989,27.1595506 C7.15505618,27.2359551 7.17303371,27.2808989 7.17303371,27.2808989 C7.17303371,27.2808989 7.00224719,26.988764 6.87191011,26.5213483 C6.80449438,26.2966292 6.75955056,26.058427 6.74157303,25.811236 C6.72808989,25.6494382 6.72359551,25.4786517 6.73258427,25.3033708 C6.71910112,25.0022472 6.72808989,24.6876404 6.8,24.3640449 C6.96179775,23.5730337 7.2988764,22.6516854 8.1752809,21.7977528 C10.0898876,19.9235955 12.6561798,19.8202247 13.9865169,19.8292135 C15.9550562,19.8382022 19.3797753,20.7011236 22.2606742,21.7213483 C23.0606742,20.0224719 23.5685393,18.2022472 23.9011236,16.9932584 L11.9235955,16.9932584 L11.9235955,15.6988764 L18.0764045,15.6988764 L18.0764045,13.1101124 L10.6247191,13.1101124 L10.6247191,11.8157303 L18.0719101,11.8157303 L18.0719101,9.21348315 C18.0719101,8.85842697 18.1438202,8.56629213 18.7191011,8.56629213 L21.6314607,8.56629213 L21.6314607,11.8022472 L29.7258427,11.8022472 L29.7258427,13.0966292 L21.6359551,13.0966292 L21.6359551,15.6853933 L28.1123596,15.6853933 C28.1123596,15.6853933 27.4606742,19.3123596 25.4292135,22.8853933 C29.941573,24.4988764 36.2876404,26.9842697 38.4,27.811236 Z" fill-rule="nonzero"></path>
                        </g>
                    </g>
                </g>
            </g>
        </g>
    </g>
</svg>